<svg xmlns="http://www.w3.org/2000/svg" width="431.498" height="341.559" viewBox="0 0 431.498 341.559">
  <g id="Business" transform="translate(246.509 -306.593)">
    <g id="freepik--Shadow--inject-6" transform="translate(-246.509 626.757)">
      <ellipse id="freepik--path--inject-6" cx="215.749" cy="10.698" rx="215.749" ry="10.698" fill="#f5f5f5"/>
    </g>
    <g id="freepik--Contract--inject-6" transform="translate(-51.03 306.593)">
      <path id="Path_359" data-name="Path 359" d="M271.414,126.807V139.2a3.637,3.637,0,0,1-3.883,3.3h-35.8a3.637,3.637,0,0,1-3.883-3.3V94.279A3.642,3.642,0,0,1,231.733,91h35.741a4.284,4.284,0,0,1,2.771.945,3.088,3.088,0,0,1,1.168,2.334v19.6" transform="translate(-227.282 -90.499)" fill="#fff"/>
      <path id="Path_360" data-name="Path 360" d="M267.532,143H231.791c-2.458,0-4.451-1.692-4.451-3.78V94.25c0-2.088,1.993-3.78,4.451-3.78h35.741c2.458,0,4.451,1.692,4.451,3.78v19.6H270.8V94.25a3.118,3.118,0,0,0-3.338-2.835H231.791a3.118,3.118,0,0,0-3.338,2.835v44.917A3.118,3.118,0,0,0,231.791,142h35.741a3.118,3.118,0,0,0,3.338-2.835V126.778h1.179v12.389a3.508,3.508,0,0,1-1.3,2.73A4.89,4.89,0,0,1,267.532,143Z" transform="translate(-227.34 -90.47)" fill="#7e57c2"/>
      <path id="Path_361" data-name="Path 361" d="M245.083,138.85a21.939,21.939,0,0,1,2.281-1.049q.544-.209,1.113-.369a4.8,4.8,0,0,1,1.313-.255l-.456-.217c-.078-.1-.122.161-.145.227l-.156.331a2.618,2.618,0,0,0-.278.737.52.52,0,0,0,.136.528.753.753,0,0,0,.587.209,10.122,10.122,0,0,0,3.283-1.087h-.412c.122,0,.267.142.389.18a2.2,2.2,0,0,0,.567.094,9.978,9.978,0,0,1,1.3,0c.679.057.668-.841,0-.888a7.478,7.478,0,0,1-1.38,0c-.445-.085-.579-.35-1.046-.17s-.846.416-1.3.576q-.316.114-.645.2l-.423.1c-.122,0-.345,0-.167.151l.156.312c0-.6.757-1.172.556-1.8s-1.113-.35-1.658-.236a17.007,17.007,0,0,0-4.173,1.625.412.412,0,0,0-.195.61.579.579,0,0,0,.718.165Z" transform="translate(-225.432 -92.988)" fill="#e0e0e0"/>
      <rect id="Rectangle_36" data-name="Rectangle 36" width="35.218" height="0.992" transform="translate(4.707 7.201)" fill="#e0e0e0"/>
      <rect id="Rectangle_37" data-name="Rectangle 37" width="31.235" height="0.992" transform="translate(4.707 14.242)" fill="#e0e0e0"/>
      <rect id="Rectangle_38" data-name="Rectangle 38" width="35.218" height="0.992" transform="translate(4.707 21.291)" fill="#e0e0e0"/>
      <rect id="Rectangle_39" data-name="Rectangle 39" width="9.681" height="0.992" transform="translate(4.707 28.341)" fill="#e0e0e0"/>
      <rect id="Rectangle_40" data-name="Rectangle 40" width="12.874" height="0.992" transform="translate(18.449 28.341)" fill="#e0e0e0"/>
      <rect id="Rectangle_41" data-name="Rectangle 41" width="35.218" height="0.992" transform="translate(4.707 35.382)" fill="#e0e0e0"/>
      <path id="Path_362" data-name="Path 362" d="M236.47,140.693c-3,0-5.43-2.065-5.43-4.612s2.431-4.612,5.43-4.612,5.43,2.065,5.43,4.612S239.469,140.693,236.47,140.693Zm0-8.222c-2.355,0-4.264,1.622-4.262,3.623s1.914,3.62,4.269,3.616,4.26-1.629,4.254-3.629-1.912-3.61-4.262-3.61Z" transform="translate(-226.923 -92.724)" fill="#7e57c2"/>
      <path id="Path_363" data-name="Path 363" d="M239.449,136.192a2.753,2.753,0,0,1-1.971,2.521,3.631,3.631,0,0,1-3.5-.584,2.431,2.431,0,0,1-.7-2.967,3.254,3.254,0,0,1,2.962-1.682A3,3,0,0,1,239.449,136.192Z" transform="translate(-226.697 -92.834)" fill="#7e57c2"/>
      <path id="Path_364" data-name="Path 364" d="M255.08,134.143a7.658,7.658,0,0,1,1.58-3.619c.8-1.03,1.769-1.89,2.659-2.9q2.687-2.835,5.564-5.67c3.761-3.714,7.578-7.39,11.739-10.839a.685.685,0,0,1,.765-.012.461.461,0,0,1,.159.636c-3,4.224-6.354,8.222-9.759,12.181-1.714,1.966-3.449,3.922-5.23,5.85-.9.945-1.725,1.966-2.726,2.835a10.132,10.132,0,0,1-3.783,2.136.752.752,0,0,1-.89-.359A.562.562,0,0,1,255.08,134.143Z" transform="translate(-224.213 -91.598)" fill="#7e57c2"/>
      <path id="Path_446" data-name="Path 446" d="M0,0,9.071.724l.087,1.068L.087,1.068Z" transform="translate(26.433 81.424) rotate(-41.09)" fill="#7e57c2"/>
      <path id="Path_447" data-name="Path 447" d="M0,0,12.113.455l.038,1.16L.038,1.16Z" transform="matrix(0.219, -0.976, 0.976, 0.219, 21.943, 79.342)" fill="#7e57c2"/>
      <path id="Path_448" data-name="Path 448" d="M0,0,1.086.088l.448,5.475L.448,5.475Z" transform="translate(13.292 77.28) rotate(-43.12)" fill="#7e57c2"/>
    </g>
    <g id="freepik--character-2--inject-6" transform="translate(-30.76 313.332)">
      <path id="Path_365" data-name="Path 365" d="M318.137,407.207h-9.469L307.51,388.59h9.458Z" transform="translate(-232.689 -97.353)" fill="#7f3e3b"/>
      <path id="Path_366" data-name="Path 366" d="M361.295,407.207h-9.469L348.12,388.59h9.458Z" transform="translate(-228.111 -97.353)" fill="#7f3e3b"/>
      <path id="Path_367" data-name="Path 367" d="M352.619,407.3h10.627a.756.756,0,0,1,.779.548l1.469,7.144a1.132,1.132,0,0,1-.347,1,1.6,1.6,0,0,1-1.121.433c-3.705-.057-5.5-.246-10.182-.246-2.871,0-10.627.255-14.6.255s-4.306-3.336-2.671-3.638c7.377-1.351,12.04-3.223,14.466-5a2.679,2.679,0,0,1,1.58-.5Z" transform="translate(-229.517 -98.382)" fill="#263238"/>
      <path id="Path_368" data-name="Path 368" d="M310.353,407.3h10.326a.756.756,0,0,1,.779.548l1.469,7.144a1.111,1.111,0,0,1-.331,1,1.578,1.578,0,0,1-1.116.433c-3.717-.057-9.1-.246-13.787-.246-5.475,0-6.866.255-13.3.255-3.883,0-4.774-3.336-3.127-3.638,7.478-1.37,10.182-1.521,16.758-4.867A5.141,5.141,0,0,1,310.353,407.3Z" transform="translate(-234.609 -98.382)" fill="#263238"/>
      <path id="Path_369" data-name="Path 369" d="M314.149,143.223,301.219,140s-13.175,26.584-17.637,28.351c-6.064,2.363-22.255,9.611-29.109,13.032-.467,1.314-.478,4.914.267,5.954,11.228-.756,34.261-7.229,38.69-10.839C303.534,168.256,314.149,143.223,314.149,143.223Z" transform="translate(-238.706 -83.688)" fill="#7f3e3b"/>
      <path id="Path_370" data-name="Path 370" d="M315.013,137.538C318.685,144.494,293.47,175,293.47,175l-12.24-10.792s10.827-23.087,16.691-31.942C303.908,123.165,311.018,129.884,315.013,137.538Z" transform="translate(-235.652 -83.021)" fill="#7e57c2"/>
      <path id="Path_371" data-name="Path 371" d="M315.013,137.538C318.685,144.494,293.47,175,293.47,175l-12.24-10.792s10.827-23.087,16.691-31.942C303.908,123.165,311.018,129.884,315.013,137.538Z" transform="translate(-235.652 -83.021)" fill="#fff" opacity="0.4"/>
      <path id="Path_372" data-name="Path 372" d="M280.713,165.307c-.768.387-2.415,2.93-2.782,4.2s8.245,11.038,11.595,10.641,7.177-3.166,7.867-4.659S282.326,164.5,280.713,165.307Z" transform="translate(-236.025 -85.076)" fill="#7e57c2"/>
      <path id="Path_373" data-name="Path 373" d="M256.519,183.08l-7.789-1.21.467,9.45s2.737.945,8.635-2.155Z" transform="translate(-239.316 -85.989)" fill="#7f3e3b"/>
      <path id="Path_374" data-name="Path 374" d="M240.27,185.017l1.424,5.812,8.4.529-.467-9.479Z" transform="translate(-240.27 -85.99)" fill="#7f3e3b"/>
      <path id="Path_375" data-name="Path 375" d="M307.51,388.6l.6,9.592h9.458l-.59-9.592Z" transform="translate(-232.689 -97.354)" opacity="0.2"/>
      <path id="Path_376" data-name="Path 376" d="M357.589,388.6H348.12l1.914,9.592H359.5Z" transform="translate(-228.111 -97.354)" opacity="0.2"/>
      <path id="Path_377" data-name="Path 377" d="M301.515,127.914s-12.63,27.614-4.551,72.814h50.618c.712-6.615-2.225-42.139,6.977-73.23a150.99,150.99,0,0,0-16.847-1.824q-10.751-.525-21.52,0A113.466,113.466,0,0,0,301.515,127.914Z" transform="translate(-234.183 -82.886)" fill="#7e57c2"/>
      <path id="Path_378" data-name="Path 378" d="M301.515,127.914s-12.63,27.614-4.551,72.814h50.618c.712-6.615-2.225-42.139,6.977-73.23a150.99,150.99,0,0,0-16.847-1.824q-10.751-.525-21.52,0A113.466,113.466,0,0,0,301.515,127.914Z" transform="translate(-234.183 -82.886)" opacity="0.2"/>
      <path id="Path_379" data-name="Path 379" d="M338.219,135.465c-1.113,5.122.078,17.36,5.03,31.507a177.565,177.565,0,0,1,5.564-36.091v-.057C345.452,130.532,339.3,130.664,338.219,135.465Z" transform="translate(-229.271 -83.178)" opacity="0.2"/>
      <path id="Path_380" data-name="Path 380" d="M333.811,107.61c-1.691,5.878-2.771,13.164,1.847,17.086,0,0-3.116,5.973-15.979,5.973-11.762,0-5.564-5.973-5.564-5.973,7.789-1.559,7.867-9.668,6.777-14.242Z" transform="translate(-232.129 -81.907)" fill="#7f3e3b"/>
      <path id="Path_381" data-name="Path 381" d="M319,131.531c7.578,2.013,9.08,4.073,9.08,4.073s9.447-3.26,9.091-10.329a20.1,20.1,0,0,0-3.694-1.814S332.676,128.7,319,131.531Z" transform="translate(-231.394 -82.778)" fill="#7e57c2"/>
      <path id="Path_382" data-name="Path 382" d="M319.914,131.588a15.392,15.392,0,0,0-7.789,3.43s-2.7-2.41-.111-9.4c0,0,2.526-.728,4.618-1.106C316.576,124.519,314.874,130.076,319.914,131.588Z" transform="translate(-232.308 -82.836)" fill="#7e57c2"/>
      <path id="Path_383" data-name="Path 383" d="M320.121,110.464c.645,2.674.89,6.615-.6,9.649a14.4,14.4,0,0,0,3.505-.945c4.451-1.739,6.743-4.489,9.214-8.505.223-1.049.49-2.07.779-3.052Z" transform="translate(-231.335 -81.907)" opacity="0.2"/>
      <path id="Path_384" data-name="Path 384" d="M319.321,87.723c-3.027.841-9.792,5.774-3.338,8.26S324.6,86.268,319.321,87.723Z" transform="translate(-232.038 -80.807)" fill="#263238"/>
      <path id="Path_385" data-name="Path 385" d="M339.954,99.186c-2.949,7.711-4.217,12.285-10.015,15.5-8.713,4.725-18.783-.945-18.549-9.091.2-7.381,4.985-18.749,14.788-20.214S342.9,91.5,339.954,99.186Z" transform="translate(-232.252 -80.675)" fill="#7f3e3b"/>
      <path id="Path_386" data-name="Path 386" d="M325.385,90.484c-5.007.718-9.18.491-10.693-3.043s5.375-7.239,10.126-5.576c3.505-3.1,13.075-.718,14.31,2.259,5.564-.3,10.827,5.141,7.055,7.929a5.6,5.6,0,0,1,3.084,4.169,5.157,5.157,0,0,1-1.971,4.63c1.625,4.1-4.228,8.193-8.846,6.53-4.551-1.153-7.033-.208-7.667-2.7s.968-4.9,4.84-5.387c-1.958-1.985-2.437-5.122-1.113-6.473C329.825,94.623,325.986,92.355,325.385,90.484Z" transform="translate(-231.904 -80.412)" fill="#263238"/>
      <path id="Path_387" data-name="Path 387" d="M318.988,108.563a7.561,7.561,0,0,0,4.929-1.342.178.178,0,0,0,0-.274.238.238,0,0,0-.312,0,7.258,7.258,0,0,1-5.408,1.134.236.236,0,0,0-.267.151.149.149,0,0,0,.024.142.207.207,0,0,0,.143.076Q318.539,108.525,318.988,108.563Z" transform="translate(-231.516 -81.867)" fill="#263238"/>
      <path id="Path_388" data-name="Path 388" d="M338.474,110.914a10.52,10.52,0,0,1-6.676,1.635c-3.1-.293-3.338-2.892-1.391-4.857,1.758-1.777,5.5-3.78,8.09-2.476S340.8,109.345,338.474,110.914Z" transform="translate(-230.249 -81.752)" fill="#7f3e3b"/>
      <path id="Path_389" data-name="Path 389" d="M330.462,205.109s-1.291,10.112-2.938,23.805c-1.892,15.527-4.24,35.684-5.731,51.031v.208c-.289,2.92-.545,5.67-.757,8.146-2.114,25.053,1.669,97.933,1.669,97.933H306.661s-14.777-74.374-14.41-99.87c.345-24.5,4.929-81.272,4.929-81.272Z" transform="translate(-234.41 -87.266)" fill="#7e57c2"/>
      <path id="Path_390" data-name="Path 390" d="M322.748,391.108c.078,0-.278,5.613-.278,5.613H303.987l-.467-6.162Z" transform="translate(-233.139 -97.462)" fill="#263238"/>
      <path id="Path_391" data-name="Path 391" d="M324.969,229.646c-1.892,15.527-4.24,35.684-5.731,51.031v.208c-3.527-14.563-4.629-32.67-3.26-62.485Z" transform="translate(-231.799 -87.997)" opacity="0.2"/>
      <path id="Path_392" data-name="Path 392" d="M312.82,205.11s7.389,58.081,11.984,81.093c5.041,25.2,24.936,100.041,24.936,100.041h17.336S355.393,313.476,353.1,288.49c-2.47-27.084-7.578-83.38-7.578-83.38Z" transform="translate(-232.091 -87.267)" fill="#7e57c2"/>
      <path id="Path_393" data-name="Path 393" d="M363.78,391.464c.078,0,.6,5.273.6,5.273h-19.05l-1.391-5.888Z" transform="translate(-228.582 -97.478)" fill="#263238"/>
      <path id="Path_394" data-name="Path 394" d="M323.114,99.562c-.2.633-.746,1.077-1.224.945a.971.971,0,0,1-.523-1.314c.189-.633.746-1.077,1.224-.945A.981.981,0,0,1,323.114,99.562Z" transform="translate(-231.135 -81.391)" fill="#263238"/>
      <path id="Path_395" data-name="Path 395" d="M315.634,97.922c-.2.633-.746,1.077-1.224.945s-.712-.671-.523-1.314.746-1.077,1.224-.945A.971.971,0,0,1,315.634,97.922Z" transform="translate(-231.978 -81.301)" fill="#263238"/>
      <path id="Path_396" data-name="Path 396" d="M319.464,98.86a27.212,27.212,0,0,1-5.174,4.791c.979,1.285,3.338,1.219,3.338,1.219Z" transform="translate(-231.925 -81.426)" fill="#630f0f"/>
      <path id="Path_397" data-name="Path 397" d="M327.309,97.521a.443.443,0,0,1-.3-.217,3.228,3.228,0,0,0-2.381-1.758.439.439,0,0,1-.291-.151.316.316,0,0,1-.065-.284.464.464,0,0,1,.523-.321,4.046,4.046,0,0,1,3.049,2.192.386.386,0,0,1-.245.51.517.517,0,0,1-.289.028Z" transform="translate(-230.801 -81.202)" fill="#263238"/>
      <path id="Path_398" data-name="Path 398" d="M314.03,94.466a.7.7,0,0,1-.167-.085.34.34,0,0,1,0-.539,4.97,4.97,0,0,1,3.839-1.323.439.439,0,0,1,.291.151.316.316,0,0,1,.065.284.476.476,0,0,1-.523.321h0a3.972,3.972,0,0,0-3.038,1.077A.549.549,0,0,1,314.03,94.466Z" transform="translate(-231.988 -81.077)" fill="#263238"/>
      <path id="Path_399" data-name="Path 399" d="M354.7,139.23l-11.951,6.143s13.353,24.571,13.275,28.7c-.223,7.711,3.683,24.429,2.626,33.237,1.469.444,5.564.548,6.854-.066,2.37-7.967,5.653-28.9,4.707-34.144C368.143,161.693,354.7,139.23,354.7,139.23Z" transform="translate(-228.716 -83.645)" fill="#7f3e3b"/>
      <path id="Path_400" data-name="Path 400" d="M349.847,127.611c8.9,1.106,21.587,39.474,21.587,39.474l-16.469,5.3S340.622,151.6,337.106,142.25C333.323,132.5,340.311,126.421,349.847,127.611Z" transform="translate(-229.471 -82.998)" fill="#7e57c2"/>
      <path id="Path_401" data-name="Path 401" d="M349.847,127.611c8.9,1.106,21.587,39.474,21.587,39.474l-16.469,5.3S340.622,151.6,337.106,142.25C333.323,132.5,340.311,126.421,349.847,127.611Z" transform="translate(-229.471 -82.998)" fill="#fff" opacity="0.4"/>
      <path id="Path_402" data-name="Path 402" d="M348.225,408.671a3.042,3.042,0,0,1-1.792-.416.982.982,0,0,1-.412-1,.646.646,0,0,1,.412-.539c1.113-.454,4.039,1.134,4.373,1.323a.16.16,0,0,1,.089.189.229.229,0,0,1-.178.151,12.677,12.677,0,0,1-2.493.293Zm-1.3-1.692a.68.68,0,0,0-.289.047.244.244,0,0,0-.156.217.7.7,0,0,0,.267.7c.49.369,1.725.416,3.338.142a9.412,9.412,0,0,0-3.16-1.106Z" transform="translate(-228.35 -98.345)" fill="#7e57c2"/>
      <path id="Path_403" data-name="Path 403" d="M350.465,408.28a.209.209,0,0,1-.1,0c-.957-.444-2.748-2.211-2.493-3.109a.754.754,0,0,1,.734-.491,1.366,1.366,0,0,1,.946.236c1.057.765,1.113,3.09,1.113,3.185a.21.21,0,0,1-.111.18.354.354,0,0,1-.089,0Zm-1.725-3.3h-.1c-.289,0-.323.142-.334.189-.156.529.979,1.89,1.914,2.485a3.884,3.884,0,0,0-.968-2.514A.852.852,0,0,0,348.74,404.982Z" transform="translate(-228.142 -98.237)" fill="#7e57c2"/>
      <path id="Path_404" data-name="Path 404" d="M305,408.67a3.993,3.993,0,0,1-2.281-.491.974.974,0,0,1-.367-.945.668.668,0,0,1,.4-.51c1.18-.548,4.9,1.1,5.319,1.285a.17.17,0,0,1,.1.2.219.219,0,0,1-.189.161A19.41,19.41,0,0,1,305,408.67Zm-1.625-1.692a1.068,1.068,0,0,0-.423.066.274.274,0,0,0-.156.208.623.623,0,0,0,.245.614c.556.435,2.1.51,4.217.217A13.344,13.344,0,0,0,303.375,406.979Z" transform="translate(-233.273 -98.344)" fill="#7e57c2"/>
      <path id="Path_405" data-name="Path 405" d="M307.7,408.279h-.1c-1.113-.435-3.338-2.174-3.06-3.081,0-.217.256-.482.868-.529a1.736,1.736,0,0,1,1.224.321c1.113.841,1.291,3.005,1.3,3.1a.2.2,0,0,1-.111.17A.192.192,0,0,1,307.7,408.279Zm-2.136-3.3h-.134c-.4,0-.434.17-.445.208-.134.548,1.324,1.89,2.459,2.5a3.973,3.973,0,0,0-1.113-2.476A1.237,1.237,0,0,0,305.566,404.981Z" transform="translate(-233.027 -98.237)" fill="#7e57c2"/>
      <path id="Path_449" data-name="Path 449" d="M4.54.088,61.757,1.2c2.507.049,4.579,1.824,4.628,3.965l.724,31.9c.049,2.141-1.945,3.837-4.452,3.789L5.439,39.745C2.932,39.7.86,37.922.812,35.781L.088,3.877C.039,1.736,2.032.039,4.54.088Z" transform="translate(97.035 138.231) rotate(-7.43)" fill="#263238"/>
      <path id="Path_450" data-name="Path 450" d="M4.54.088,61.757,1.2c2.507.049,4.579,1.824,4.628,3.965l.724,31.9c.049,2.141-1.945,3.837-4.452,3.789L5.439,39.745C2.932,39.7.86,37.922.812,35.781L.088,3.877C.039,1.736,2.032.039,4.54.088Z" transform="translate(97.035 138.231) rotate(-7.43)" opacity="0.3"/>
      <path id="Path_406" data-name="Path 406" d="M355.229,229.628a4.792,4.792,0,0,1-2.626-.765,3.631,3.631,0,0,1-1.658-2.438l-1-6.558a3.275,3.275,0,0,1,.861-2.712,4.533,4.533,0,0,1,2.867-1.4l12.852-1.427c2.369-.262,4.54,1.154,4.852,3.166l1.013,6.558c.3,2.009-1.366,3.846-3.728,4.12h0L355.8,229.59q-.282.033-.567.038Zm11.862-13.23h-.234l-12.863,1.427a1.893,1.893,0,0,0-1.2.585,1.367,1.367,0,0,0-.358,1.135l1,6.558a1.522,1.522,0,0,0,.7,1.021,2.031,2.031,0,0,0,1.335.3l12.852-1.418a1.63,1.63,0,0,0,1.569-1.729l-.968-6.483a1.5,1.5,0,0,0-.69-1.021,2.046,2.046,0,0,0-1.146-.35Zm1.4,10.688Z" transform="translate(-227.91 -87.772)" fill="#263238"/>
      <path id="Path_451" data-name="Path 451" d="M4.54.088,61.757,1.2c2.507.049,4.579,1.824,4.628,3.965l.724,31.9c.049,2.141-1.945,3.837-4.452,3.789L5.439,39.745C2.932,39.7.86,37.922.812,35.781L.088,3.877C.039,1.736,2.032.039,4.54.088Z" transform="translate(102.452 137.633) rotate(-7.43)" fill="#263238"/>
      <path id="Path_407" data-name="Path 407" d="M357.888,209.772l-3.628,6,10.638.416a6.388,6.388,0,0,0-1.38-8.108Z" transform="translate(-227.419 -87.43)" fill="#7f3e3b"/>
      <path id="Path_408" data-name="Path 408" d="M358.322,220.87l6.343-.737.234-3.5-10.638-.416.167,1.956a2.809,2.809,0,0,0,1.259,2.064A3.884,3.884,0,0,0,358.322,220.87Z" transform="translate(-227.419 -87.878)" fill="#7f3e3b"/>
      <path id="Path_409" data-name="Path 409" d="M350.822,172.44c-.167.737,1.013,3.468,1.881,4.527s15.222,1.994,17.069-.406,1.925-6.672,1.046-8.1S351.167,170.843,350.822,172.44Z" transform="translate(-227.808 -85.235)" fill="#7e57c2"/>
    </g>
    <g id="freepik--character-1--inject-6" transform="translate(-188.813 315.855)">
      <path id="Path_410" data-name="Path 410" d="M165.728,141.055c-1.792,1.994-3.739,4.177-5.564,6.322s-3.583,4.328-5.263,6.54a81.638,81.638,0,0,0-8.69,13.429c-.278.558-.534,1.115-.757,1.673q-.178.416-.334.822l-.156.416-.067.2v.057a5.064,5.064,0,0,0-.122,2.211,31.926,31.926,0,0,0,1.97,6.984c1.9,4.886,4.451,9.923,6.955,14.809l-5.686,3.062A80.922,80.922,0,0,1,137,183.127a35.073,35.073,0,0,1-3.817-8.741,13.077,13.077,0,0,1-.267-5.991l.089-.454.089-.3.167-.586c.1-.387.211-.775.345-1.153.245-.765.512-1.5.8-2.24a76.374,76.374,0,0,1,9.058-15.886c1.78-2.448,3.605-4.848,5.564-7.163s3.895-4.564,6.153-6.87Z" transform="translate(-110.228 -85.11)" fill="#263238"/>
      <path id="Path_411" data-name="Path 411" d="M150.754,196.2l5.853,2.637-6.676,6.7s-4.206-2.419-4.451-6.1Z" transform="translate(-108.785 -88.544)" fill="#ffc3bd"/>
      <path id="Path_412" data-name="Path 412" d="M164.04,203.12l-7.211,4.867-7.4-2.3,6.732-6.7Z" transform="translate(-108.34 -88.697)" fill="#ffc3bd"/>
      <path id="Path_413" data-name="Path 413" d="M241.5,181l6.921,3.034-.612,2.117-5.564,4.725s-4.006-2.646-3.917-6.332Z" transform="translate(-98.318 -87.708)" fill="#ffc3bd"/>
      <path id="Path_414" data-name="Path 414" d="M242.08,181.821l6.343-1.011,4.073,1.474-2.715.387-1.78,1.37Z" transform="translate(-97.895 -87.698)" fill="#ffc3bd"/>
      <path id="Path_415" data-name="Path 415" d="M254.961,191.822l-6.877,1.257a3.879,3.879,0,0,1-2.136-.217l-4.128-1.7,5.564-4.725,3.683-.945,4.607,4.489a1.019,1.019,0,0,1,.236,1.086A1.29,1.29,0,0,1,254.961,191.822Z" transform="translate(-97.924 -87.955)" fill="#ffc3bd"/>
      <path id="Path_416" data-name="Path 416" d="M185.175,100.863c.156.633.668,1.077,1.113.945a1.059,1.059,0,0,0,.612-1.3c-.145-.633-.679-1.077-1.113-.945A1.03,1.03,0,0,0,185.175,100.863Z" transform="translate(-104.316 -83.23)" fill="#263238"/>
      <path id="Path_417" data-name="Path 417" d="M185.71,102.09a24.733,24.733,0,0,0,4.863,4.81c-1.113,1.276-3.427,1.181-3.427,1.181Z" transform="translate(-104.25 -83.37)" fill="#ff5652"/>
      <path id="Path_418" data-name="Path 418" d="M182.043,97.6a.526.526,0,0,1-.3-.1.347.347,0,0,1,0-.539,4.892,4.892,0,0,1,3.806-1.257.388.388,0,0,1,.31.431.441.441,0,0,1-.454.325h0a3.891,3.891,0,0,0-3,1.021A.475.475,0,0,1,182.043,97.6Z" transform="translate(-104.711 -83.018)" fill="#263238"/>
      <path id="Path_419" data-name="Path 419" d="M167.256,112.79c1.291,5.576,2.059,13.3-2.526,17.01,0,0,1.792,5.67,13.987,5.67,13.42,0,6.454-4.971,6.454-4.971-5.564-1.465-5.564-6.861-4.251-11.189Z" transform="translate(-106.615 -83.959)" fill="#ffc3bd"/>
      <path id="Path_420" data-name="Path 420" d="M163.067,134.4c-1.113-1.493-.746-6.02.59-6.757,2.136-1.191,10.949-1.058,22.644,1.843-1.58,4.328.99,6.766.99,6.766Z" transform="translate(-106.877 -84.736)" fill="#7e57c2"/>
      <path id="Path_421" data-name="Path 421" d="M154.709,143.32c-4.173,3.5-5.386,10.66-4.929,15.546,1.024-1.484,2.114-2.967,3.238-4.413,1.68-2.221,3.472-4.385,5.274-6.558.5-.6,1.013-1.2,1.536-1.805.1-.387.189-.775.278-1.153Z" transform="translate(-108.311 -85.637)" opacity="0.2"/>
      <path id="Path_422" data-name="Path 422" d="M127.879,406.906a3.406,3.406,0,0,0,2.225-.1.662.662,0,0,0,.211-.841.911.911,0,0,0-.545-.529c-1.213-.491-4.006.472-4.117.51a.184.184,0,0,0-.134.161.179.179,0,0,0,.122.17A12.553,12.553,0,0,0,127.879,406.906Zm1.469-1.219.245.066a.527.527,0,0,1,.323.312c.111.321,0,.425-.078.463-.478.35-2.225,0-3.527-.406a8.019,8.019,0,0,1,3.082-.463Z" transform="translate(-111.036 -100.039)" fill="#7e57c2"/>
      <path id="Path_423" data-name="Path 423" d="M125.7,406.142h.1c1.024-.246,3.194-1.559,3.216-2.419a.615.615,0,0,0-.545-.586,1.289,1.289,0,0,0-.946.066c-1.191.52-1.947,2.627-1.981,2.712a.172.172,0,0,0,0,.18.26.26,0,0,0,.156.047Zm2.537-2.7h.1c.256.076.256.189.256.236,0,.51-1.447,1.531-2.5,1.947a4.383,4.383,0,0,1,1.636-2.136.826.826,0,0,1,.556-.047Z" transform="translate(-111.036 -99.917)" fill="#7e57c2"/>
      <path id="Path_424" data-name="Path 424" d="M187.485,408.213a4.166,4.166,0,0,0,2.637-.576.6.6,0,0,0,0-.784,1.117,1.117,0,0,0-.679-.425c-1.491-.34-4.629,1.172-4.763,1.238a.162.162,0,0,0-.1.189.2.2,0,0,0,.167.151A18.874,18.874,0,0,0,187.485,408.213Zm1.424-1.474a1.9,1.9,0,0,1,.412,0,.626.626,0,0,1,.412.255c.156.227.1.331,0,.4-.412.491-2.682.5-4.351.3a10.95,10.95,0,0,1,3.527-.955Z" transform="translate(-104.378 -100.098)" fill="#7e57c2"/>
      <path id="Path_425" data-name="Path 425" d="M184.771,407.9h.089c1.113-.406,3.227-2.06,3.071-2.92,0-.208-.211-.454-.79-.51a1.813,1.813,0,0,0-1.18.312,4.916,4.916,0,0,0-1.4,2.939.188.188,0,0,0,.089.161A.244.244,0,0,0,184.771,407.9ZM187,404.81h.134c.378,0,.4.161.412.2.1.52-1.358,1.814-2.459,2.372a3.925,3.925,0,0,1,1.179-2.344,1.233,1.233,0,0,1,.7-.227Z" transform="translate(-104.379 -99.993)" fill="#7e57c2"/>
      <path id="Path_426" data-name="Path 426" d="M175.89,406.883h8.969l.89-17.653H176.78Z" transform="translate(-105.357 -99.155)" fill="#ffc3bd"/>
      <path id="Path_427" data-name="Path 427" d="M116.83,403.478l8.657,1.559,7.856-16.888-8.657-1.559Z" transform="translate(-112.015 -99.01)" fill="#ffc3bd"/>
      <path id="Path_428" data-name="Path 428" d="M126.776,404.984l-9.859-1.814a.823.823,0,0,0-.868.369l-3.427,6.3a.974.974,0,0,0,.027.978,1.32,1.32,0,0,0,.919.59c3.461.576,5.174.718,9.5,1.512,2.671.491,8.69,1.739,12.374,2.41s4.941-2.325,3.505-2.882c-6.432-2.495-9.124-4.725-10.871-6.748a2.221,2.221,0,0,0-1.3-.718Z" transform="translate(-112.503 -99.921)" fill="#263238"/>
      <path id="Path_429" data-name="Path 429" d="M185.154,407h-9.8a.785.785,0,0,0-.768.52l-1.769,6.776a.991.991,0,0,0,.258.945,1.414,1.414,0,0,0,1.033.416c3.539-.057,8.646-.227,13.086-.227,5.2,0,7.044.236,13.13.236,3.683,0,4.707-3.156,3.171-3.449-7.021-1.3-10.115-1.446-16.179-4.621A4.747,4.747,0,0,0,185.154,407Z" transform="translate(-105.707 -100.132)" fill="#263238"/>
      <path id="Path_430" data-name="Path 430" d="M185.706,389.24l-.456,9.091h-8.98l.456-9.091Z" transform="translate(-105.314 -99.156)" opacity="0.2"/>
      <path id="Path_431" data-name="Path 431" d="M124.3,386.59l8.657,1.559-4.05,8.7-8.657-1.55Z" transform="translate(-111.63 -99.01)" opacity="0.2"/>
      <path id="Path_432" data-name="Path 432" d="M188.837,202.75S178.644,261,173.058,282.822c-6.12,23.9-38.946,103.008-38.946,103.008L118,382.825s22.967-64.432,28.1-97.839c3.95-25.657,11.728-82.217,11.728-82.217Z" transform="translate(-111.883 -88.904)" fill="#263238"/>
      <path id="Path_433" data-name="Path 433" d="M188.837,202.75S178.644,261,173.058,282.822c-6.12,23.9-38.946,103.008-38.946,103.008L118,382.825s22.967-64.432,28.1-97.839c3.95-25.657,11.728-82.217,11.728-82.217Z" transform="translate(-111.883 -88.904)" fill="#fff" opacity="0.1"/>
      <path id="Path_434" data-name="Path 434" d="M138.064,391.435c.067,0-2.993,4.933-2.993,4.933L117,393.042l1.524-4.612Z" transform="translate(-111.996 -99.112)" fill="#263238"/>
      <path id="Path_435" data-name="Path 435" d="M176.883,224.705c-11.773,1.966-10.527,39.266-9.113,58.45,3.338-13.561,8.368-39.691,11.773-58.176a4.769,4.769,0,0,0-2.659-.274Z" transform="translate(-106.372 -90.107)" opacity="0.3"/>
      <path id="Path_436" data-name="Path 436" d="M200.205,202.75s1.235,56.985.256,80.233c-1.013,24.174-10.949,103.339-10.949,103.339H174.256s-.556-77.747-1.235-101.5c-.734-25.884-4.451-82.076-4.451-82.076Z" transform="translate(-106.182 -88.904)" fill="#263238"/>
      <path id="Path_437" data-name="Path 437" d="M200.205,202.75s1.235,56.985.256,80.233c-1.013,24.174-10.949,103.339-10.949,103.339H174.256s-.556-77.747-1.235-101.5c-.734-25.884-4.451-82.076-4.451-82.076Z" transform="translate(-106.182 -88.904)" fill="#fff" opacity="0.1"/>
      <path id="Path_438" data-name="Path 438" d="M192.015,391.56c.067,0-.868,5.358-.868,5.358H172.631l-.5-4.782Z" transform="translate(-105.781 -99.284)" fill="#263238"/>
      <path id="Path_439" data-name="Path 439" d="M203.332,140.151c1.836,8.241,5.241,31.261-.078,64.753l-51.943-.68c-.3-5.85,5.174-37.6.111-65.793a5.417,5.417,0,0,1,1.363-4.565,7.506,7.506,0,0,1,4.79-2.372c2.626-.3,5.675-.586,8.679-.709q10.19-.5,20.4,0c2.225.18,4.451.454,6.432.747C198.274,132.321,202.352,135.75,203.332,140.151Z" transform="translate(-108.129 -84.934)" fill="#263238"/>
      <path id="Path_440" data-name="Path 440" d="M200.232,149.37l-8.746,1.843c-.668,6.936,4.718,14.79,10.1,20.791a169.156,169.156,0,0,0-1.358-22.633Z" transform="translate(-103.605 -85.97)" opacity="0.2"/>
      <path id="Path_441" data-name="Path 441" d="M197.334,136.79c1.48,2.259,3.082,4.725,4.729,7.022s3.338,4.65,5.041,6.918a95.43,95.43,0,0,0,11.127,12.588c.512.444,1.013.9,1.524,1.314l.378.312.3.227c.167.151.456.321.668.482a39.144,39.144,0,0,0,3.55,2.089c2.615,1.37,5.419,2.712,8.268,4.007,5.7,2.6,11.595,5.15,17.414,7.73l-2.3,5.377a190.975,190.975,0,0,1-19.417-5.018c-3.182-1.011-6.376-2.107-9.57-3.44a48.041,48.041,0,0,1-4.929-2.325c-.434-.265-.846-.473-1.313-.784l-.668-.435-.545-.387c-.746-.51-1.424-1.04-2.114-1.569a71.22,71.22,0,0,1-7.344-6.691c-2.225-2.3-4.306-4.725-6.276-7.078s-3.839-4.848-5.564-7.352-3.438-4.961-5.041-7.683Z" transform="translate(-104.302 -85.278)" fill="#263238"/>
      <path id="Path_442" data-name="Path 442" d="M162.538,103.257c2.426,7.693,3.338,12.285,8.98,15.5,8.412,4.82,18.917-.709,19.206-8.864.289-7.333-3.728-18.683-13.442-20.233a14.221,14.221,0,0,0-11.841,3.3,9.709,9.709,0,0,0-2.9,10.295Z" transform="translate(-106.916 -82.676)" fill="#ffc3bd"/>
      <path id="Path_443" data-name="Path 443" d="M182.153,102.957c2.159-2.693,2.982-6.833,1.469-8.827,1.413.5,11.606,1.1,7.611-5.065S179.226,81.2,172.249,82.9l3.394.832s-9.536-.586-14.176,2.693c1.413.066,2.637,0,2.637,0s-10.215,4.092-5.764,7.2c-7.177,4.64-2.314,11.066,9.5,20.649,2.059,1.578,7.889,1,9.18.057C176.2,110.158,180.94,104.488,182.153,102.957Z" transform="translate(-107.714 -82.282)" fill="#263238"/>
      <path id="Path_444" data-name="Path 444" d="M180.747,98.61c2.114,1.314,4.729,5.179,5.942,7.107s2.493,1.682,3.1,2.448,3.116,13.712.434,15.782-10.749-1.2-11.806-3.582.879-8.222,1.4-9.554a11.644,11.644,0,0,0-.467-6.918C178.421,101.634,180.747,98.61,180.747,98.61Z" transform="translate(-105.107 -83.179)" fill="#263238"/>
      <path id="Path_445" data-name="Path 445" d="M176.221,104.3a7.564,7.564,0,0,0,4.061,4.5c2.459.945,2.76-1.484,2.281-3.78-.434-2.089-1.113-3.78-3.1-4.593C177.111,99.4,175.409,102.014,176.221,104.3Z" transform="translate(-105.343 -83.266)" fill="#ffc3bd"/>
    </g>
  </g>
</svg>
