<svg xmlns="http://www.w3.org/2000/svg" width="434.287" height="851.997" viewBox="0 0 434.287 851.997">
  <g id="undraw_certificate_71gt" transform="translate(-26.758 -176.535)">
    <path id="Path_461" data-name="Path 461" d="M697.55,300.308C680.39,423.2,636.376,710.121,591.722,770.126a27.178,27.178,0,0,1-9.937,9.464c-156.959,61.678-207.252-95.65-207.252-95.65s42.063-33.063,43.13-97.69L502.491,628.7l73.946-268.415,10.881-16.372.061-.1Z" transform="translate(-289.16 -79.27)" fill="#3f3d56"/>
    <path id="Path_464" data-name="Path 464" d="M3.74,783.709.16,55.212C.031,24.512,15.338-.133,34.378.121L375.587,5.3c19.04.324,34.592,25.437,34.764,56.137l3.579,728.5c.129,30.7-15.178,55.345-34.218,55.091L38.5,839.846c-19.04-.323-34.592-25.436-34.764-56.137Z" transform="matrix(1, 0.017, -0.017, 1, 47.18, 176.413)" fill="#e0e0e0"/>
    <path id="Path_465" data-name="Path 465" d="M362.928,822.523l.805-468.407c.069-28.756,14.557-51.995,32.384-51.947l293.177,1.311c17.828.112,32.236,23.479,32.207,52.236l-1.114,648.35c-.07,28.757-14.558,52-32.386,51.948l-181.618-.811c-79.411-.5-143.587-104.589-143.456-232.68Z" transform="translate(-295.241 -76.558)" fill="#fff"/>
    <path id="Path_470" data-name="Path 470" d="M545.219,615.4c-1.911,0-3.71-1.452-4.856-3.918l-14.889-32.022c-2.011-4.327-1.468-10.464,1.215-13.709s6.487-2.368,8.5,1.959l9.741,20.948,25.019-60.532c1.86-4.5,5.629-5.716,8.419-2.716s3.544,9.08,1.684,13.58l-29.78,72.05c-1.093,2.644-2.914,4.268-4.883,4.357C545.33,615.4,545.275,615.4,545.219,615.4Z" transform="translate(-210.701 246.587)" fill="#fff"/>
    <g id="Consent-pana" transform="translate(-799.331 411.985)">
      <g id="freepik--Character--inject-21" transform="translate(816.545 -343.355)">
        <g id="Group_9" data-name="Group 9" transform="translate(9.545 661.294)" opacity="0.6">
          <path id="Path_151" data-name="Path 151" d="M82.6,446.1a1.45,1.45,0,0,1,.38,2,1.58,1.58,0,0,1-2,.37,1.52,1.52,0,0,1-.39-2.08,1.62,1.62,0,0,1,2.17-.16" transform="translate(-80.337 -445.887)" fill="#fff"/>
        </g>
        <g id="Group_12" data-name="Group 12" transform="translate(94.282 446.196)" opacity="0.3">
          <path id="Path_216" data-name="Path 216" d="M170.72,218.29l1.06,2.98v1.45h-1.2Z" transform="translate(-170.58 -218.29)"/>
        </g>
      </g>
      <g id="Consent-pana-2" data-name="Consent-pana" transform="translate(871.14 122.287)">
        <g id="freepik--background-complete--inject-21">
          <path id="Path_230" data-name="Path 230" d="M437.58,212.78l2.39.8a3.25,3.25,0,0,0,4.12-2.07l31.72-95.32a5.78,5.78,0,0,0-3.66-7.31h0Z" transform="translate(-151.237 -52.83)" fill="#e0e0e0"/>
          <path id="Path_231" data-name="Path 231" d="M344.09,400.4l26.7,8.89,75.08-225.65A14.08,14.08,0,0,0,437,165.85h0a14.08,14.08,0,0,0-17.79,8.91Z" transform="translate(-151.237 -52.83)" fill="#f5f5f5"/>
          <path id="Path_232" data-name="Path 232" d="M387.39,270.29l17.43,36.72-3.99,11.98-17.65-36.05Z" transform="translate(-130.87 -52.83)" fill="#fff"/>
          <path id="Path_233" data-name="Path 233" d="M380.78,290.14l17.43,36.72-1.9,5.71-17.65-36.05Z" transform="translate(-129.09 -52.83)" fill="#fff"/>
          <path id="Path_234" data-name="Path 234" d="M416.71,175.87l29.85,9.94,24.68-74.18a15.73,15.73,0,0,0-10-19.89h0a15.72,15.72,0,0,0-19.89,10Z" transform="translate(-151.237 -52.83)" fill="#e0e0e0"/>
          <path id="Path_235" data-name="Path 235" d="M438.06,211.34c-.13-.05,7.18-22.34,16.31-49.79s16.65-49.68,16.78-49.64-7.18,22.34-16.31,49.8S438.19,211.38,438.06,211.34Z" transform="translate(-151.237 -52.83)" fill="#ebebeb"/>
          <path id="Path_236" data-name="Path 236" d="M8.04,0h12a8,8,0,0,1,8,8v5.5H0V8.06A8,8,0,0,1,8.04,0Z" transform="matrix(-0.949, -0.316, 0.316, -0.949, 215.215, 369.29)" fill="#e0e0e0"/>
          <path id="Path_237" data-name="Path 237" d="M440.65,183.84c.13,0-16.48,50.31-37.1,112.27S366.11,408.28,366,408.24s16.48-50.31,37.1-112.29S440.52,183.8,440.65,183.84Z" transform="translate(-151.237 -52.83)" fill="#e0e0e0"/>
          <path id="Path_238" data-name="Path 238" d="M431.94,180.94c.13.05-16.48,50.32-37.1,112.27s-37.43,112.17-37.56,112.13,16.48-50.3,37.1-112.28S431.81,180.9,431.94,180.94Z" transform="translate(-151.237 -52.83)" fill="#e0e0e0"/>
          <path id="Path_239" data-name="Path 239" d="M423.24,178.05c.13,0-16.49,50.31-37.1,112.27S348.7,402.48,348.57,402.44s16.48-50.3,37.1-112.28S423.11,178,423.24,178.05Z" transform="translate(-147.906 -52.83)" fill="#e0e0e0"/>
          <path id="Path_241" data-name="Path 241" d="M120.38,52.83a16,16,0,0,1-1.61,2.33c-1,1.4-2.53,3.31-4.23,5.37s-3.28,3.88-4.46,5.18a14.47,14.47,0,0,1-2,2,18.8,18.8,0,0,1,1.72-2.25l4.34-5.26L118.5,55a15.51,15.51,0,0,1,1.88-2.17Z" transform="translate(-51.792 -52.83)" fill="#e0e0e0"/>
          <path id="Path_242" data-name="Path 242" d="M109.27,169a83.72,83.72,0,0,0,11.82,14.78" transform="translate(-52.1 -52.83)" fill="#fff"/>
          <path id="Path_244" data-name="Path 244" d="M30,183.41l11.81-14.57" transform="translate(-29.95 -52.83)" fill="#fff"/>
          <path id="Path_245" data-name="Path 245" d="M41.76,168.84a88.539,88.539,0,0,1-5.71,7.44,89.921,89.921,0,0,1-6.1,7.13A88.545,88.545,0,0,1,35.66,176a89.918,89.918,0,0,1,6.1-7.16Z" transform="translate(-29.95 -52.83)" fill="#e0e0e0"/>
        </g>
      </g>
    </g>
  </g>
</svg>
