<svg id="Consent-pana" xmlns="http://www.w3.org/2000/svg" width="375.018" height="641.145" viewBox="0 0 375.018 641.145">
  <g id="freepik--Character--inject-21" transform="translate(7.614 0)">
    <path id="Path_142" data-name="Path 142" d="M19.5.65l1.45,19.87s-1.3.5-3.258,1.317-4.564,1.937-7.176,3.175a65.916,65.916,0,0,0-7.2,3.869C1.351,30.158.027,31.355,0,32.28L40.79,31,39.87,0Z" transform="translate(269.147 334.653)" fill="#263238"/>
    <path id="Path_143" data-name="Path 143" d="M1.978.092a1.569,1.569,0,0,1,1.21,1.76,1.6,1.6,0,0,1-1.83,1.16,1.51,1.51,0,1,1,.77-2.88" transform="translate(300.669 353.011)" fill="#e0e0e0"/>
    <path id="Path_144" data-name="Path 144" d="M40.824,3.1,40.564,0l-39,2.4s-.112.05-.276.144A4.055,4.055,0,0,0,.7,2.95a2.278,2.278,0,0,0-.541.631A1.175,1.175,0,0,0,.024,4.4Z" transform="translate(269.083 362.553)" fill="#455a64"/>
    <path id="Path_145" data-name="Path 145" d="M0,.194C0,.241.064.28.173.32S.439.4.627.457s.406.121.641.21A5.018,5.018,0,0,1,2,1.014a5.841,5.841,0,0,1,.667.454c.195.152.363.3.506.428s.259.234.352.3.161.1.206.083.058-.1.033-.226a1.606,1.606,0,0,0-.195-.469,2.844,2.844,0,0,0-.459-.582,3.475,3.475,0,0,0-.76-.563,3.614,3.614,0,0,0-.893-.35A3.208,3.208,0,0,0,.7,0,1.861,1.861,0,0,0,.175.065C.053.1-.011.151,0,.194Z" transform="translate(289.405 354.8)" fill="#fff"/>
    <path id="Path_146" data-name="Path 146" d="M0,.073c0,.045.052.1.141.163S.355.379.5.476.819.688,1,.828a4.428,4.428,0,0,1,.534.495,4.633,4.633,0,0,1,.444.578c.123.188.224.365.309.519s.154.282.215.37.113.138.163.133.093-.075.116-.192a1.367,1.367,0,0,0-.008-.471,2.293,2.293,0,0,0-.214-.64,2.79,2.79,0,0,0-.5-.7,3.314,3.314,0,0,0-.7-.546A3.1,3.1,0,0,0,.684.085,1.788,1.788,0,0,0,.19,0C.068,0,0,.028,0,.073Z" transform="translate(285.187 356.731)" fill="#fff"/>
    <path id="Path_147" data-name="Path 147" d="M1.7,3.2c.048,0,.1-.058.139-.16a1.342,1.342,0,0,0,.079-.427A2.355,2.355,0,0,0,1.855,2a2.838,2.838,0,0,0-.277-.728A3.071,3.071,0,0,0,1.111.632a2.762,2.762,0,0,0-.5-.416,1.55,1.55,0,0,0-.407-.2C.1-.011.027-.005.007.035s0,.1.054.188.133.193.23.322S.5.823.616.994a5.416,5.416,0,0,1,.341.571,6.485,6.485,0,0,1,.27.609c.075.192.136.37.19.522a3.445,3.445,0,0,0,.145.366C1.607,3.151,1.65,3.2,1.7,3.2Z" transform="translate(281.22 358.519)" fill="#fff"/>
    <path id="Path_148" data-name="Path 148" d="M.015.741C.038.784.112.8.227.795S.5.773.689.75,1.1.7,1.344.681a7.008,7.008,0,0,1,.791-.02c.28.01.545.036.787.067s.46.068.647.1.342.054.458.06.191-.005.219-.045S4.238.73,4.151.646A1.751,1.751,0,0,0,3.737.372a3.4,3.4,0,0,0-.682-.25A4.03,4.03,0,0,0,2.155,0a4.09,4.09,0,0,0-.912.082A3.584,3.584,0,0,0,.534.3,1.756,1.756,0,0,0,.1.558C.01.637-.022.7.015.741Z" transform="translate(289.632 349.692)" fill="#fff"/>
    <path id="Path_149" data-name="Path 149" d="M3.71,0l1.2,24.06L.06,43.35a2.48,2.48,0,0,0,2.1,3h0a2.7,2.7,0,0,0,2.28-.69c.947-.9,2.526-2.416,4.357-4.206s3.916-3.856,5.876-5.864,3.8-3.956,5.129-5.511,2.166-2.716,2.118-3.149c-.055-.5-.051-2.341-.013-4.822s.108-5.6.186-8.658.162-6.052.227-8.283.111-3.7.111-3.7Z" transform="translate(333.587 334.983)" fill="#263238"/>
    <path id="Path_150" data-name="Path 150" d="M0,21.05,19.72,0V1a3.52,3.52,0,0,1-.87,2.43c-.388.457-.954,1.113-1.75,2s-1.822,2-3.129,3.367-2.895,3-4.815,4.917S4.985,17.835,2.35,20.36A2.71,2.71,0,0,1,0,21.05Z" transform="translate(335.757 360.293)" fill="#455a64"/>
    <g id="Group_9" data-name="Group 9" transform="translate(349.421 352.44)" opacity="0.6">
      <path id="Path_151" data-name="Path 151" d="M.626.213a1.449,1.449,0,0,0-.38,2,1.579,1.579,0,0,0,2,.37A1.519,1.519,0,0,0,2.636.5,1.619,1.619,0,0,0,.466.343" fill="#fff"/>
    </g>
    <path id="Path_152" data-name="Path 152" d="M5.22,2.663q-.239-.28-.5-.535t-.55-.484q-.286-.229-.593-.43T2.94.843Q2.586.72,2.223.629T1.491.48Q1.122.423.748.4T0,.383C0,.368.018.345.055.318A.9.9,0,0,1,.219.223a2.072,2.072,0,0,1,.275-.1A3.267,3.267,0,0,1,.88.033a4.39,4.39,0,0,1,2.29.33A4,4,0,0,1,4.92,1.8a3,3,0,0,1,.186.338,1.9,1.9,0,0,1,.1.268.753.753,0,0,1,.033.18C5.243,2.633,5.235,2.658,5.22,2.663Z" transform="translate(336.087 368.02)" fill="#fff"/>
    <path id="Path_153" data-name="Path 153" d="M4.77,1.7q-.278-.141-.559-.274T3.644,1.17Q3.359,1.045,3.07.928T2.49.7Q2.181.653,1.87.613T1.249.542Q.937.51.625.488T0,.452A3,3,0,0,1,2.64.192a4.352,4.352,0,0,1,.984.395,3.911,3.911,0,0,1,.692.484,2.342,2.342,0,0,1,.387.422C4.779,1.607,4.8,1.685,4.77,1.7Z" transform="translate(334.807 372.251)" fill="#fff"/>
    <path id="Path_154" data-name="Path 154" d="M7.21,2.71q-.411-.246-.83-.479t-.845-.45q-.426-.218-.86-.421T3.8.97Q3.332.843,2.86.732t-.947-.2Q1.438.434.959.357T0,.22A6.19,6.19,0,0,1,4,.47,5.809,5.809,0,0,1,7.21,2.71Z" transform="translate(337.367 363.764)" fill="#fff"/>
    <path id="Path_155" data-name="Path 155" d="M6.65.931c-.017.035-.119.029-.291,0S5.946.849,5.65.791,5,.671,4.611.622A11.231,11.231,0,0,0,3.33.531,12.281,12.281,0,0,0,2.046.587C1.653.625,1.3.674,1,.72S.46.807.288.828.015.849,0,.811a6.789,6.789,0,0,1,6.65.12Z" transform="translate(338.207 358.202)" fill="#fff"/>
    <path id="Path_156" data-name="Path 156" d="M6.79,1.039Q6.37.92,5.944.829T5.087.675q-.431-.063-.866-.1T3.35.539q-.432.053-.858.134T1.645.865q-.42.11-.831.249T0,1.419a.206.206,0,0,1,.045-.083,1.348,1.348,0,0,1,.142-.159A2.646,2.646,0,0,1,.439.965,3.883,3.883,0,0,1,.81.719a6,6,0,0,1,5.1-.28c.162.068.3.135.423.2a2.541,2.541,0,0,1,.291.18.739.739,0,0,1,.154.14C6.806,1,6.81,1.024,6.79,1.039Z" transform="translate(337.857 351.025)" fill="#fff"/>
    <path id="Path_157" data-name="Path 157" d="M4.084,4.757a2.11,2.11,0,0,1,0-.91,5.93,5.93,0,0,1,.7-2.4A2.81,2.81,0,0,1,5.974.1a1.08,1.08,0,0,1,1.18.19,1.52,1.52,0,0,1,.43,1.08,3.548,3.548,0,0,1-3.14,3.3,4.367,4.367,0,0,1-1.25-.017A4.374,4.374,0,0,1,1,3.618a4.366,4.366,0,0,1-.812-.951,1.37,1.37,0,0,1-.1-1.16,1,1,0,0,1,1.07-.54,3.64,3.64,0,0,1,1.308.5,3.647,3.647,0,0,1,.382.276q.263.187.507.4t.469.439q.225.23.429.479t.385.516a2,2,0,0,1,.41.83q-.258-.339-.54-.657t-.587-.614q-.3-.3-.631-.569t-.672-.521a3.541,3.541,0,0,0-1.5-.65.56.56,0,0,0-.58.29.93.93,0,0,0,.12.77,3.888,3.888,0,0,0,.727.789,3.893,3.893,0,0,0,.9.553,3.89,3.89,0,0,0,1.013.292A3.887,3.887,0,0,0,4.364,4.1a3.108,3.108,0,0,0,2.71-2.77A1.12,1.12,0,0,0,6.8.567a.6.6,0,0,0-.65-.12,2.57,2.57,0,0,0-1.07,1.14q-.2.37-.358.756t-.287.784q-.126.4-.214.806T4.084,4.757Z" transform="translate(337.173 345.456)" fill="#fff"/>
    <path id="Path_158" data-name="Path 158" d="M3.055,2.68Q2.193,5.735,1.573,8.843t-1,6.25Q.2,18.235.069,21.4T.055,27.74c.053,1.34.891,11.626,2.12,26.3s2.847,33.738,4.459,52.635,3.217,37.625,4.42,51.63,2,23.285,2,23.285l25.71,1L37.395,43.41l2.09.51s.722,3.735,1.816,9.488,2.561,13.524,4.051,21.6,3,16.446,4.19,23.4,2.048,12.5,2.233,14.911c.168,2.165.868,7.731,1.825,14.861s2.17,15.826,3.361,24.251,2.363,16.579,3.236,22.628,1.448,9.99,1.448,9.99l23.51,1.14-4-83.12-5.4-79.81L73.435,0Z" transform="translate(274.052 170.143)" fill="#263238"/>
    <path id="Path_159" data-name="Path 159" d="M4.877,19.44l-.01.013-.03.035c-.014.015-.031.033-.053.054s-.047.044-.077.069q-.074.047-.151.087t-.158.074q-.08.034-.163.061t-.168.047a3,3,0,0,1-2.39-.67,4.82,4.82,0,0,1-1.51-3.35C.134,15.512.112,15.159.1,14.8S.07,14.073.063,13.7s-.011-.75-.016-1.133-.01-.773-.02-1.168c0-.788,0-1.556-.008-2.3S.008,7.643,0,6.961,0,5.632,0,5.025s.01-1.17.025-1.685Q.012,2.922.012,2.5t.015-.836Q.043,1.25.072.833T.147,0q.06.413.1.829t.073.832q.029.417.042.834t.01.835c.018.517.035,1.084.052,1.691s.034,1.256.05,1.938S.511,8.356.526,9.1.554,10.6.567,11.39c0,.392,0,.782,0,1.166s0,.763.01,1.134.014.735.027,1.089.03.7.052,1.031a4.549,4.549,0,0,0,1.29,3.13,2.78,2.78,0,0,0,2.13.74q.1-.022.2-.047t.2-.056q.1-.03.2-.064t.2-.073Z" transform="translate(305.53 186.253)" fill="#455a64"/>
    <path id="Path_160" data-name="Path 160" d="M16.2,7.31q-.084.046-.171.083t-.178.066q-.09.029-.183.049t-.188.032q-.247.054-.5.1t-.5.076q-.25.033-.5.054t-.5.032a14.675,14.675,0,0,1-3.416-.257A14.681,14.681,0,0,1,6.841,6.52a14.684,14.684,0,0,1-2.9-1.733A14.673,14.673,0,0,1,1.48,2.4q-.163-.2-.318-.407t-.3-.419Q.715,1.361.577,1.142T.31.7Q.258.619.212.535T.128.362Q.089.274.057.184T0,0C.02,0,.068.056.147.16S.335.417.478.609s.318.423.529.686.458.557.743.875A15.615,15.615,0,0,0,4.195,4.407,15.621,15.621,0,0,0,7.023,6.063a15.621,15.621,0,0,0,3.112,1.029,15.617,15.617,0,0,0,3.294.357c.427,0,.814-.014,1.153-.033s.631-.044.87-.067.424-.042.551-.052S16.2,7.29,16.2,7.31Z" transform="translate(332.217 184.933)" fill="#455a64"/>
    <path id="Path_161" data-name="Path 161" d="M9.96,0q-.011.325-.047.647t-.1.641q-.06.318-.145.632t-.193.62A19.2,19.2,0,0,1,8.31,5.462,19.2,19.2,0,0,1,6.69,8.137a19.2,19.2,0,0,1-2.032,2.376A19.2,19.2,0,0,1,2.25,12.54q-.255.2-.524.378t-.551.335q-.282.157-.576.291T0,13.79a23.136,23.136,0,0,0,3.451-2.683A23.141,23.141,0,0,0,6.313,7.853a23.143,23.143,0,0,0,2.206-3.73A23.134,23.134,0,0,0,10,.01Z" transform="translate(274.897 183.243)" fill="#455a64"/>
    <path id="Path_162" data-name="Path 162" d="M5.14,23.3a4.7,4.7,0,0,1-1.76-9.19,4.89,4.89,0,0,1,4.47-8.14A5.86,5.86,0,0,1,16.8,1.4a6.557,6.557,0,0,1,8.11,0,4.68,4.68,0,0,1,3.93,8" transform="translate(285.907)" fill="#263238"/>
    <path id="Path_163" data-name="Path 163" d="M23.431.006h-1a19.986,19.986,0,0,0-20.36,17.85c-.25,2.4-.5,4.874-.735,7.3S.879,29.985.687,32.239s-.355,4.37-.474,6.245S.018,41.993,0,43.286a12.362,12.362,0,0,0,1.6,6.493,12.033,12.033,0,0,0,3.632,3.843,15.594,15.594,0,0,0,3.655,1.835,12.223,12.223,0,0,0,1.665.469l-1.18,12.84,26-.18,3.42-46.6A25.983,25.983,0,0,0,38.462,14a19.724,19.724,0,0,0-2.728-6.82A15.6,15.6,0,0,0,30.7,2.267,16.587,16.587,0,0,0,23.431.006Z" transform="translate(288.276 6.098)" fill="#ae7461"/>
    <path id="Path_164" data-name="Path 164" d="M.02,3.77A25.93,25.93,0,0,0,3.729,3.6a25.93,25.93,0,0,0,3.628-.7,25.931,25.931,0,0,0,3.492-1.2A25.927,25.927,0,0,0,14.15,0a8.092,8.092,0,0,1-.712,1.173,12.3,12.3,0,0,1-2.366,2.489A12.846,12.846,0,0,1,6.708,5.923,16.669,16.669,0,0,1,0,6.41Z" transform="translate(298.717 58.233)" fill="#6f4439"/>
    <path id="Path_165" data-name="Path 165" d="M0,1.357a1.519,1.519,0,0,0,1.44,1.57,1.46,1.46,0,0,0,1.61-1.34A1.549,1.549,0,0,0,1.611.007,1.47,1.47,0,0,0,0,1.357Z" transform="translate(294.366 33.196)" fill="#263238"/>
    <path id="Path_166" data-name="Path 166" d="M.02,1.541c.048.05.157.036.32-.012S.719,1.4.98,1.311a7.376,7.376,0,0,1,.91-.248,5.137,5.137,0,0,1,1.13-.1,5.387,5.387,0,0,1,1.133.154,8.015,8.015,0,0,1,.915.286c.262.1.479.188.641.241s.269.069.311.019A.191.191,0,0,0,6.068,1.5a.428.428,0,0,0-.1-.189,1.885,1.885,0,0,0-.226-.227C5.65,1,5.537.911,5.41.811A4.32,4.32,0,0,0,3,0,4,4,0,0,0,.6.721,3.223,3.223,0,0,0,.307.993a1.976,1.976,0,0,0-.2.243.716.716,0,0,0-.1.191A.114.114,0,0,0,.02,1.541Z" transform="translate(292.497 27.702)" fill="#263238"/>
    <path id="Path_167" data-name="Path 167" d="M0,1.348a1.529,1.529,0,0,0,1.44,1.58,1.47,1.47,0,0,0,1.61-1.34A1.529,1.529,0,0,0,1.611.008,1.46,1.46,0,0,0,0,1.348Z" transform="translate(309.396 33.205)" fill="#263238"/>
    <path id="Path_168" data-name="Path 168" d="M.008,1.541c.045.05.153.036.315-.013S.7,1.4.964,1.308a7.219,7.219,0,0,1,.913-.249,5.043,5.043,0,0,1,1.131-.1,5.583,5.583,0,0,1,1.132.157,8.352,8.352,0,0,1,.915.282c.262.1.479.183.641.235s.269.066.311.016a.194.194,0,0,0,.05-.161.414.414,0,0,0-.1-.188,1.747,1.747,0,0,0-.225-.224C5.642,1,5.528.909,5.4.811A4.14,4.14,0,0,0,3,0a4.08,4.08,0,0,0-2.41.71A2.889,2.889,0,0,0,.3.989a1.941,1.941,0,0,0-.19.246.87.87,0,0,0-.1.192A.156.156,0,0,0,.008,1.541Z" transform="translate(308.639 28.402)" fill="#263238"/>
    <path id="Path_169" data-name="Path 169" d="M4.135,13.7q-.322-.113-.65-.2t-.662-.16q-.333-.069-.671-.115t-.678-.07c-.1-.012-.208-.028-.3-.049a1.537,1.537,0,0,1-.266-.08A.669.669,0,0,1,.7,12.9a.361.361,0,0,1-.108-.178,2.19,2.19,0,0,1,.31-1.24l1.32-3.17c.46-1.13.889-2.209,1.27-3.194s.716-1.875.987-2.626S4.962,1.128,5.091.7,5.27.021,5.225,0,5.044.192,4.836.59s-.487.983-.818,1.712S3.3,3.9,2.888,4.875,2.025,6.921,1.565,8.051L.3,11.241a2.42,2.42,0,0,0-.26,1.64,1,1,0,0,0,.67.63q.087.026.175.046t.177.035q.089.015.179.025t.18.014q.336.051.675.081t.678.039q.339.009.679,0T4.135,13.7Z" transform="translate(298.282 28.302)" fill="#263238"/>
    <path id="Path_170" data-name="Path 170" d="M.017,1.671c.052.1.181.158.37.177a4.211,4.211,0,0,0,.741-.02c.3-.026.647-.066,1.028-.1s.8-.059,1.231-.059.852.019,1.235.042.733.048,1.034.06a3.877,3.877,0,0,0,.739-.021c.187-.031.31-.093.352-.2a.251.251,0,0,0-.01-.182.815.815,0,0,0-.147-.232,1.931,1.931,0,0,0-.278-.26,3.289,3.289,0,0,0-.4-.266A5.29,5.29,0,0,0,3.317,0a5.17,5.17,0,0,0-2.54.71A3.485,3.485,0,0,0,.4,1a1.983,1.983,0,0,0-.255.27.8.8,0,0,0-.13.23A.226.226,0,0,0,.017,1.671Z" transform="translate(307.39 21.882)" fill="#263238"/>
    <path id="Path_171" data-name="Path 171" d="M.07,1.671a.621.621,0,0,0,.43.165,4.58,4.58,0,0,0,.747-.018c.294-.024.628-.061.991-.091s.754-.055,1.162-.055.8.021,1.162.045.7.054.992.071a4.536,4.536,0,0,0,.75,0,.669.669,0,0,0,.436-.174.215.215,0,0,0,.045-.169.534.534,0,0,0-.093-.225,1.382,1.382,0,0,0-.234-.26A2.7,2.7,0,0,0,6.08.681,5.26,5.26,0,0,0,3.38,0,5.2,5.2,0,0,0,.7.691,2.987,2.987,0,0,0,.309,1a1.346,1.346,0,0,0-.232.275A.471.471,0,0,0,0,1.5.221.221,0,0,0,.07,1.671Z" transform="translate(292.577 20.782)" fill="#263238"/>
    <path id="Path_172" data-name="Path 172" d="M0,14.318s.188-.415.52-1.061.809-1.522,1.388-2.444a20.684,20.684,0,0,1,2-2.722A7.54,7.54,0,0,1,6.264,6.2a4.305,4.305,0,0,1,2.612-.379A7.117,7.117,0,0,1,11,6.669a12.972,12.972,0,0,0,2.083,1.01,4.263,4.263,0,0,0,2.477.1c.94-.238,1.881-.524,2.823-.773a17.632,17.632,0,0,1,2.825-.551,8.115,8.115,0,0,1,2.821.186,7.456,7.456,0,0,1,2.812,1.438A7.5,7.5,0,0,1,28.9,10.37a4.76,4.76,0,0,1,.542,2.231,19.989,19.989,0,0,1-.2,2.515,21.4,21.4,0,0,0-.169,3.142,115.59,115.59,0,0,0,.888,11.87,30.076,30.076,0,0,0,1.478,6.638c.538,1.332,1.1,1.778,1.592,1.326s.934-1.8,1.231-4.065a1.436,1.436,0,0,1,.517-.756c.287-.274.663-.588,1.05-1a6.653,6.653,0,0,0,1.121-1.6,7.763,7.763,0,0,0,.731-2.55c.165-1.357.31-2.786.418-4.227s.178-2.894.194-4.3-.023-2.766-.135-4.019a19.221,19.221,0,0,0-.567-3.383,14.946,14.946,0,0,0-.9-2.3,13.384,13.384,0,0,0-1.254-2.044,16.386,16.386,0,0,0-1.676-1.909,26.093,26.093,0,0,0-2.168-1.891A17.061,17.061,0,0,0,27.4,1.694,23.089,23.089,0,0,0,22.847.444a31.532,31.532,0,0,0-4.5-.431,39.921,39.921,0,0,0-4.048.1A13.99,13.99,0,0,0,9.956,1.31,20.4,20.4,0,0,0,5.218,4.2,15.618,15.618,0,0,0,1.445,8.6,10.982,10.982,0,0,0,0,14.318Z" transform="translate(291.483 4.746)" fill="#263238"/>
    <path id="Path_173" data-name="Path 173" d="M.46,2.745A2.92,2.92,0,0,1,3.67.015,5.353,5.353,0,0,1,5.164.4a3.859,3.859,0,0,1,1.323.931A4.217,4.217,0,0,1,7.4,2.993,7.712,7.712,0,0,1,7.67,5.565,6.317,6.317,0,0,1,6.3,9.494a4.74,4.74,0,0,1-2.617,1.49,7.393,7.393,0,0,1-2.54.078A2.8,2.8,0,0,1,0,10.755c0-.052.016-.386.044-.906S.11,8.625.155,7.83.251,6.15.3,5.271.41,3.517.46,2.745Z" transform="translate(324.607 35.718)" fill="#ae7461"/>
    <path id="Path_174" data-name="Path 174" d="M.009,5.679.031,5.7.1,5.743c.028.019.063.042.1.067s.088.052.14.079a1.23,1.23,0,0,0,1,.07,3.149,3.149,0,0,0,.673-.5,3.151,3.151,0,0,0,.509-.649,3.151,3.151,0,0,0,.323-.759,3.148,3.148,0,0,0,.115-.831,4.272,4.272,0,0,0,.015-.471,4.273,4.273,0,0,0-.037-.468,4.27,4.27,0,0,0-.088-.461,4.27,4.27,0,0,0-.139-.45,1.47,1.47,0,0,0-.91-1,.65.65,0,0,0-.77.31A.685.685,0,0,0,.971.819.765.765,0,0,0,.948.931c0,.032-.007.058-.01.076s-.009.03-.019.032S.895,1.034.88,1.017A.23.23,0,0,1,.839.937.453.453,0,0,1,.821.8.736.736,0,0,1,.849.609a.76.76,0,0,1,.31-.45.93.93,0,0,1,.71-.14,1.77,1.77,0,0,1,1.27,1.21,4.31,4.31,0,0,1,.177.5,4.311,4.311,0,0,1,.115.513,4.309,4.309,0,0,1,.051.523,4.31,4.31,0,0,1-.013.527,4.491,4.491,0,0,1-.227,1.062,4.077,4.077,0,0,1-.447.918,2.858,2.858,0,0,1-.61.678,1.683,1.683,0,0,1-.716.342,1.33,1.33,0,0,1-1.15-.26,1.085,1.085,0,0,1-.183-.124.536.536,0,0,1-.1-.108A.214.214,0,0,1,0,5.719C0,5.7,0,5.684.009,5.679Z" transform="translate(326.298 38.124)" fill="#6f4439"/>
    <path id="Path_175" data-name="Path 175" d="M28.557,22.064a7,7,0,0,1-3.13,1.36,2.389,2.389,0,0,1-2.61-1.74,3.1,3.1,0,0,1-.029-.4c0-.134,0-.268-.011-.4a1.815,1.815,0,0,0-.056-.378.944.944,0,0,0-.164-.336.738.738,0,0,0-.321-.227,1.637,1.637,0,0,0-.441-.1,3.861,3.861,0,0,0-.5-.009c-.168.006-.335.019-.49.032a3.363,3.363,0,0,1-1.619-.305,5.767,5.767,0,0,1-1.522-1,7.08,7.08,0,0,1-1.217-1.429,5.261,5.261,0,0,1-.7-1.582,1.9,1.9,0,0,1-2.56.47q-.249-.163-.483-.346t-.451-.385q-.217-.2-.417-.422t-.38-.457a3,3,0,0,0-2.48-1.32q-.195.063-.392.115t-.4.092q-.2.04-.4.068t-.406.045a1.27,1.27,0,0,1-.643-.257,1.752,1.752,0,0,1-.447-.53A3.131,3.131,0,0,1,6,11.938a4.872,4.872,0,0,1-.148-.735c-.03-.24-.058-.489-.1-.737a5.576,5.576,0,0,0-.153-.726,2.6,2.6,0,0,0-.279-.647,1.655,1.655,0,0,0-.473-.5,1.725,1.725,0,0,0-.616-.264,2.5,2.5,0,0,0-.652-.045,6.33,6.33,0,0,0-.67.077c-.225.035-.45.075-.672.1a3.31,3.31,0,0,1-.692.013,2.6,2.6,0,0,1-.671-.145A1.589,1.589,0,0,1,.337,8a1.133,1.133,0,0,1-.32-.539,1.73,1.73,0,0,1,.36-1.32,4.728,4.728,0,0,1,5.64-1.66,6.42,6.42,0,0,1,11.83-1,6.52,6.52,0,0,1,10.37,2.63,4.73,4.73,0,0,1,5.17,7,4.5,4.5,0,0,1,2.38,3.64,2.552,2.552,0,0,1-.261,1.1,2.933,2.933,0,0,1-.684.911,2.478,2.478,0,0,1-.962.544,1.915,1.915,0,0,1-1.093,0,2.62,2.62,0,0,1-4.6,2.5" transform="translate(296.71 2.21)" fill="#263238"/>
    <path id="Path_176" data-name="Path 176" d="M0,0V.53Q.032.716.079.9t.108.361q.061.178.137.351T.49,1.95a5.339,5.339,0,0,0,.321.508,5.34,5.34,0,0,0,.374.467,5.343,5.343,0,0,0,.424.422,5.342,5.342,0,0,0,.47.373,4.908,4.908,0,0,0,.685.415,4.91,4.91,0,0,0,.739.3A4.91,4.91,0,0,0,4.28,4.6a4.909,4.909,0,0,0,.8.045l-.12-.17a2.71,2.71,0,0,0,.1,2q.117.249.252.489t.287.469q.152.229.32.447t.351.424q.09.117.185.229t.2.22q.1.108.205.211t.215.2a2.62,2.62,0,0,0,1.15.45,2.67,2.67,0,0,0,2.38-.78l-.27-.09a5.5,5.5,0,0,0,2.23,3.86,4,4,0,0,0,2.39.84q.305,0,.609-.036t.6-.089q.3-.058.592-.142t.578-.194l-.19-.09a5.73,5.73,0,0,0,1.67,2.3,3.09,3.09,0,0,0,2.54.76,4.069,4.069,0,0,0,3.18-3.08l-.17.07a3.81,3.81,0,0,0,2.51.43,4.13,4.13,0,0,0,1.77-.74q.124-.09.239-.191t.22-.211q.105-.11.2-.23t.18-.247q.03-.043.057-.088t.051-.091q.024-.046.044-.094t.038-.1q-.109.169-.233.326t-.262.3q-.138.144-.29.275t-.316.247a4,4,0,0,1-1.73.66,3.6,3.6,0,0,1-2.36-.44l-.14-.08v.15a3.789,3.789,0,0,1-3,2.85,2.77,2.77,0,0,1-2.3-.71,5.63,5.63,0,0,1-1.58-2.18v-.14l-.14.05q-.274.1-.555.181t-.567.134q-.286.055-.576.086t-.582.038a3.77,3.77,0,0,1-2.2-.79,5.209,5.209,0,0,1-2.2-3.63V8.37l-.24.26a2.449,2.449,0,0,1-3.12.3q-.1-.092-.2-.189t-.192-.2q-.094-.1-.183-.207T6.53,8.12q-.18-.195-.345-.4T5.873,7.29q-.148-.219-.279-.45T5.35,6.37a2.4,2.4,0,0,1-.12-1.83l.07-.18H5.11a4.65,4.65,0,0,1-.757-.033,4.649,4.649,0,0,1-.737-.154,4.651,4.651,0,0,1-.7-.271A4.65,4.65,0,0,1,2.26,3.52,5.238,5.238,0,0,1,1.8,3.168a5.24,5.24,0,0,1-.42-.4A5.237,5.237,0,0,1,1,2.324,5.242,5.242,0,0,1,.68,1.84Q.555,1.627.449,1.4T.258.95Q.173.719.108.481T0,0Z" transform="translate(302.107 8.833)" fill="#455a64"/>
    <path id="Path_177" data-name="Path 177" d="M0,4.231c0-.068.114-.092.312-.11s.477-.029.808-.07A5.537,5.537,0,0,0,2.239,3.8a4.443,4.443,0,0,0,1.234-.65,4.727,4.727,0,0,0,.991-1.017,6.311,6.311,0,0,0,.6-1.035C5.213.78,5.319.5,5.4.3s.147-.312.209-.3A.19.19,0,0,1,5.755.11.641.641,0,0,1,5.81.372a2.462,2.462,0,0,1-.023.406c-.02.159-.052.34-.094.542A4.61,4.61,0,0,1,4,3.971a3.939,3.939,0,0,1-2.88.79,3.184,3.184,0,0,1-.505-.112A1.993,1.993,0,0,1,.259,4.5a.823.823,0,0,1-.206-.151C.01,4.3-.007,4.261,0,4.231Z" transform="translate(301.974 43.003)" fill="#263238"/>
    <path id="Path_178" data-name="Path 178" d="M3.92,72.95l.1-2.42,4.8-59c.36-.092,1.454-.339,2.893-.656s3.223-.706,4.962-1.083,3.432-.742,4.692-1.013L23.45,8.33l3-6.79,9.28,6L53.4,0l2.41,6.63,19.43,8.51.45.94L72.21,69.25l6.05,33.82-1.35,10.16-46.49,7.18q-.875.09-1.754.118t-1.756-.006q-.877-.034-1.751-.13t-1.74-.253L2.33,116.25l-2.33-6Z" transform="translate(271.507 63.303)" fill="#455a64"/>
    <path id="Path_179" data-name="Path 179" d="M2,0A14.289,14.289,0,0,1,4.366.555,21.048,21.048,0,0,1,9.791,3.162a21.269,21.269,0,0,1,5.975,6.077A27.666,27.666,0,0,1,19.78,20.2c.61,3.853,1.493,8.9,2.42,14.4s1.9,11.449,2.687,17.1,1.393,10.994,1.586,15.289-.025,7.539-.882,8.981c-2.34,3.928-4.912,6.093-7.455,7.132a11.346,11.346,0,0,1-7.275.374A18.417,18.417,0,0,1,5.34,80.9a18.161,18.161,0,0,1-2.19-1.7L1.9,57.36,0,26.2Z" transform="translate(340.867 77.353)" fill="#455a64"/>
    <path id="Path_180" data-name="Path 180" d="M20.84,0A14.932,14.932,0,0,0,18.6.4a20.946,20.946,0,0,0-5.156,2.017A18.87,18.87,0,0,0,7.7,7.3a21.336,21.336,0,0,0-4,9c-.275,1.335-.644,5.3-1.042,10.492S1.831,38.41,1.437,44.667.684,57.016.423,61.542,0,69.03,0,69.03l3.82,41.25,18-1.45,1.37-73.14Z" transform="translate(259.697 74.863)" fill="#455a64"/>
    <path id="Path_181" data-name="Path 181" d="M7.53,65.82q0-.062-.011-.124T7.5,65.572q-.011-.061-.026-.122t-.034-.12q-.037-.135-.079-.289l-.087-.327-.1-.367L7.07,63.94,6.776,62.9q-.159-.562-.341-1.209t-.386-1.378q-.2-.731-.429-1.545c-.325-1.113-.68-2.331-1.062-3.642s-.79-2.717-1.222-4.2l-1.363-4.69L.49,41.13v.1q.071-.93.129-1.884t.105-1.928q.048-.974.088-1.967t.078-2c.083-2.31.154-4.565.218-6.743s.12-4.278.172-6.279.1-3.9.142-5.68.086-3.436.128-4.948q.034-1.125.064-2.138T1.67,5.75q.026-.9.049-1.679T1.76,2.63c0-.2,0-.391,0-.572s0-.353.008-.515.011-.314.021-.456.023-.275.04-.4Q1.836.6,1.84.518t0-.173q0-.086,0-.173T1.83,0q-.021.084-.037.168t-.029.17q-.013.085-.021.171T1.73.68c0,.11-.006.234-.017.371s-.025.287-.041.449-.034.337-.052.524-.035.386-.05.6c-.03.423-.061.893-.092,1.407S1.416,5.1,1.385,5.7s-.062,1.244-.093,1.927S1.23,9.033,1.2,9.79c-.067,1.512-.132,3.169-.2,4.948S.878,18.417.813,20.417s-.132,4.1-.2,6.276S.462,31.122.38,33.43q-.038,1-.078,2T.216,37.392q-.046.973-.1,1.924T0,41.19v.09c.53,1.75,1.045,3.446,1.54,5.076s.969,3.192,1.418,4.674.872,2.885,1.264,4.194S4.975,57.75,5.3,58.86l1.6,5.13q.068.21.129.4l.118.358.107.322c.034.1.066.2.1.291q.017.06.037.118t.042.116q.023.058.048.114t.053.112Z" transform="translate(341.847 98.333)" fill="#263238"/>
    <path id="Path_182" data-name="Path 182" d="M.053,0A5.35,5.35,0,0,0,0,1.191c0,.767.015,1.877.046,3.247s.078,3,.14,4.813.138,3.8.228,5.888.181,4.077.268,5.887.172,3.44.249,4.808.148,2.476.208,3.241a5.379,5.379,0,0,0,.144,1.184,5.413,5.413,0,0,0,.054-1.194c0-.767-.014-1.875-.045-3.245s-.077-3-.137-4.81-.135-3.8-.222-5.891S.757,11.04.669,9.231.5,5.793.418,4.425.267,1.951.205,1.187A5.117,5.117,0,0,0,.053,0Z" transform="translate(274.293 94.373)" fill="#263238"/>
    <path id="Path_183" data-name="Path 183" d="M0,.83a.992.992,0,0,0,.12.176c.078.1.192.255.336.452s.319.438.518.725.423.62.665,1q.492.756.956,1.528t.9,1.56q.437.788.845,1.591T5.13,9.48l.12.28.24-.16L8.36,7.7c.782-.518,1.545-1.026,2.281-1.52s1.445-.971,2.12-1.427,1.318-.889,1.92-1.294,1.164-.78,1.679-1.12L18.74.67q.113-.072.222-.15t.213-.162q.1-.084.2-.174T19.57,0q-.126.047-.249.1T19.079.22q-.119.063-.234.133T18.62.5l-.488.3-.577.358-.659.414q-.349.221-.736.468c-.52.327-1.088.689-1.694,1.079s-1.253.809-1.931,1.251-1.386.909-2.118,1.394S8.93,6.752,8.16,7.27L5.3,9.17l.37.11q-.389-.825-.815-1.632T3.968,6.056q-.462-.786-.959-1.55T1.98,3q-.154-.216-.314-.428T1.34,2.155Q1.174,1.948,1,1.747T.65,1.35Q.58,1.272.5,1.2T.346,1.064Q.264,1,.178.94T0,.83Z" transform="translate(307.217 70.003)" fill="#263238"/>
    <path id="Path_184" data-name="Path 184" d="M.678,0q0,.036-.006.072t0,.073q0,.036,0,.073T.678.29v.84c0,.195,0,.409-.013.641s-.02.483-.034.753S.6,3.081.585,3.387s-.032.63-.047.973C.51,5.062.483,5.844.455,6.7S.4,8.483.373,9.481s-.055,2.065-.083,3.2S.235,15,.208,16.26c-.052,2.512-.1,5.265-.133,8.22S.015,30.592.005,33.915,0,40.725.022,44.34.085,51.7.148,55.53.293,63.1.39,66.72s.209,7.1.329,10.424.25,6.478.384,9.432.27,5.7.405,8.214q.1,1.875.2,3.57t.188,3.191c.061,1,.119,1.925.175,2.78s.109,1.636.159,2.339q.038.514.071.973t.064.862q.03.4.056.75t.049.635c0,.087,0,.17.01.248s.014.151.023.221.018.135.027.2.016.12.021.175q0,.036-.006.072t0,.073q0,.036,0,.073t.006.072q0-.036.006-.072t0-.073q0-.036,0-.073t-.006-.072v-.84c0-.2-.005-.409-.013-.641s-.02-.484-.034-.754-.029-.559-.045-.866-.032-.634-.047-.979c-.033-.71-.069-1.5-.108-2.353s-.083-1.785-.129-2.781-.1-2.058-.148-3.184-.107-2.315-.165-3.562c-.113-2.5-.231-5.244-.349-8.194s-.236-6.106-.346-9.428S.95,70.336.862,66.718.7,59.355.648,55.52.556,47.942.528,44.327s-.044-7.1-.049-10.42,0-6.474.013-9.426.036-5.7.066-8.211q.026-1.875.05-3.561T.654,9.532Q.675,8.042.694,6.75T.728,4.37V.29Q.725.253.72.217T.709.144Q.7.108.695.072T.678,0Z" transform="translate(305.319 74.953)" fill="#263238"/>
    <path id="Path_185" data-name="Path 185" d="M16.3.18q-.139-.009-.277-.013t-.278,0q-.139,0-.278,0T15.19.18L11.95.12.24,0H0V.24C.053,1.375.107,2.559.163,3.786s.113,2.5.172,3.8S.454,10.23.515,11.6.637,14.363.7,15.78v.17l.17.06h0l8.25,3h.19l6.65-3,.13-.06v-.14q.026-1.744.05-3.34c.016-1.062.031-2.072.046-3.024s.028-1.846.04-2.677.024-1.6.034-2.3V1.34q.009-.134.013-.267t0-.268q0-.134,0-.268T16.26.27s0,.026,0,.077,0,.127-.009.225-.013.221-.024.364-.026.308-.046.493-.035.394-.047.623-.022.48-.03.749-.017.556-.027.858-.021.62-.036.95c-.025.69-.052,1.448-.081,2.267s-.059,1.7-.092,2.641-.067,1.936-.1,2.985-.074,2.149-.114,3.3l.13-.2-6.68,3h.19l-8.25-3h0l.18.23q-.109-2.126-.212-4.182C.94,10.281.873,8.941.809,7.637S.682,5.066.622,3.84.505,1.432.45.3L.22.54,11.8.3,15.09.24,15.6.221l.375-.015c.1,0,.18-.008.235-.013A.28.28,0,0,0,16.3.18Z" transform="translate(280.467 103.253)" fill="#263238"/>
    <path id="Path_186" data-name="Path 186" d="M0,.99q.142.26.3.507t.342.48q.181.233.379.452t.415.421q.22.233.447.459t.461.445q.234.219.474.43T3.31,4.6q.139.116.283.232t.294.231q.15.115.306.23t.317.227q.084.065.172.125t.177.117q.09.056.183.108t.188.1a1.16,1.16,0,0,0,1,0q.175-.116.343-.242t.33-.259q.161-.134.316-.276t.3-.293L7.8,4.632q.139-.133.273-.265T8.337,4.1q.129-.131.253-.263.251-.259.484-.509t.445-.49q.213-.239.406-.465t.365-.436q.2-.218.384-.45t.352-.474q.168-.243.319-.5T11.63,0q-.218.2-.428.4t-.413.415q-.2.211-.4.43t-.382.444q-.184.2-.386.414T9.2,2.548q-.22.229-.458.47T8.25,3.51q-.124.124-.255.249t-.267.251q-.136.126-.276.251T7.17,4.51q-.137.136-.278.267T6.6,5.032q-.146.125-.3.245T6,5.51a.507.507,0,0,1-.279.07.827.827,0,0,1-.295-.074,2.158,2.158,0,0,1-.308-.169c-.1-.067-.211-.142-.318-.217L4.483,4.9l-.306-.217q-.15-.108-.294-.215T3.6,4.25q-.281-.218-.54-.432t-.5-.422q-.238-.207-.456-.4T1.69,2.61q-.2-.216-.4-.425T.871,1.773q-.211-.2-.429-.4T0,.99Z" transform="translate(295.267 71.213)" fill="#263238"/>
    <path id="Path_187" data-name="Path 187" d="M16.6.364a1.292,1.292,0,0,1,.286-.143,3.443,3.443,0,0,1,.94-.2A6.993,6.993,0,0,1,19.54.106a13.939,13.939,0,0,1,2.61.717,4.641,4.641,0,0,1,2.367,2.688A18.533,18.533,0,0,1,25.7,7.933a39.1,39.1,0,0,1,.407,4.134c.052,1.106.044,1.827.044,1.827a4.451,4.451,0,0,1-.094.961,6.585,6.585,0,0,1-.883,2.229A7.907,7.907,0,0,1,22.6,19.6a14.038,14.038,0,0,1-5.168,1.816,15.433,15.433,0,0,1-5.865-.074,13.061,13.061,0,0,1-4.108-1.646,12.523,12.523,0,0,1-2.417-1.931,7.912,7.912,0,0,1-.791-.929L0,7.664Z" transform="translate(339.777 136.25)" fill="#ae7461"/>
    <path id="Path_188" data-name="Path 188" d="M5.188.838a3.909,3.909,0,0,0-3.84-.57A1.938,1.938,0,0,0,.262,1.339,3.763,3.763,0,0,0,0,2.849,7.288,7.288,0,0,0,.147,4.2c.071.355.141.582.141.582l3.15-1.54Z" transform="translate(336.569 133.866)" fill="#ae7461"/>
    <path id="Path_189" data-name="Path 189" d="M29.19,3.436c-1.435,1.22-3.751,3.2-6.418,5.487s-5.685,4.876-8.524,7.313-5.5,4.722-7.448,6.4L3.61,25.376,0,26.506l1.36-3.52L26.61.486a2,2,0,0,1,2.77.15h0a2,2,0,0,1-.19,2.8Z" transform="translate(325.787 124.367)" fill="#7e57c2"/>
    <path id="Path_190" data-name="Path 190" d="M4.852,3.41a2,2,0,0,1-.16-2.21,2.34,2.34,0,0,1,.6-.661A2.279,2.279,0,0,1,6,.191,4.177,4.177,0,0,1,6.813.048C7.1.023,7.39.012,7.692,0q1.334.1,2.665.23t2.658.3Q14.342.7,15.664.9T18.3,1.35a5.406,5.406,0,0,1,1.668.7,6.448,6.448,0,0,1,1.524,1.3,4.4,4.4,0,0,1,.928,1.715A3.078,3.078,0,0,1,22.3,7.01l-.91,1.08s.144.179.339.478a7.645,7.645,0,0,1,.641,1.2,4.6,4.6,0,0,1,.378,1.577,2.569,2.569,0,0,1-.448,1.6l-1.64,1.19s.047.235.09.6a9.728,9.728,0,0,1,.066,1.392,5.083,5.083,0,0,1-.262,1.563,1.944,1.944,0,0,1-.895,1.114,5.53,5.53,0,0,1-3.8.23,10.59,10.59,0,0,1-4.34.89,6.966,6.966,0,0,1-2.589-1.118c-1.095-.656-2.35-1.529-3.552-2.419s-2.35-1.8-3.231-2.521A21.067,21.067,0,0,1,.522,12.45a2.339,2.339,0,0,1-.15-2.74,3.19,3.19,0,0,1,0-2.3,1.569,1.569,0,0,1,1.49-1.23,3.16,3.16,0,0,1,.64-2,5,5,0,0,1,2.35-.77Z" transform="translate(336.445 134.603)" fill="#ae7461"/>
    <path id="Path_191" data-name="Path 191" d="M4.988,3.43,4.91,3.422l-.078,0-.078,0-.077.008q-.112.01-.224.023t-.223.029q-.111.016-.222.036t-.221.042a2.42,2.42,0,0,0-1.33.68,3.31,3.31,0,0,0-.55,1.95l.14-.13A1.749,1.749,0,0,0,.418,7.33a3.38,3.38,0,0,0,0,2.45V9.61a2.57,2.57,0,0,0-.31,2.14,2.3,2.3,0,0,0,.63,1q.1.1.21.2t.212.195l.216.193.222.194q.446.375.913.759t.954.773q.487.389,1,.782T5.5,16.63q.552.421,1.119.819t1.151.774q.583.375,1.181.727t1.209.68q.082.046.167.087t.171.079q.086.038.174.071t.178.062q.092.04.186.072t.191.058q.1.025.195.043t.2.027q.191.014.383.018t.383,0q.192-.006.383-.023t.381-.043q.388-.052.771-.131t.759-.184q.376-.105.744-.237t.726-.289h-.18a6.09,6.09,0,0,0,3.06.1,2.93,2.93,0,0,0,1.46-.77,3.09,3.09,0,0,0,.66-1.52q.053-.374.075-.75t.013-.753q-.009-.376-.048-.751t-.11-.746l-.1.26,1.64-1.19h0a3.17,3.17,0,0,0,.32-2.78q-.1-.32-.224-.631T22.436,9.1q-.152-.3-.329-.581t-.379-.551v.32l.91-1.08h0a3.44,3.44,0,0,0-.11-2.71,5.66,5.66,0,0,0-1.62-2q-.239-.2-.5-.369t-.528-.318q-.271-.146-.556-.265t-.581-.209c-.2-.05-.392-.093-.584-.132s-.381-.072-.569-.1-.373-.06-.558-.088S16.67.96,16.488.93Q15.4.768,14.37.632T12.388.382q-.956-.113-1.84-.2T8.858.03Q8.665.015,8.473.007T8.088,0Q7.895,0,7.7.007T7.318.03q-.175.006-.348.024T6.624.1q-.172.03-.341.072t-.336.1a2.31,2.31,0,0,0-1.46,1.58,1.9,1.9,0,0,0,.19,1.34c.037.068.072.125.1.173s.06.087.083.117a.606.606,0,0,0,.057.064c.014.013.023.018.025.016s0-.012-.01-.029L4.9,3.456c-.018-.033-.04-.075-.065-.125s-.053-.111-.083-.181a2,2,0,0,1-.1-1.26A2.14,2.14,0,0,1,6.028.49q.159-.044.32-.079T6.672.353Q6.834.329,7,.316T7.328.3Q7.515.291,7.7.29T8.079.3Q8.267.3,8.454.32t.374.04q.8.079,1.678.182T12.339.77q.953.126,1.977.273t2.111.317c.177.033.359.063.542.094s.368.061.553.094.37.067.553.1.364.08.542.128.362.126.538.2.347.16.515.252.33.192.489.3.311.223.459.346a5.12,5.12,0,0,1,1.47,1.85,3,3,0,0,1,.09,2.34V7q-.112.135-.227.269l-.228.268-.228.27q-.114.136-.227.274l-.13.15.12.16q.19.248.357.511t.31.539q.143.276.262.564t.212.586a2.7,2.7,0,0,1-.25,2.34l.06-.06-1.56,1.1-.13.1v.16q.066.349.1.7t.044.706q.008.354-.014.707t-.072.705a2.48,2.48,0,0,1-.53,1.26,2.35,2.35,0,0,1-1.19.62,5.72,5.72,0,0,1-2.79-.09h-.18q-.341.147-.691.271t-.707.224q-.357.1-.72.177t-.731.128q-.178.024-.356.04t-.357.023q-.179.008-.358.007t-.358-.01q-.082-.011-.164-.027t-.162-.038q-.08-.021-.159-.048t-.156-.058q-.083-.029-.164-.061t-.161-.067q-.08-.035-.159-.073t-.156-.079q-.6-.329-1.194-.681t-1.166-.728q-.575-.375-1.136-.773t-1.1-.818q-.529-.375-1.038-.758t-1-.764q-.489-.381-.958-.753l-.915-.725c-.147-.13-.3-.254-.441-.376S1.094,12.63.969,12.5a2.639,2.639,0,0,1-.331-.391,1.535,1.535,0,0,1-.21-.444,2.2,2.2,0,0,1,.24-1.83V9.66A2.918,2.918,0,0,1,.46,8.539,3.094,3.094,0,0,1,.66,7.46a2.07,2.07,0,0,1,.533-.809,1.155,1.155,0,0,1,.794-.311h.14V6.21a3.15,3.15,0,0,1,.44-1.82,2.38,2.38,0,0,1,1.21-.67c.2-.057.372-.1.524-.138s.279-.062.381-.082l.231-.044C4.965,3.445,4.99,3.437,4.988,3.43Z" transform="translate(336.309 134.584)" fill="#6f4439"/>
    <path id="Path_192" data-name="Path 192" d="M0,0C0,.035.184.089.517.167s.813.178,1.4.306S3.217.754,4,.939s1.632.4,2.525.651q.8.261,1.608.495t1.624.439q.815.205,1.638.382t1.651.325Q12.823,3.108,12.6,3t-.455-.2q-.23-.093-.467-.17T11.2,2.49c-.287-.1-.6-.2-.943-.314s-.7-.228-1.088-.348-.789-.243-1.21-.367S7.1,1.213,6.65,1.09Q5.844.831,5.021.632T3.366.3Q2.532.16,1.69.086T0,0Z" transform="translate(341.297 138.013)" fill="#6f4439"/>
    <path id="Path_193" data-name="Path 193" d="M0,.009Q.231.189.472.356T.964.674q.25.152.51.288T2,1.219c.317.173.667.359,1.045.555s.784.4,1.213.616.882.433,1.354.655.962.448,1.467.673q.648.29,1.3.561T9.7,4.8q.664.25,1.336.48t1.35.439q.277.1.559.187t.569.151q.287.066.578.115t.584.078q-.261-.133-.528-.255t-.538-.232q-.272-.11-.548-.208t-.556-.184c-.338-.127-.706-.269-1.1-.425s-.816-.324-1.258-.5-.9-.373-1.383-.577S7.8,3.444,7.29,3.219c-1-.448-1.948-.881-2.812-1.276S2.833,1.188,2.175.89.983.354.608.2.018-.026,0,.009Z" transform="translate(338.347 140.755)" fill="#6f4439"/>
    <path id="Path_194" data-name="Path 194" d="M0,.01Q.189.189.386.358t.4.327q.207.158.422.3t.438.281c.25.18.531.378.838.59s.639.439.992.676.725.484,1.112.738.788.514,1.2.776q.523.344,1.057.67t1.08.632q.545.306,1.1.594T10.15,6.5q.235.126.478.234t.494.2q.251.088.508.156t.519.116q-.212-.145-.43-.281t-.442-.26q-.224-.125-.454-.24T10.36,6.2c-.278-.152-.58-.323-.9-.51S8.79,5.3,8.43,5.085,7.694,4.638,7.306,4.4,6.518,3.9,6.11,3.64c-.83-.542-1.621-1.05-2.343-1.5S2.394,1.282,1.844.955.843.372.526.208.023-.028,0,.01Z" transform="translate(336.857 144.284)" fill="#6f4439"/>
    <path id="Path_195" data-name="Path 195" d="M2.24,68.554H53.52a2.118,2.118,0,0,0,2.25-1.95V2a2.12,2.12,0,0,0-2.25-2H2.25A2.12,2.12,0,0,0,0,2V66.6a2.118,2.118,0,0,0,2.24,1.95Z" transform="translate(248.127 124.639)" fill="#e0e0e0"/>
    <path id="Path_196" data-name="Path 196" d="M2.33,68.554H2.16l-.126-.014-.125-.018L1.784,68.5l-.124-.026q-.1-.029-.195-.066t-.189-.081q-.093-.044-.182-.095T.92,68.124a2,2,0,0,1-.68-.81q-.032-.07-.057-.142t-.042-.146q-.018-.074-.028-.15T.1,66.724V1.914A1.77,1.77,0,0,1,.6.764,2.31,2.31,0,0,1,1.81.114Q1.9.1,1.995.1T2.18.1q.093,0,.185,0T2.55.114H53.61a2.37,2.37,0,0,1,1.52.52,1.76,1.76,0,0,1,.68,1.28v64.78a1.69,1.69,0,0,1-.4,1,2.2,2.2,0,0,1-1,.67q-.073.026-.147.047t-.149.037q-.075.016-.151.028t-.153.018h.01q.079-.007.158-.018t.156-.028q.078-.016.154-.037t.152-.047a2.33,2.33,0,0,0,1-.7,1.74,1.74,0,0,0,.42-1.05q0-.143,0-.283V1.9a1.89,1.89,0,0,0-.71-1.35A2.56,2.56,0,0,0,53.55,0h-51q-.1,0-.191,0T2.169.007q-.1.006-.19.018T1.79.054A2.41,2.41,0,0,0,.52.724,1.89,1.89,0,0,0,0,1.934v64.76q.006.078.019.154T.05,67q.019.075.044.149t.056.145a2.07,2.07,0,0,0,.69.81q.085.057.175.107T1.2,68.3q.093.043.189.078t.195.063q.062.018.125.032t.127.024q.064.01.128.016t.129.008Z" transform="translate(248.037 124.639)" fill="#263238"/>
    <g id="Group_10" data-name="Group 10" transform="translate(251.297 178.733)" opacity="0.3">
      <path id="Path_197" data-name="Path 197" d="M47.3,12.76.53,12.54,0,4.72,1.43,0l46.3,6.26Z"/>
    </g>
    <path id="Path_198" data-name="Path 198" d="M2.33,68.554H2.16l-.126-.014-.125-.018L1.784,68.5l-.124-.026q-.1-.029-.195-.066t-.189-.081q-.093-.044-.182-.095T.92,68.124a2,2,0,0,1-.68-.81q-.032-.07-.057-.142t-.042-.146q-.018-.074-.028-.15T.1,66.724V1.914A1.77,1.77,0,0,1,.6.764,2.31,2.31,0,0,1,1.81.114Q1.9.1,1.995.1T2.18.1q.093,0,.185,0T2.55.114H53.61a2.37,2.37,0,0,1,1.52.52,1.76,1.76,0,0,1,.68,1.28v64.78a1.69,1.69,0,0,1-.4,1,2.2,2.2,0,0,1-1,.67q-.073.026-.147.047t-.149.037q-.075.016-.151.028t-.153.018h.01q.079-.007.158-.018t.156-.028q.078-.016.154-.037t.152-.047a2.33,2.33,0,0,0,1-.7,1.74,1.74,0,0,0,.42-1.05q0-.143,0-.283V1.9a1.89,1.89,0,0,0-.71-1.35A2.56,2.56,0,0,0,53.55,0h-51q-.1,0-.191,0T2.169.007q-.1.006-.19.018T1.79.054A2.41,2.41,0,0,0,.52.724,1.89,1.89,0,0,0,0,1.934v64.76q.006.078.019.154T.05,67q.019.075.044.149t.056.145a2.07,2.07,0,0,0,.69.81q.085.057.175.107T1.2,68.3q.093.043.189.078t.195.063q.062.018.125.032t.127.024q.064.01.128.016t.129.008Z" transform="translate(248.037 124.639)" fill="#263238"/>
    <g id="Group_11" data-name="Group 11" transform="translate(251.297 178.733)" opacity="0.3">
      <path id="Path_199" data-name="Path 199" d="M47.3,12.76.53,12.54,0,4.72,1.43,0l46.3,6.26Z"/>
    </g>
    <path id="Rectangle_17" data-name="Rectangle 17" d="M50.13,0H0V62.51H50.13Z" transform="translate(250.937 127.453)" fill="#fff"/>
    <path id="Path_200" data-name="Path 200" d="M.09,62.55c0-.09,0-1.736,0-4.73S.093,50.483.1,45,.1,32.888.111,25.328.128,9.273.14.05H50.22v62.5h0V0H0C.018,9.235.032,17.74.044,25.308S.064,39.508.071,45s.012,9.833.015,12.827S.09,62.463.09,62.55Z" transform="translate(250.847 127.403)" fill="#263238"/>
    <path id="Rectangle_18" data-name="Rectangle 18" d="M10.96,0H0V2.19H10.96Z" transform="translate(287.237 144.353)" fill="#e0e0e0"/>
    <path id="Rectangle_19" data-name="Rectangle 19" d="M21.97,0H0V2.19H21.97Z" transform="translate(263.937 139.583)" fill="#f5f5f5"/>
    <path id="Rectangle_20" data-name="Rectangle 20" d="M10.45,0H0V2.19H10.45Z" transform="translate(287.857 139.543)" fill="#f5f5f5"/>
    <path id="Rectangle_21" data-name="Rectangle 21" d="M7.95,0H0V2.19H7.95Z" transform="translate(254.727 139.573)" fill="#f5f5f5"/>
    <path id="Rectangle_22" data-name="Rectangle 22" d="M14.14,0H0V2.49H14.14Z" transform="translate(284.107 175.933)" fill="#e0e0e0"/>
    <path id="Rectangle_23" data-name="Rectangle 23" d="M43.36,0H0V2.49H43.36Z" transform="translate(254.887 149.833)" fill="#e0e0e0"/>
    <path id="Path_201" data-name="Path 201" d="M0,.26a9.514,9.514,0,0,0,1.64.1C2.7.4,4.223.423,6.111.446S10.248.488,12.745.5s5.243.02,8.125.02S26.5.513,28.994.5s4.743-.031,6.63-.054S39.037.4,40.092.364A9.495,9.495,0,0,0,41.73.26a9.513,9.513,0,0,0-1.639-.1C39.035.125,37.507.1,35.62.074S31.485.032,28.989.02,23.75,0,20.87,0s-5.624,0-8.121.014S8,.038,6.115.059,2.7.106,1.641.139A7.6,7.6,0,0,0,0,.26Z" transform="translate(255.647 155.293)" fill="#263238"/>
    <path id="Path_202" data-name="Path 202" d="M0,.26a10.165,10.165,0,0,0,1.64.1C2.7.391,4.223.419,6.111.442S10.248.486,12.745.5,17.987.52,20.87.52,26.5.512,28.994.5s4.743-.033,6.63-.057S39.037.391,40.092.36A10.144,10.144,0,0,0,41.73.26a10.164,10.164,0,0,0-1.639-.1C39.035.129,37.507.1,35.62.077S31.485.034,28.989.021,23.75,0,20.87,0s-5.624.009-8.121.024S8,.06,6.115.085,2.7.139,1.641.169A11.808,11.808,0,0,0,0,.26Z" transform="translate(255.647 157.413)" fill="#263238"/>
    <path id="Path_203" data-name="Path 203" d="M0,.26a10.165,10.165,0,0,0,1.64.1C2.7.391,4.223.419,6.111.442S10.248.486,12.745.5,17.987.52,20.87.52,26.5.512,28.994.5s4.743-.033,6.63-.057S39.037.391,40.092.36A10.144,10.144,0,0,0,41.73.26a10.164,10.164,0,0,0-1.639-.1C39.035.129,37.507.1,35.62.077S31.485.034,28.989.021,23.75,0,20.87,0s-5.624.007-8.121.021S8,.054,6.115.077,2.7.129,1.641.16A10.184,10.184,0,0,0,0,.26Z" transform="translate(255.647 159.573)" fill="#263238"/>
    <path id="Path_204" data-name="Path 204" d="M0,.291q1.161.1,2.324.164t2.327.1Q5.816.586,6.98.586T9.31.551q1.163.034,2.327.035T13.964.554q1.163-.033,2.325-.1T18.61.291Q17.45.195,16.288.13t-2.325-.1Q12.8,0,11.637,0T9.31.031Q8.145,0,6.98,0T4.651.033Q3.487.066,2.324.13T0,.291Z" transform="translate(278.817 161.702)" fill="#263238"/>
    <path id="Path_205" data-name="Path 205" d="M0,.26a9.515,9.515,0,0,0,1.64.1C2.7.4,4.223.423,6.111.446S10.248.488,12.745.5s5.243.02,8.125.02S26.5.513,28.994.5s4.743-.031,6.63-.054S39.037.4,40.092.364A9.493,9.493,0,0,0,41.73.26a9.512,9.512,0,0,0-1.639-.1C39.035.125,37.507.1,35.62.074S31.485.032,28.989.02,23.75,0,20.87,0s-5.624.007-8.121.021S8,.054,6.115.077,2.7.129,1.641.16A10.184,10.184,0,0,0,0,.26Z" transform="translate(255.647 163.893)" fill="#263238"/>
    <path id="Path_206" data-name="Path 206" d="M0,.26a10.165,10.165,0,0,0,1.64.1C2.7.391,4.223.419,6.111.443S10.248.486,12.745.5,17.987.52,20.87.52,26.5.513,28.994.5s4.743-.033,6.63-.057S39.037.391,40.092.36A10.144,10.144,0,0,0,41.73.26a10.164,10.164,0,0,0-1.639-.1C39.035.129,37.507.1,35.62.077S31.485.034,28.989.021,23.75,0,20.87,0s-5.624.007-8.121.02S8,.051,6.115.074,2.7.125,1.641.156A9.533,9.533,0,0,0,0,.26Z" transform="translate(255.647 166.063)" fill="#263238"/>
    <path id="Path_207" data-name="Path 207" d="M0,.26a6.57,6.57,0,0,0,1.315.1C2.161.391,3.386.419,4.9.443S8.213.486,10.214.5s4.2.021,6.506.021S21.226.513,23.226.5s3.8-.033,5.315-.057S31.279.391,32.125.36A6.57,6.57,0,0,0,33.44.26a6.555,6.555,0,0,0-1.313-.1C31.281.129,30.058.1,28.545.078S25.231.034,23.231.021,19.03,0,16.72,0s-4.51.007-6.511.02-3.8.031-5.314.054S2.159.125,1.313.156A6.139,6.139,0,0,0,0,.26Z" transform="translate(263.987 168.223)" fill="#263238"/>
    <path id="Path_208" data-name="Path 208" d="M0,.26a9.515,9.515,0,0,0,1.64.1C2.7.4,4.223.423,6.111.446S10.248.488,12.745.5s5.243.02,8.125.02S26.5.513,28.994.5s4.743-.031,6.63-.054S39.037.4,40.092.364A9.493,9.493,0,0,0,41.73.26a9.512,9.512,0,0,0-1.639-.1C39.035.125,37.507.1,35.62.074S31.485.032,28.989.02,23.75,0,20.87,0s-5.624.011-8.121.028S8,.069,6.115.1,2.7.153,1.641.181A15.547,15.547,0,0,0,0,.26Z" transform="translate(255.647 170.383)" fill="#263238"/>
    <path id="Path_209" data-name="Path 209" d="M0,.26a9.512,9.512,0,0,0,1.64.1C2.7.4,4.223.423,6.111.446S10.248.488,12.745.5s5.243.02,8.125.02S26.5.513,28.994.5s4.743-.031,6.63-.054S39.037.4,40.092.364A9.493,9.493,0,0,0,41.73.26a9.512,9.512,0,0,0-1.639-.1C39.035.125,37.507.1,35.62.074S31.485.032,28.989.02,23.75,0,20.87,0s-5.624.008-8.121.021S8,.054,6.115.078,2.7.129,1.641.16A10.182,10.182,0,0,0,0,.26Z" transform="translate(255.647 172.543)" fill="#263238"/>
    <path id="Path_210" data-name="Path 210" d="M23.48,0H2.23A2.228,2.228,0,0,0,0,2.23v4.8H25.72V2.23A2.23,2.23,0,0,0,23.48,0Z" transform="translate(261.927 122.843)" fill="#263238"/>
    <path id="Path_211" data-name="Path 211" d="M0,0H6.54L5.78,5.29H.85Z" transform="translate(271.507 120.193)" fill="#263238"/>
    <path id="Path_212" data-name="Path 212" d="M0,.06.878.068c.566,0,1.384.011,2.4.017S5.494.1,6.834.1,9.65.11,11.2.11h4.366c1.341,0,2.547,0,3.559-.005S20.956.1,21.522.089A8.208,8.208,0,0,0,22.4.06a8.185,8.185,0,0,0-.878-.03c-.566-.008-1.384-.014-2.4-.018S16.906,0,15.566,0L11.2,0C9.65,0,8.175,0,6.834.005S4.288.013,3.275.019,1.444.031.878.038,0,.053,0,.06Z" transform="translate(263.577 122.783)" fill="#455a64"/>
    <path id="Path_213" data-name="Path 213" d="M.022,4.44s0-.062.008-.175.011-.276.017-.477.013-.441.017-.706.008-.557.008-.862,0-.6,0-.862,0-.5-.005-.706S.058.288.051.175.035,0,.022,0,0,.063,0,.175,0,.451,0,.652s.008.441.012.706.007.557.007.862,0,.6,0,.862-.005.5-.007.706,0,.364,0,.477A.563.563,0,0,0,.022,4.44Z" transform="translate(287.035 124.293)" fill="#455a64"/>
    <path id="Path_214" data-name="Path 214" d="M.049,4q.03-.5.044-1T.108,2q0-.5-.015-1T.049,0Q.025.5.012,1T0,2q0,.5.012,1T.049,4Z" transform="translate(262.708 124.203)" fill="#455a64"/>
    <path id="Path_215" data-name="Path 215" d="M0,.051.9.06c.582.006,1.424.013,2.465.021S5.648.1,7.024.1,9.913.111,11.5.111h4.476c1.376,0,2.615,0,3.655-.007S21.514.094,22.1.085A7.26,7.26,0,0,0,23,.051a7.276,7.276,0,0,0-.9-.033C21.514.01,20.672.006,19.631,0s-2.28,0-3.655,0H11.5C9.913,0,8.4,0,7.024.006S4.409.013,3.369.018,1.486.029.9.034,0,.046,0,.051Z" transform="translate(263.997 129.083)" fill="#455a64"/>
    <g id="Group_12" data-name="Group 12" transform="translate(260.867 124.843)" opacity="0.3">
      <path id="Path_216" data-name="Path 216" d="M1.06,0,0,2.98V4.43H1.2Z"/>
    </g>
    <path id="Path_217" data-name="Path 217" d="M2.58,3.351a1.76,1.76,0,0,0,.71-.64,1.63,1.63,0,0,0,.27-.92,1.66,1.66,0,0,0-.27-.93,1.74,1.74,0,0,0-.71-.63,2.2,2.2,0,0,0-1-.23q-.117,0-.233.006t-.23.029Q1,.056.891.087T.67.161A1.851,1.851,0,0,0,0,.651l.66.56A1.12,1.12,0,0,1,1.52.8a1,1,0,0,1,.53.13.79.79,0,0,1,.36.34,1,1,0,0,1,.13.52,1,1,0,0,1-.13.51.81.81,0,0,1-.36.35,1.159,1.159,0,0,1-1.39-.28L0,2.931a1.72,1.72,0,0,0,.67.48q.108.043.22.076t.226.054q.114.021.23.031t.233.009a2.33,2.33,0,0,0,1-.23Z" transform="translate(285.147 133.543)" fill="#263238"/>
    <path id="Path_218" data-name="Path 218" d="M3.07,3.35a1.9,1.9,0,0,0,.73-.64A1.76,1.76,0,0,0,3.8.87,1.82,1.82,0,0,0,3.07.23,2.47,2.47,0,0,0,.99.23,1.819,1.819,0,0,0,.26.87a1.76,1.76,0,0,0,0,1.84,1.9,1.9,0,0,0,.73.64,2.47,2.47,0,0,0,2.08,0Zm-1.54-.7a.93.93,0,0,1-.36-.35,1.09,1.09,0,0,1,0-1A.9.9,0,0,1,1.53.96a1,1,0,0,1,1,0,.9.9,0,0,1,.36.34,1.09,1.09,0,0,1,0,1,.93.93,0,0,1-.36.35,1.1,1.1,0,0,1-1,0Z" transform="translate(280.867 133.544)" fill="#263238"/>
    <path id="Path_219" data-name="Path 219" d="M0,0V3.44H.8L2.41,1.6V3.44h1V0H2.55L.94,1.83V0Z" transform="translate(276.847 133.613)" fill="#263238"/>
    <path id="Path_220" data-name="Path 220" d="M2.491,3.461q.09-.018.179-.044t.174-.06q.085-.034.167-.075t.16-.09l-.34-.72q-.065.041-.133.077t-.138.068q-.07.031-.142.058t-.146.048q-.078.022-.157.039t-.16.028q-.08.011-.161.017t-.162.006a1.769,1.769,0,0,1-.263-.017.7.7,0,0,1-.187-.052.276.276,0,0,1-.113-.087.208.208,0,0,1-.038-.124.24.24,0,0,1,.17-.22q.067-.025.135-.047t.137-.041q.069-.019.138-.034t.14-.028q.094-.012.188-.028T2.125,2.1q.093-.02.184-.044T2.491,2a1,1,0,0,0,.47-.31.81.81,0,0,0,.2-.57.91.91,0,0,0-.18-.56,1.25,1.25,0,0,0-.55-.41Q2.318.11,2.2.081T1.968.032Q1.85.013,1.731.005t-.24,0Q1.4,0,1.312,0T1.134.018Q1.045.026.957.04T.781.071Q.7.088.622.11T.467.162Q.391.191.316.226T.171.3l.32.7a2.221,2.221,0,0,1,1-.27.89.89,0,0,1,.45.09.26.26,0,0,1,.14.22.22.22,0,0,1-.17.21q-.066.024-.132.045t-.134.038q-.068.018-.136.032t-.137.025L1.2,1.429l-.173.043-.172.047-.171.052a1.25,1.25,0,0,0-.47.31.77.77,0,0,0-.21.57,1,1,0,0,0,.19.56,1.25,1.25,0,0,0,.55.4q.105.04.214.07t.219.048q.111.019.223.027t.225.005q.11,0,.22,0t.219-.018q.109-.013.217-.032T2.491,3.461Z" transform="translate(273.156 133.552)" fill="#263238"/>
    <path id="Path_221" data-name="Path 221" d="M0,2.69v.75H2.94V0H.07V.75H1.92v.58H.29v.73H1.92v.63Z" transform="translate(269.797 133.613)" fill="#263238"/>
    <path id="Path_222" data-name="Path 222" d="M0,0V3.44H.85L2.47,1.6V3.44h1V0H2.62L1.01,1.83V0Z" transform="translate(265.747 133.613)" fill="#263238"/>
    <path id="Path_223" data-name="Path 223" d="M2.15.77H3.28V0H0V.77H1.12V3.44h1Z" transform="translate(262.087 133.613)" fill="#263238"/>
    <path id="Path_224" data-name="Path 224" d="M.06,7.556,1.23,5.7s.028-.292.1-.733a12.032,12.032,0,0,1,.39-1.619,5.562,5.562,0,0,1,.793-1.635A1.755,1.755,0,0,1,3.83.926a2.1,2.1,0,0,1,1.3.353,2.592,2.592,0,0,1,.772.864,4.06,4.06,0,0,1,.369.88,3.436,3.436,0,0,1,.095.4,2.409,2.409,0,0,1,2.14-2.12,1.555,1.555,0,0,1,1.135.272,1.911,1.911,0,0,1,.6.8,3.555,3.555,0,0,1,.23.843,3.343,3.343,0,0,1,.038.39s.011-.18.053-.446A5.611,5.611,0,0,1,10.8,2.2a2.451,2.451,0,0,1,.528-.922A1.049,1.049,0,0,1,12.26.966,3.4,3.4,0,0,1,14.57,2.7s0-.147.012-.371a8.355,8.355,0,0,1,.086-.836A3.824,3.824,0,0,1,14.9.6.857.857,0,0,1,15.36.086a2,2,0,0,1,2.29.88A2.86,2.86,0,0,1,18,2.179a15.911,15.911,0,0,1,.1,1.772c.005.6-.011,1.176-.029,1.6s-.036.7-.036.7a2,2,0,0,1-1.69,1.89l-1.33-.23a6.334,6.334,0,0,1,.011.667,7.085,7.085,0,0,1-.2,1.5,3.914,3.914,0,0,1-.758,1.576,2.563,2.563,0,0,1-1.665.9,5.913,5.913,0,0,1-1.706.032,1.776,1.776,0,0,1-.847-.329.839.839,0,0,1-.288-.405.573.573,0,0,1-.029-.2,3.629,3.629,0,0,1-3.51,1.39A3.427,3.427,0,0,1,4.8,12.568a1.619,1.619,0,0,1-.554-.591A1.255,1.255,0,0,1,4.1,11.47a.887.887,0,0,1,.01-.215s-.146.063-.38.144a7.986,7.986,0,0,1-.915.261,4.576,4.576,0,0,1-1.11.118A1.729,1.729,0,0,1,.74,11.5,1.7,1.7,0,0,1,.2,10.559,6.1,6.1,0,0,1,.01,9.241C-.01,8.8,0,8.374.02,8.064S.06,7.556.06,7.556Z" transform="translate(266.757 187.138)" fill="#ae7461"/>
    <path id="Path_225" data-name="Path 225" d="M.68,5.78A7.419,7.419,0,0,0,.955,4.306,7.421,7.421,0,0,0,.93,2.821,7.42,7.42,0,0,0,.61,1.37,7.418,7.418,0,0,0,0,0Q.029.363.068.725t.091.722q.051.36.114.719T.41,2.88q.01.364.033.728T.5,4.334q.034.363.079.724T.68,5.78Z" transform="translate(281.137 189.393)" fill="#6f4439"/>
    <path id="Path_226" data-name="Path 226" d="M.026,8.62a9.716,9.716,0,0,0,.478-1A9.717,9.717,0,0,0,.863,6.573,9.723,9.723,0,0,0,1.1,5.493a9.724,9.724,0,0,0,.114-1.1,10.514,10.514,0,0,0,.114-1.1,10.509,10.509,0,0,0,0-1.105,10.509,10.509,0,0,0-.118-1.1A10.51,10.51,0,0,0,.976,0C.936,0,.916.125.9.349S.888.9.881,1.293.862,2.158.835,2.675.766,3.755.7,4.34.54,5.482.452,5.989.275,6.953.2,7.339s-.138.7-.172.92S-.012,8.608.026,8.62Z" transform="translate(276.141 190.303)" fill="#6f4439"/>
    <path id="Path_227" data-name="Path 227" d="M.013,7.9A.223.223,0,0,0,.1,7.841a1.8,1.8,0,0,0,.172-.182A3.663,3.663,0,0,0,.5,7.347C.59,7.221.68,7.073.773,6.9q.164-.332.308-.673t.27-.689q.125-.348.231-.7t.191-.715q.158-.5.277-1.009t.2-1.026q.079-.517.118-1.038T2.4,0q-.187.486-.352.98t-.306.994q-.141.5-.26,1.007T1.273,4q-.089.351-.187.7T.88,5.392q-.108.345-.224.687T.413,6.76c-.06.172-.119.327-.174.462s-.1.252-.143.348A2.362,2.362,0,0,0,.012,7.8C0,7.853,0,7.888.013,7.9Z" transform="translate(270.704 190.553)" fill="#6f4439"/>
    <g id="freepik--Clipboard--inject-21" transform="translate(0 85.259)">
      <path id="Path_84" data-name="Path 84" d="M21.8,505.819l302.078-.421a12.4,12.4,0,0,0,2.61-.282,12.6,12.6,0,0,0,2.483-.817,12.986,12.986,0,0,0,2.286-1.32,13.48,13.48,0,0,0,2.019-1.792,14.047,14.047,0,0,0,1.65-2.184,14.593,14.593,0,0,0,1.207-2.466,15,15,0,0,0,.736-2.672,15.226,15.226,0,0,0,.236-2.8L335.447,19.3a15.108,15.108,0,0,0-1.062-5.54,14.4,14.4,0,0,0-2.859-4.522A13.333,13.333,0,0,0,327.3,6.195a12.488,12.488,0,0,0-5.17-1.115L20.036,5.5a12.4,12.4,0,0,0-2.608.284,12.6,12.6,0,0,0-2.481.818,12.981,12.981,0,0,0-2.284,1.321,13.484,13.484,0,0,0-2.017,1.792A14.055,14.055,0,0,0,9,11.9a14.591,14.591,0,0,0-1.206,2.464,15.008,15.008,0,0,0-.735,2.67,15.231,15.231,0,0,0-.236,2.8L8.48,491.6a15.108,15.108,0,0,0,1.062,5.54,14.4,14.4,0,0,0,2.859,4.522A13.333,13.333,0,0,0,16.63,504.7,12.487,12.487,0,0,0,21.8,505.819Z" transform="translate(0.068 17.197)" fill="#e0e0e0"/>
      <path id="Path_85" data-name="Path 85" d="M21.882,505.849l-1.013-.067q-.377-.036-.752-.092t-.746-.133q-.372-.077-.739-.173t-.731-.213q-.591-.208-1.161-.471t-1.115-.579q-.545-.316-1.063-.684t-1-.785a13.968,13.968,0,0,1-1.268-1.253,14.337,14.337,0,0,1-1.105-1.41,14.674,14.674,0,0,1-.93-1.548,15,15,0,0,1-.743-1.669q-.191-.517-.341-1.047t-.261-1.071q-.11-.541-.179-1.09t-.1-1.1l-.021-1.181q-.01-.6-.021-1.215l-.022-1.247q-.011-.631-.022-1.276,0-1.294-.006-2.645t-.006-2.762q0-1.41-.007-2.878t-.007-2.994q-.009-3.066-.018-6.369t-.017-6.831q-.009-3.529-.018-7.281t-.019-7.717L7.937,268q-.047-14.275-.1-29.2t-.1-30.481q-.05-15.554-.1-31.723t-.1-32.929q-.028-8.385-.057-16.908t-.058-17.183q-.03-8.66-.06-17.457T7.3,74.382q-.015-4.462-.031-8.957T7.244,56.4q-.015-4.527-.03-9.087t-.029-9.153q0-2.295-.008-4.6t-.008-4.613q0-2.31-.008-4.629t-.009-4.645a14.9,14.9,0,0,1,.23-2.271,14.71,14.71,0,0,1,.568-2.185,14.394,14.394,0,0,1,.892-2.056,13.981,13.981,0,0,1,1.2-1.885,13.65,13.65,0,0,1,1.495-1.649A13.2,13.2,0,0,1,13.25,8.276a12.8,12.8,0,0,1,1.9-1.042,12.49,12.49,0,0,1,2.043-.7q.531-.111,1.068-.189t1.075-.123q.539-.045,1.08-.056t1.082.011L25.91,6.1h8.873l17.891-.03,36.517-.088,75.061-.1,157.864-.218a12.154,12.154,0,0,1,4.9,1,12.929,12.929,0,0,1,4.064,2.8,13.946,13.946,0,0,1,2.833,4.2,14.673,14.673,0,0,1,1.209,5.194q.047,2.685.064,5.379t.022,5.389q.005,2.7.007,5.387t.019,5.372q.021,5.371.042,10.724t.039,10.687q.019,5.335.037,10.651t.035,10.614q.037,10.6.074,21.107t.075,20.941q.037,10.429.075,20.776t.076,20.61q.072,20.513.145,40.655t.145,39.877q.072,19.735.143,39.044t.138,38.157q.068,18.848.14,37.219t.141,36.23q.069,17.859.13,35.189t.108,34.095q.01,2.094.02,4.179t.018,4.163q.008,2.078.016,4.148t.014,4.132q.018,1.025.034,2.052t.02,2.051q0,1.024-.007,2.044t-.048,2.03a14.728,14.728,0,0,1-.2,1.983,14.565,14.565,0,0,1-.46,1.921,14.3,14.3,0,0,1-.713,1.83,14.065,14.065,0,0,1-2.117,3.239,13.509,13.509,0,0,1-1.342,1.335,13.125,13.125,0,0,1-1.5,1.122,12.781,12.781,0,0,1-1.642.89q-.424.184-.859.338t-.877.276q-.443.123-.892.214t-.9.15c-.3.03-.6.047-.905.057s-.611.012-.919.011-.618,0-.927-.007-.619,0-.928,0l-14.644.03-55.644.1-167.918.379-45.64.12-11.83.051-4.048.071,4.049.028,11.832.019,45.643.035,167.883-.111,55.632-.055,14.657-.016c.306-.005.612-.006.92-.006s.617,0,.927,0,.623,0,.937-.013.63-.023.949-.046q.472-.06.938-.154t.925-.22q.459-.126.909-.285t.891-.35a13.376,13.376,0,0,0,1.708-.925,13.724,13.724,0,0,0,1.564-1.165,14.119,14.119,0,0,0,1.4-1.386,15.176,15.176,0,0,0,2.22-3.36,14.994,14.994,0,0,0,.759-1.9,15.276,15.276,0,0,0,.5-2,15.447,15.447,0,0,0,.228-2.063c.011-.705.016-1.4.018-2.088s0-1.37,0-2.049-.007-1.357-.01-2.036-.005-1.36,0-2.048q-.006-2.055-.013-4.12t-.013-4.141q-.007-2.076-.014-4.163t-.014-4.184q-.056-16.765-.113-34.095T337.12,397.8q-.059-17.859-.122-36.23t-.13-37.219q-.068-18.848-.134-38.157t-.132-39.044q-.066-19.735-.132-39.877t-.133-40.656q-.034-10.257-.07-20.6t-.071-20.772q-.036-10.429-.072-20.945T336.05,83.18q-.017-5.287-.035-10.6t-.037-10.645q-.019-5.334-.04-10.693T335.9,40.5q-.012-2.691-.017-5.381t-.013-5.384q-.008-2.694-.023-5.394t-.048-5.412a15.418,15.418,0,0,0-1.269-5.452,14.656,14.656,0,0,0-2.972-4.406,13.588,13.588,0,0,0-4.264-2.942,12.773,12.773,0,0,0-5.145-1.061L164.282,5.3l-75.1.028-36.4.057L34.89,5.42l-8.86.014-4.416.077Q21.056,5.487,20.5,5.5t-1.113.058q-.556.047-1.108.129t-1.1.2a12.942,12.942,0,0,0-4.167,1.8A13.788,13.788,0,0,0,9.7,10.767,14.715,14.715,0,0,0,7.493,14.82a15.349,15.349,0,0,0-.883,4.727q0,2.326.01,4.646t.011,4.631q.006,2.312.012,4.617t.014,4.6q.018,4.582.035,9.138t.034,9.085q.017,4.529.033,9.032t.032,8.979q.031,8.924.063,17.716t.065,17.449q.033,8.658.067,17.183t.069,16.917q.061,16.76.121,32.939t.12,31.741q.06,15.562.118,30.488t.115,29.18q.113,28.507.217,54.226.1,25.684.2,48.368c.061,15.1.119,29.152.171,42.087s.1,24.753.14,35.383q.02,3.986.039,7.748t.036,7.291q.017,3.529.033,6.82t.029,6.337l.014,3q.007,1.472.013,2.881t.013,2.758q.006,1.348.012,2.635c.008.433.01.861.011,1.283s0,.838,0,1.25.007.818.018,1.22.028.8.054,1.195q.03.559.1,1.112t.186,1.1q.113.544.267,1.078t.348,1.053a14.665,14.665,0,0,0,1.4,2.835,14.076,14.076,0,0,0,1.932,2.4,13.44,13.44,0,0,0,2.378,1.886,12.883,12.883,0,0,0,2.741,1.288q.362.119.729.215t.739.169q.372.073.747.123t.753.076Z" transform="translate(0 17.07)" fill="#263238"/>
      <g id="Group_3" data-name="Group 3" transform="translate(22.358 444.567)" opacity="0.3">
        <path id="Path_86" data-name="Path 86" d="M291.847,69.177l-288.24.751L.425,29.457,9.338,4.968,294.575,35.515Z"/>
      </g>
      <path id="Path_87" data-name="Path 87" d="M21.882,505.849l-1.013-.067q-.377-.036-.752-.092t-.746-.133q-.372-.077-.739-.173t-.731-.213q-.591-.208-1.161-.471t-1.115-.579q-.545-.316-1.063-.684t-1-.785a13.968,13.968,0,0,1-1.268-1.253,14.337,14.337,0,0,1-1.105-1.41,14.674,14.674,0,0,1-.93-1.548,15,15,0,0,1-.743-1.669q-.191-.517-.341-1.047t-.261-1.071q-.11-.541-.179-1.09t-.1-1.1l-.021-1.181q-.01-.6-.021-1.215l-.022-1.247q-.011-.631-.022-1.276,0-1.294-.006-2.645t-.006-2.762q0-1.41-.007-2.878t-.007-2.994q-.009-3.066-.018-6.369t-.017-6.831q-.009-3.529-.018-7.281t-.019-7.717L7.937,268q-.047-14.275-.1-29.2t-.1-30.481q-.05-15.554-.1-31.723t-.1-32.929q-.028-8.385-.057-16.908t-.058-17.183q-.03-8.66-.06-17.457T7.3,74.382q-.015-4.462-.031-8.957T7.244,56.4q-.015-4.527-.03-9.087t-.029-9.153q0-2.295-.008-4.6t-.008-4.613q0-2.31-.008-4.629t-.009-4.645a14.9,14.9,0,0,1,.23-2.271,14.71,14.71,0,0,1,.568-2.185,14.394,14.394,0,0,1,.892-2.056,13.981,13.981,0,0,1,1.2-1.885,13.65,13.65,0,0,1,1.495-1.649A13.2,13.2,0,0,1,13.25,8.276a12.8,12.8,0,0,1,1.9-1.042,12.49,12.49,0,0,1,2.043-.7q.531-.111,1.068-.189t1.075-.123q.539-.045,1.08-.056t1.082.011L25.91,6.1h8.873l17.891-.03,36.517-.088,75.061-.1,157.864-.218a12.154,12.154,0,0,1,4.9,1,12.929,12.929,0,0,1,4.064,2.8,13.946,13.946,0,0,1,2.833,4.2,14.673,14.673,0,0,1,1.209,5.194q.047,2.685.064,5.379t.022,5.389q.005,2.7.007,5.387t.019,5.372q.021,5.371.042,10.724t.039,10.687q.019,5.335.037,10.651t.035,10.614q.037,10.6.074,21.107t.075,20.941q.037,10.429.075,20.776t.076,20.61q.072,20.513.145,40.655t.145,39.877q.072,19.735.143,39.044t.138,38.157q.068,18.848.14,37.219t.141,36.23q.069,17.859.13,35.189t.108,34.095q.01,2.094.02,4.179t.018,4.163q.008,2.078.016,4.148t.014,4.132q.018,1.025.034,2.052t.02,2.051q0,1.024-.007,2.044t-.048,2.03a14.728,14.728,0,0,1-.2,1.983,14.565,14.565,0,0,1-.46,1.921,14.3,14.3,0,0,1-.713,1.83,14.065,14.065,0,0,1-2.117,3.239,13.509,13.509,0,0,1-1.342,1.335,13.125,13.125,0,0,1-1.5,1.122,12.781,12.781,0,0,1-1.642.89q-.424.184-.859.338t-.877.276q-.443.123-.892.214t-.9.15c-.3.03-.6.047-.905.057s-.611.012-.919.011-.618,0-.927-.007-.619,0-.928,0l-14.644.03-55.644.1-167.918.379-45.64.12-11.83.051-4.048.071,4.049.028,11.832.019,45.643.035,167.883-.111,55.632-.055,14.657-.016c.306-.005.612-.006.92-.006s.617,0,.927,0,.623,0,.937-.013.63-.023.949-.046q.472-.06.938-.154t.925-.22q.459-.126.909-.285t.891-.35a13.376,13.376,0,0,0,1.708-.925,13.724,13.724,0,0,0,1.564-1.165,14.119,14.119,0,0,0,1.4-1.386,15.176,15.176,0,0,0,2.22-3.36,14.994,14.994,0,0,0,.759-1.9,15.276,15.276,0,0,0,.5-2,15.447,15.447,0,0,0,.228-2.063c.011-.705.016-1.4.018-2.088s0-1.37,0-2.049-.007-1.357-.01-2.036-.005-1.36,0-2.048q-.006-2.055-.013-4.12t-.013-4.141q-.007-2.076-.014-4.163t-.014-4.184q-.056-16.765-.113-34.095T337.12,397.8q-.059-17.859-.122-36.23t-.13-37.219q-.068-18.848-.134-38.157t-.132-39.044q-.066-19.735-.132-39.877t-.133-40.656q-.034-10.257-.07-20.6t-.071-20.772q-.036-10.429-.072-20.945T336.05,83.18q-.017-5.287-.035-10.6t-.037-10.645q-.019-5.334-.04-10.693T335.9,40.5q-.012-2.691-.017-5.381t-.013-5.384q-.008-2.694-.023-5.394t-.048-5.412a15.418,15.418,0,0,0-1.269-5.452,14.656,14.656,0,0,0-2.972-4.406,13.588,13.588,0,0,0-4.264-2.942,12.773,12.773,0,0,0-5.145-1.061L164.282,5.3l-75.1.028-36.4.057L34.89,5.42l-8.86.014-4.416.077Q21.056,5.487,20.5,5.5t-1.113.058q-.556.047-1.108.129t-1.1.2a12.942,12.942,0,0,0-4.167,1.8A13.788,13.788,0,0,0,9.7,10.767,14.715,14.715,0,0,0,7.493,14.82a15.349,15.349,0,0,0-.883,4.727q0,2.326.01,4.646t.011,4.631q.006,2.312.012,4.617t.014,4.6q.018,4.582.035,9.138t.034,9.085q.017,4.529.033,9.032t.032,8.979q.031,8.924.063,17.716t.065,17.449q.033,8.658.067,17.183t.069,16.917q.061,16.76.121,32.939t.12,31.741q.06,15.562.118,30.488t.115,29.18q.113,28.507.217,54.226.1,25.684.2,48.368c.061,15.1.119,29.152.171,42.087s.1,24.753.14,35.383q.02,3.986.039,7.748t.036,7.291q.017,3.529.033,6.82t.029,6.337l.014,3q.007,1.472.013,2.881t.013,2.758q.006,1.348.012,2.635c.008.433.01.861.011,1.283s0,.838,0,1.25.007.818.018,1.22.028.8.054,1.195q.03.559.1,1.112t.186,1.1q.113.544.267,1.078t.348,1.053a14.665,14.665,0,0,0,1.4,2.835,14.076,14.076,0,0,0,1.932,2.4,13.44,13.44,0,0,0,2.378,1.886,12.883,12.883,0,0,0,2.741,1.288q.362.119.729.215t.739.169q.372.073.747.123t.753.076Z" transform="translate(0 17.07)" fill="#263238"/>
      <g id="Group_4" data-name="Group 4" transform="translate(22.358 444.567)" opacity="0.3">
        <path id="Path_88" data-name="Path 88" d="M291.847,69.177l-288.24.751L.425,29.457,9.338,4.968,294.575,35.515Z"/>
      </g>
      <path id="Path_229" data-name="Path 229" d="M303.205.337,0,.742,1.629,469.859l303.205-.405Z" transform="translate(17.522 40.039)" fill="#fff"/>
      <path id="Path_89" data-name="Path 89" d="M8.189,474.549c-.012-.677-.053-13.028-.12-35.5s-.161-55.059-.279-96.212-.259-90.87-.422-147.6S7.021,74.782,6.819,5.594L6.541,5.9,309.6,5.51h0l-.316-.328c.161,44.026.319,87.213.472,129.264s.3,82.965.445,122.442.281,77.518.413,113.822.258,70.873.377,103.406l.252-.265-303.052.7,303.1-.147.243,0,0-.261c-.109-32.537-.226-67.108-.349-103.415s-.252-74.349-.386-113.827-.273-80.393-.415-122.444-.288-85.239-.436-129.265l-.006-.348-.337.006L6.49,5.3l-.283,0,.005.3c.283,69.187.545,132.92.78,189.645s.442,106.44.615,147.592.313,73.74.412,96.21S8.177,473.871,8.189,474.549Z" transform="translate(13.094 31.584)" fill="#263238"/>
      <path id="Rectangle_10" data-name="Rectangle 10" d="M49.13,0,0,.12l.025,10.4,49.13-.12Z" transform="translate(257.796 66.75)" fill="#e0e0e0"/>
      <path id="Rectangle_11" data-name="Rectangle 11" d="M98.48,0,0,.241l.025,10.4,98.48-.241Z" transform="translate(28.265 64.32)" fill="#f5f5f5"/>
      <path id="Rectangle_12" data-name="Rectangle 12" d="M46.85,0,0,.114l.025,10.4,46.85-.114Z" transform="translate(270.34 89.653)" fill="#f5f5f5"/>
      <path id="Rectangle_13" data-name="Rectangle 13" d="M35.64,0,0,.087l.025,10.4,35.64-.087Z" transform="translate(35.642 129.86)" fill="#f5f5f5"/>
      <path id="Rectangle_14" data-name="Rectangle 14" d="M63.35,0,0,.155.029,12l63.35-.155Z" transform="translate(245.8 466.922)" fill="#e0e0e0"/>
      <path id="Path_100" data-name="Path 100" d="M108.86.015,6.33.266A6.325,6.325,0,0,0,.015,6.611l.066,27.08,115.18-.281L115.2,6.33A6.325,6.325,0,0,0,108.86.015Z" transform="translate(110.439 13.014)" fill="#263238"/>
      <path id="Path_101" data-name="Path 101" d="M0,.512,29.313.44,25.951,25.582l-22.083.045Z" transform="translate(153.195 0)" fill="#263238"/>
      <path id="Path_102" data-name="Path 102" d="M0,1.791c0,.035,1.406.064,3.946.087s6.216.04,10.758.051,9.951.015,15.956.013S43.27,1.931,50.2,1.915s13.533-.039,19.538-.066,11.413-.059,15.954-.093,8.216-.071,10.756-.108,3.943-.074,3.943-.109-1.405-.064-3.945-.086S90.232,1.414,85.691,1.4s-9.95-.014-15.956-.012-12.61.01-19.543.023-13.536.036-19.541.063-11.411.061-15.951.1-8.214.073-10.753.11S0,1.759,0,1.791Z" transform="translate(113.154 11.381)" fill="#455a64"/>
      <path id="Path_103" data-name="Path 103" d="M.492,21.085a2.88,2.88,0,0,0,.09-.83c.027-.534.051-1.307.071-2.262S.688,15.9.7,14.638s.013-2.651.01-4.109S.694,7.685.677,6.424.638,4.03.613,3.078.559,1.358.53.826A3.3,3.3,0,0,0,.444,0a3.356,3.356,0,0,0-.083.83C.334,1.366.308,2.139.287,3.094S.248,5.186.237,6.449.223,9.1.228,10.558s.017,2.845.032,4.1S.3,17.057.32,18.008.37,19.729.4,20.261A2.827,2.827,0,0,0,.492,21.085Z" transform="translate(235.761 19.534)" fill="#455a64"/>
      <path id="Path_104" data-name="Path 104" d="M.473,19.165q.09-1.195.149-2.391T.709,14.38q.028-1.2.025-2.4T.7,9.59q.027-1.2.023-2.4t-.037-2.4q-.033-1.2-.1-2.4T.429,0A2.4,2.4,0,0,0,.337.758C.309,1.243.284,1.945.264,2.813S.227,4.713.217,5.859.2,8.266.206,9.588s.013,2.583.029,3.729S.271,15.5.3,16.362s.053,1.568.083,2.052A2.365,2.365,0,0,0,.473,19.165Z" transform="translate(92.609 19.871)" fill="#455a64"/>
      <path id="Path_105" data-name="Path 105" d="M0,1.833c0,.032,1.443.06,4.05.083s6.38.039,11.041.049,10.212.013,16.376.008,12.94-.017,20.053-.039,13.89-.047,20.054-.075S83.29,1.8,87.952,1.77s8.435-.066,11.042-.1,4.049-.07,4.048-.1S101.6,1.5,99,1.479s-6.369-.038-11.027-.046S77.767,1.422,71.6,1.428s-12.95.017-20.079.037-13.913.044-20.079.072-11.716.06-16.374.093-8.425.068-11.028.1S0,1.8,0,1.833Z" transform="translate(116.549 41.274)" fill="#455a64"/>
      <path id="E-contrat" d="M5.913,12.106v3.587l5.8.1v3.332l-5.8-.094v3.89l6.564.1v3.458l-10.9-.168V8.57l10.9.189v3.458Zm20.245,3.948v3.579l-11.123-.18V15.87Zm3.054,1.814q0-2.62,1.135-4.655t3.165-3.145Q35.541,8.959,38.111,9q3.147.055,5.386,1.754t2.992,4.578l-4.728-.079q-.528-1.116-1.5-1.711t-2.2-.616q-1.99-.034-3.225,1.33T33.6,17.941q0,2.317,1.235,3.722T38.06,23.1q1.234.02,2.2-.544t1.5-1.662l4.728.076q-.754,2.855-2.992,4.467T38.111,27q-2.57-.04-4.6-1.217t-3.165-3.236Q29.212,20.489,29.212,17.869Zm26.293,9.476q-2.058-.032-3.7-.937t-2.587-2.554q-.942-1.649-.942-3.837,0-2.162.955-3.793t2.612-2.482q1.657-.852,3.715-.817t3.712.942q1.654.907,2.606,2.567t.952,3.819q0,2.159-.964,3.788t-2.631,2.482Q57.562,27.376,55.505,27.344Zm0-3.718q1.229.019,2.094-.871t.865-2.573q0-1.683-.84-2.6t-2.069-.939q-1.255-.021-2.083.858t-.828,2.587q0,1.684.816,2.6T55.505,23.626Zm18.1-10.345q2.448.042,3.909,1.658t1.46,4.4v8.169l-4.245-.066v-7.6q0-1.4-.725-2.193t-1.949-.81q-1.225-.02-1.95.745t-.725,2.17v7.6L65.1,27.291v-14l4.279.073v1.856q.65-.917,1.751-1.438T73.609,13.281ZM89.7,24.042v3.629l-2.167-.033q-2.318-.036-3.614-1.2t-1.3-3.74V17.142l-1.7-.028V13.556l1.7.029V10.178l4.263.074v3.405l2.79.047v3.554l-2.79-.046v5.608q0,.626.3.906t1,.291Zm6.619-7.9q.746-1.138,1.865-1.782t2.485-.62v4.525L99.5,18.246q-1.591-.026-2.386.648t-.8,2.4v6.478l-4.254-.066V13.745l4.254.072Zm5.542,4.717q0-2.15.807-3.761t2.2-2.462q1.39-.851,3.1-.822,1.463.025,2.566.643t1.7,1.6V14.087l4.235.072V28.084l-4.235-.065V26.047q-.62.964-1.723,1.546t-2.566.56q-1.687-.026-3.077-.935t-2.2-2.558Q101.86,23.01,101.86,20.86Zm10.37.193q0-1.6-.88-2.536t-2.144-.959q-1.265-.021-2.145.876t-.881,2.5q0,1.6.881,2.55t2.145.971q1.264.02,2.144-.89T112.23,21.053Zm14.992,3.583V28.25l-2.149-.033q-2.3-.035-3.584-1.19T120.2,23.3V17.765l-1.682-.028V14.194l1.682.029V10.83l4.228.073v3.391l2.767.047v3.54l-2.767-.046V23.42q0,.623.3.9t.988.29Z" transform="translate(105.527 52.881)" fill="#7e57c2"/>
      <g id="Group_5" data-name="Group 5" transform="translate(81.95 23.074)" opacity="0.3">
        <path id="Path_106" data-name="Path 106" d="M5.079.005.345,14.16l.021,6.921,5.381-.014Z"/>
      </g>
      <path id="Path_117" data-name="Path 117" d="M19.9,5.312l-.034,0-.1.008c-.044,0-.1.011-.165.021s-.143.022-.23.039l-1.536.257q-.739.123-1.474.268T14.9,6.22q-.73.168-1.455.358T12,6.98q-.513.16-1.019.342t-1,.386q-.5.2-.985.43t-.965.473Q7.45,8.9,6.9,9.245t-1.074.727q-.521.385-1.01.814t-.94.9a12.85,12.85,0,0,0-3.1,5.055,9.57,9.57,0,0,0,.285,6.6,14.871,14.871,0,0,0,4.58,5.7q.789.606,1.612,1.164t1.675,1.067q.853.509,1.735.967t1.79.865q1.972.95,3.991,1.789t4.081,1.566q2.061.727,4.161,1.339T28.913,38.9a80.589,80.589,0,0,0,9.9,1.65,80.6,80.6,0,0,0,9.987.408,80.6,80.6,0,0,0,9.96-.831,80.587,80.587,0,0,0,9.818-2.068q.646-.18,1.283-.377t1.268-.4q.631-.2,1.258-.412t1.254-.41q.62-.219,1.23-.462t1.21-.512q.6-.268,1.188-.561t1.165-.609q.577-.311,1.13-.66t1.082-.734q.528-.385,1.03-.805t.974-.874A12.279,12.279,0,0,0,85.523,27a10.571,10.571,0,0,0,.623-5.012q-.075-.617-.207-1.224t-.318-1.2q-.186-.591-.426-1.163t-.532-1.121a18.38,18.38,0,0,0-6.57-6.806q-.957-.59-1.942-1.13T74.157,8.316q-1.01-.491-2.044-.93t-2.089-.828q-1.016-.41-2.03-.771T65.972,5.1q-1.008-.329-2.008-.635t-1.988-.6q-1.837-.5-3.694-.924t-3.73-.757q-1.873-.337-3.76-.589t-3.785-.42Q44.255.915,41.5.847T35.982.9q-2.755.117-5.5.419T25.02,2.1c-.322.048-.633.1-.935.16s-.594.118-.876.178-.555.121-.817.179-.516.113-.761.162-.479.1-.7.152-.44.1-.646.156-.4.1-.586.153l-.524.143-1.5.406c-.085.021-.159.042-.222.06l-.159.047-.1.031-.032.011.033,0c.022,0,.055-.005.1-.012s.1-.016.162-.03.139-.032.224-.056l1.514-.356.529-.128q.279-.067.587-.139t.647-.144q.339-.072.709-.143c.247-.047.5-.1.765-.152s.536-.109.817-.165.573-.111.873-.164.612-.1.934-.149q1.166-.192,2.337-.352t2.346-.29q1.175-.129,2.352-.227t2.358-.165q1.562-.079,3.126-.1t3.127.011q1.563.034,3.124.125t3.119.238q1.888.174,3.766.434t3.741.6q1.863.343,3.71.769t3.673.936q1.023.286,2.038.6t2.021.649q1.006.338,2,.7t1.986.752q1.047.38,2.074.812t2.029.915q1,.483,1.98,1.017t1.927,1.116a17.92,17.92,0,0,1,6.387,6.63,11.22,11.22,0,0,1,.832,9.3,11.8,11.8,0,0,1-2.77,4.049q-.463.433-.952.835t-1,.772q-.513.37-1.05.706t-1.094.639q-.57.3-1.151.588t-1.172.543q-.591.261-1.192.5t-1.21.453q-.619.206-1.242.405t-1.251.4l-1.26.392-1.27.394A80.335,80.335,0,0,1,58.736,39.5a80.348,80.348,0,0,1-9.9.832,80.351,80.351,0,0,1-9.926-.4,80.344,80.344,0,0,1-9.838-1.626q-2.12-.485-4.207-1.086T20.727,35.9q-2.05-.716-4.058-1.544T12.7,32.592q-.9-.4-1.775-.846T9.205,30.8q-.845-.5-1.66-1.05T5.949,28.6a14.38,14.38,0,0,1-4.5-5.512,9.279,9.279,0,0,1-.3-6.366,12.571,12.571,0,0,1,2.984-4.953,18.81,18.81,0,0,1,8.029-4.7q.714-.221,1.433-.422t1.444-.381q.725-.18,1.455-.34t1.464-.3l1.525-.307Z" transform="translate(130.842 438.129)" fill="#263238"/>
    </g>
  </g>
  <g id="SVGRepo_iconCarrier" transform="translate(0 526.452)">
    <path id="Path_303" data-name="Path 303" d="M0,17.27H33.291V3.959a4.28,4.28,0,0,0-.283-1.538,4.024,4.024,0,0,0-.771-1.259A3.613,3.613,0,0,0,31.1.312,3.281,3.281,0,0,0,29.7,0H3.591A3.281,3.281,0,0,0,2.2.312a3.613,3.613,0,0,0-1.142.85A4.024,4.024,0,0,0,.283,2.421,4.28,4.28,0,0,0,0,3.959Z" transform="translate(40.992 25.173)" fill="#d5d9cf"/>
    <path id="Path_304" data-name="Path 304" d="M0,18.848H34.722V4.748a5.142,5.142,0,0,0-.34-1.849,4.814,4.814,0,0,0-.925-1.509A4.328,4.328,0,0,0,32.087.373,3.941,3.941,0,0,0,30.416,0H4.306A3.942,3.942,0,0,0,2.629.375,4.324,4.324,0,0,0,1.26,1.395,4.824,4.824,0,0,0,.338,2.9,5.142,5.142,0,0,0,0,4.748ZM33.291,17.27H1.431V4.748a3.439,3.439,0,0,1,.226-1.234,3.213,3.213,0,0,1,.616-1.008,2.883,2.883,0,0,1,.914-.68,2.636,2.636,0,0,1,1.119-.249h26.11a2.636,2.636,0,0,1,1.119.249,2.883,2.883,0,0,1,.914.68,3.213,3.213,0,0,1,.616,1.008,3.439,3.439,0,0,1,.226,1.234Z" transform="translate(40.277 24.384)" fill="#333336"/>
    <path id="Path_305" data-name="Path 305" d="M1.561,5.465H37.688a1.424,1.424,0,0,0,.606-.136,1.573,1.573,0,0,0,.5-.37,1.752,1.752,0,0,0,.335-.547,1.858,1.858,0,0,0,.123-.668V1.721a1.858,1.858,0,0,0-.123-.668,1.753,1.753,0,0,0-.335-.547,1.573,1.573,0,0,0-.5-.37A1.424,1.424,0,0,0,37.688,0H1.561A1.424,1.424,0,0,0,.955.136a1.573,1.573,0,0,0-.5.37,1.753,1.753,0,0,0-.335.547A1.858,1.858,0,0,0,0,1.721V3.744a1.858,1.858,0,0,0,.123.668,1.752,1.752,0,0,0,.335.547,1.573,1.573,0,0,0,.5.37A1.424,1.424,0,0,0,1.561,5.465Z" transform="translate(38.013 42.443)" fill="#d5d9cf"/>
    <path id="Path_306" data-name="Path 306" d="M2.277,7.043H38.4a2.069,2.069,0,0,0,.883-.2,2.3,2.3,0,0,0,.724-.54,2.563,2.563,0,0,0,.49-.8,2.7,2.7,0,0,0,.18-.973V2.51a2.7,2.7,0,0,0-.18-.973,2.563,2.563,0,0,0-.49-.8A2.3,2.3,0,0,0,39.286.2,2.069,2.069,0,0,0,38.4,0H2.277a2.069,2.069,0,0,0-.883.2A2.3,2.3,0,0,0,.67.739a2.564,2.564,0,0,0-.49.8A2.7,2.7,0,0,0,0,2.51V4.533a2.74,2.74,0,0,0,.178.979,2.531,2.531,0,0,0,.487.8,2.272,2.272,0,0,0,.723.537A2.1,2.1,0,0,0,2.277,7.043ZM38.4,1.578a.779.779,0,0,1,.33.073.845.845,0,0,1,.269.2.941.941,0,0,1,.181.3,1.017,1.017,0,0,1,.066.364V4.533a1.017,1.017,0,0,1-.066.364.941.941,0,0,1-.181.3.845.845,0,0,1-.269.2.779.779,0,0,1-.33.073H2.277a.779.779,0,0,1-.33-.073.845.845,0,0,1-.269-.2A.941.941,0,0,1,1.5,4.9a1.017,1.017,0,0,1-.066-.364V2.51A1.017,1.017,0,0,1,1.5,2.147a.941.941,0,0,1,.181-.3.845.845,0,0,1,.269-.2.779.779,0,0,1,.33-.073Z" transform="translate(37.298 41.654)" fill="#333336"/>
    <path id="Path_307" data-name="Path 307" d="M6.8,6.053c.673-.151,1.345-.3,2.05-.444s1.443-.286,2.25-.42,1.681-.263,2.66-.382,2.06-.231,3.279-.331V0H45.572V4.547c1.2.108,2.264.228,3.234.357s1.844.268,2.655.414,1.558.3,2.276.451,1.407.312,2.1.47a8.014,8.014,0,0,1,2.727,1.182,8.776,8.776,0,0,1,2.145,2.067,9.646,9.646,0,0,1,1.4,2.734,10.238,10.238,0,0,1,.5,3.183V48.8a3.351,3.351,0,0,1-.221,1.2,3.148,3.148,0,0,1-.6.985,2.826,2.826,0,0,1-.893.665A2.569,2.569,0,0,1,59.8,51.9H2.81a2.569,2.569,0,0,1-1.092-.244,2.826,2.826,0,0,1-.893-.665A3.148,3.148,0,0,1,.221,50,3.351,3.351,0,0,1,0,48.8V15.219a10.211,10.211,0,0,1,.507-3.191A9.64,9.64,0,0,1,1.919,9.291,8.782,8.782,0,0,1,4.072,7.227,8.005,8.005,0,0,1,6.8,6.053Z" transform="translate(26.331 47.908)" fill="#deddda"/>
    <path id="Path_308" data-name="Path 308" d="M3.526,53.488H60.519a3.229,3.229,0,0,0,1.369-.3,3.542,3.542,0,0,0,1.121-.832,3.938,3.938,0,0,0,.758-1.235,4.213,4.213,0,0,0,.278-1.515V16.194a10.978,10.978,0,0,0-.55-3.439,10.554,10.554,0,0,0-1.53-2.967,9.625,9.625,0,0,0-2.327-2.249,8.624,8.624,0,0,0-2.943-1.285L56.46,6.2c-.634-.143-1.273-.288-1.942-.43s-1.368-.283-2.123-.42-1.564-.268-2.455-.393S48.079,4.712,47,4.6V0H17.042V4.533c-1.138.1-2.155.212-3.078.331s-1.754.246-2.521.378-1.47.268-2.138.407-1.3.279-1.929.419A8.641,8.641,0,0,0,4.418,7.342,9.557,9.557,0,0,0,2.083,9.585,10.5,10.5,0,0,0,.551,12.554,11.032,11.032,0,0,0,0,16.008V49.586A4.231,4.231,0,0,0,.278,51.1a3.967,3.967,0,0,0,.758,1.24,3.55,3.55,0,0,0,1.121.837,3.211,3.211,0,0,0,1.369.307Zm42.046-51.9v4.49l.663.057c1.151.1,2.185.221,3.128.346s1.8.26,2.588.4,1.52.285,2.215.432,1.355.3,2.009.443l.234.057A7.317,7.317,0,0,1,58.9,8.9a8.111,8.111,0,0,1,1.964,1.9,8.889,8.889,0,0,1,1.289,2.5,9.286,9.286,0,0,1,.463,2.9V49.6a2.511,2.511,0,0,1-.164.9,2.337,2.337,0,0,1-.449.734,2.1,2.1,0,0,1-.666.495,1.924,1.924,0,0,1-.816.181H3.526a1.924,1.924,0,0,1-.816-.181,2.1,2.1,0,0,1-.666-.495A2.337,2.337,0,0,1,1.6,50.5a2.511,2.511,0,0,1-.164-.9V16.022A9.306,9.306,0,0,1,1.9,13.109,8.884,8.884,0,0,1,3.191,10.6,8.062,8.062,0,0,1,5.163,8.7a7.243,7.243,0,0,1,2.5-1.073c.647-.143,1.3-.288,1.992-.43s1.422-.282,2.223-.416,1.675-.264,2.653-.384,2.06-.233,3.28-.333l.663-.057V1.592Z" transform="translate(25.615 47.105)" fill="#333336"/>
    <path id="Path_309" data-name="Path 309" d="M1.522,8.621H64.357a1.409,1.409,0,0,0,.595-.131,1.514,1.514,0,0,0,.484-.358A1.689,1.689,0,0,0,65.76,7.6a1.838,1.838,0,0,0,.119-.656V1.678a1.839,1.839,0,0,0-.119-.656A1.687,1.687,0,0,0,65.435.49a1.515,1.515,0,0,0-.484-.358A1.409,1.409,0,0,0,64.357,0H1.522A1.409,1.409,0,0,0,.928.131,1.515,1.515,0,0,0,.444.49a1.687,1.687,0,0,0-.325.533A1.838,1.838,0,0,0,0,1.678V6.942A1.817,1.817,0,0,0,.121,7.6a1.7,1.7,0,0,0,.328.533,1.532,1.532,0,0,0,.484.358A1.393,1.393,0,0,0,1.522,8.621Z" transform="translate(24.692 94.439)" fill="#c0bfbc"/>
    <path id="Path_310" data-name="Path 310" d="M2.238,10.2H65.073A2.053,2.053,0,0,0,65.944,10a2.244,2.244,0,0,0,.711-.529,2.5,2.5,0,0,0,.48-.784,2.679,2.679,0,0,0,.176-.96V2.467a2.679,2.679,0,0,0-.176-.96,2.5,2.5,0,0,0-.48-.784,2.244,2.244,0,0,0-.711-.529A2.053,2.053,0,0,0,65.073,0H2.238a2.053,2.053,0,0,0-.871.194A2.244,2.244,0,0,0,.655.723a2.5,2.5,0,0,0-.48.784A2.679,2.679,0,0,0,0,2.467V7.731a2.679,2.679,0,0,0,.176.96,2.5,2.5,0,0,0,.48.784A2.244,2.244,0,0,0,1.367,10,2.053,2.053,0,0,0,2.238,10.2ZM65.086,1.578a.733.733,0,0,1,.313.07.816.816,0,0,1,.257.191.909.909,0,0,1,.174.283.956.956,0,0,1,.064.345V7.731a.955.955,0,0,1-.064.345.909.909,0,0,1-.174.283.816.816,0,0,1-.257.191.732.732,0,0,1-.313.07H2.251a.732.732,0,0,1-.313-.07.817.817,0,0,1-.257-.191.909.909,0,0,1-.174-.283.955.955,0,0,1-.064-.345V2.467a.956.956,0,0,1,.064-.345.909.909,0,0,1,.174-.283.817.817,0,0,1,.257-.191.733.733,0,0,1,.313-.07Z" transform="translate(23.976 93.651)" fill="#333336"/>
    <path id="Path_311" data-name="Path 311" d="M62.614,0H0V15.907H62.614Z" transform="translate(26.331 68.291)" fill="#813d9c"/>
    <path id="Path_312" data-name="Path 312" d="M0,17.485H64.045V0H0Zm62.614-1.578H1.431V1.578H62.614Z" transform="translate(25.615 67.502)" fill="#333336"/>
    <path id="Path_313" data-name="Path 313" d="M.846,1.018,0,19.235a.827.827,0,0,0,.029.216,1.065,1.065,0,0,0,.077.2,1.733,1.733,0,0,0,.108.185c.04.06.082.118.124.175.527.742,1.1,1.61,1.668,2.52S3.158,24.392,3.7,25.3s1.061,1.783,1.507,2.53.824,1.37,1.1,1.786a1.2,1.2,0,0,0,.374.374.926.926,0,0,0,.445.141.782.782,0,0,0,.435-.109.938.938,0,0,0,.345-.377c.276-.527.664-1.266,1.121-2.109s.983-1.792,1.536-2.739,1.133-1.892,1.7-2.728A16.319,16.319,0,0,1,13.868,20a.939.939,0,0,0,.122-.155,1.043,1.043,0,0,0,.09-.179,1.1,1.1,0,0,0,.075-.4L13.308,1a1.1,1.1,0,0,0-.071-.393,1.008,1.008,0,0,0-.194-.319.9.9,0,0,0-.289-.214A.846.846,0,0,0,12.4,0H1.769a.891.891,0,0,0-.364.089A.949.949,0,0,0,1.112.31a1.034,1.034,0,0,0-.2.321A1.081,1.081,0,0,0,.846,1.018Z" transform="translate(3.89 83.753)" fill="#d5d9cf"/>
    <path id="Path_314" data-name="Path 314" d="M7.858,31.714h.091a1.431,1.431,0,0,0,.735-.249,1.567,1.567,0,0,0,.3-.269,1.8,1.8,0,0,0,.24-.357c.244-.463.611-1.161,1.053-1.979s.961-1.757,1.509-2.7,1.125-1.891,1.685-2.727a15.843,15.843,0,0,1,1.58-2.06,1.793,1.793,0,0,0,.216-.281,1.883,1.883,0,0,0,.159-.318,1.957,1.957,0,0,0,.132-.706v-.043L14.727,1.779a1.946,1.946,0,0,0-.135-.689A1.848,1.848,0,0,0,14.24.523a1.645,1.645,0,0,0-.514-.383A1.467,1.467,0,0,0,13.1,0H2.472a1.5,1.5,0,0,0-.631.139,1.613,1.613,0,0,0-.514.379,1.814,1.814,0,0,0-.348.565,1.989,1.989,0,0,0-.133.7L0,20.024a1.706,1.706,0,0,0,.048.4,1.888,1.888,0,0,0,.12.343,2.467,2.467,0,0,0,.156.287c.054.086.109.163.158.232.335.473.687,1,1.047,1.55s.727,1.136,1.093,1.728.73,1.192,1.083,1.781.7,1.166,1.018,1.711c.176.3.346.584.508.857s.317.53.463.769.282.46.407.659.239.375.34.526a1.915,1.915,0,0,0,.28.356,1.755,1.755,0,0,0,.341.266,1.613,1.613,0,0,0,.385.167A1.509,1.509,0,0,0,7.858,31.714Zm6.257-11.633a.173.173,0,0,1,0,.041.178.178,0,0,1-.013.037.23.23,0,0,1-.021.034.384.384,0,0,1-.027.033,15.648,15.648,0,0,0-1.487,1.882c-.522.753-1.063,1.612-1.6,2.514s-1.069,1.847-1.575,2.772S8.4,29.225,7.975,30.05a.233.233,0,0,1-.029.05.1.1,0,0,1-.029.026.083.083,0,0,1-.029.009H7.858a.218.218,0,0,1-.065-.011.342.342,0,0,1-.073-.034.454.454,0,0,1-.076-.058.546.546,0,0,1-.072-.084c-.094-.143-.2-.315-.323-.509s-.252-.412-.395-.647L6.4,28.036c-.161-.268-.33-.549-.506-.84-.325-.549-.672-1.131-1.03-1.727s-.728-1.205-1.1-1.807-.745-1.2-1.111-1.761-.725-1.1-1.066-1.59c-.013-.022-.03-.047-.049-.073l-.057-.081c-.019-.027-.036-.053-.05-.076a.222.222,0,0,1-.027-.057L2.238,1.807a.222.222,0,0,1,.016-.082A.229.229,0,0,1,2.3,1.657a.2.2,0,0,1,.062-.047.171.171,0,0,1,.074-.017H13.061a.171.171,0,0,1,.074.017.2.2,0,0,1,.062.047.228.228,0,0,1,.043.069.222.222,0,0,1,.016.082V1.85Z" transform="translate(3.2 82.979)" fill="#333336"/>
    <path id="Path_315" data-name="Path 315" d="M5.464,57.963h6.193a5.014,5.014,0,0,0,2.127-.473A5.475,5.475,0,0,0,15.52,56.2a6.1,6.1,0,0,0,1.171-1.915,6.542,6.542,0,0,0,.429-2.345V0H0V51.939a6.542,6.542,0,0,0,.429,2.345A6.1,6.1,0,0,0,1.6,56.2,5.475,5.475,0,0,0,3.337,57.49,5.014,5.014,0,0,0,5.464,57.963Z" transform="translate(2.407 32.044)" fill="#deddda"/>
    <path id="Path_316" data-name="Path 316" d="M6.179,59.541h6.192a5.66,5.66,0,0,0,2.4-.536,6.206,6.206,0,0,0,1.964-1.461,6.913,6.913,0,0,0,1.325-2.166,7.384,7.384,0,0,0,.486-2.65V0H0V52.728a7.384,7.384,0,0,0,.486,2.65,6.913,6.913,0,0,0,1.325,2.166A6.206,6.206,0,0,0,3.776,59,5.659,5.659,0,0,0,6.179,59.541ZM17.12,1.578v51.15a5.659,5.659,0,0,1-.374,2.034,5.321,5.321,0,0,1-1.019,1.665,4.778,4.778,0,0,1-1.51,1.124,4.339,4.339,0,0,1-1.845.413H6.179a4.338,4.338,0,0,1-1.845-.413,4.778,4.778,0,0,1-1.51-1.124,5.322,5.322,0,0,1-1.019-1.665,5.659,5.659,0,0,1-.374-2.034V1.578Z" transform="translate(1.691 31.255)" fill="#333336"/>
    <path id="Path_317" data-name="Path 317" d="M0,21.028a53.873,53.873,0,0,1,.806-10A21.194,21.194,0,0,1,3,4.549a9.233,9.233,0,0,1,3.259-3.5A7.677,7.677,0,0,1,10.251,0a7.677,7.677,0,0,1,3.989,1.049,9.233,9.233,0,0,1,3.259,3.5,21.194,21.194,0,0,1,2.2,6.483,53.873,53.873,0,0,1,.806,10V43.662a9.443,9.443,0,0,1-.621,3.388,8.827,8.827,0,0,1-1.693,2.768,7.924,7.924,0,0,1-2.51,1.867,7.237,7.237,0,0,1-3.072.685H7.9a7.238,7.238,0,0,1-3.072-.685,7.922,7.922,0,0,1-2.51-1.867A8.828,8.828,0,0,1,.621,47.05,9.443,9.443,0,0,1,0,43.662Z" transform="translate(0.715 0.789)" fill="#813d9c"/>
    <path id="Path_318" data-name="Path 318" d="M8.612,53.947h4.709A7.882,7.882,0,0,0,16.67,53.2a8.652,8.652,0,0,0,2.738-2.037,9.637,9.637,0,0,0,1.848-3.019,10.284,10.284,0,0,0,.678-3.692V21.817q0-2.84-.195-5.323a45.028,45.028,0,0,0-.584-4.6,28.461,28.461,0,0,0-.972-3.863A17.57,17.57,0,0,0,18.824,4.92a11.813,11.813,0,0,0-1.533-2.142,8.8,8.8,0,0,0-1.825-1.539,7.909,7.909,0,0,0-2.11-.928,9.361,9.361,0,0,0-4.777,0,7.877,7.877,0,0,0-2.107.925A8.783,8.783,0,0,0,4.648,2.771,11.905,11.905,0,0,0,3.109,4.92,17.57,17.57,0,0,0,1.751,8.032a28.48,28.48,0,0,0-.972,3.863,44.994,44.994,0,0,0-.584,4.6Q0,18.976,0,21.817V44.451a10.284,10.284,0,0,0,.678,3.692,9.639,9.639,0,0,0,1.848,3.019A8.653,8.653,0,0,0,5.263,53.2,7.883,7.883,0,0,0,8.612,53.947ZM10.967,1.578a7.508,7.508,0,0,1,2.012.263,6.653,6.653,0,0,1,1.779.786A7.471,7.471,0,0,1,16.3,3.932a10.134,10.134,0,0,1,1.3,1.82,16.055,16.055,0,0,1,1.264,2.914,26.893,26.893,0,0,1,.9,3.656,43.635,43.635,0,0,1,.542,4.387q.181,2.375.181,5.108V44.451a8.56,8.56,0,0,1-.566,3.077,8.047,8.047,0,0,1-1.542,2.517,7.226,7.226,0,0,1-2.283,1.7,6.562,6.562,0,0,1-2.791.624H8.6a6.562,6.562,0,0,1-2.791-.624,7.226,7.226,0,0,1-2.283-1.7,8.047,8.047,0,0,1-1.542-2.517,8.56,8.56,0,0,1-.566-3.077V21.817q0-2.727.182-5.1a43.74,43.74,0,0,1,.545-4.388,27.171,27.171,0,0,1,.9-3.659A16.228,16.228,0,0,1,4.306,5.752a10.171,10.171,0,0,1,1.312-1.82A7.528,7.528,0,0,1,7.168,2.627a6.7,6.7,0,0,1,1.785-.786A7.531,7.531,0,0,1,10.967,1.578Z" fill="#333336"/>
    <path id="Path_319" data-name="Path 319" d="M1.86,2.051m1.86,0a2.228,2.228,0,0,1-.146.8,2.077,2.077,0,0,1-.4.652,1.865,1.865,0,0,1-.591.44,1.707,1.707,0,0,1-1.448,0A1.864,1.864,0,0,1,.545,3.5a2.078,2.078,0,0,1-.4-.652,2.253,2.253,0,0,1,0-1.6A2.078,2.078,0,0,1,.545.6a1.864,1.864,0,0,1,.591-.44,1.707,1.707,0,0,1,1.448,0A1.865,1.865,0,0,1,3.176.6a2.077,2.077,0,0,1,.4.652A2.228,2.228,0,0,1,3.721,2.051Z" transform="translate(9.107 95.329)" fill="#f2f0e7"/>
    <path id="Path_320" data-name="Path 320" d="M2.576,5.68a2.352,2.352,0,0,0,1-.224,2.594,2.594,0,0,0,.819-.61,2.889,2.889,0,0,0,.553-.9,3.1,3.1,0,0,0,0-2.207A2.89,2.89,0,0,0,4.4.834a2.594,2.594,0,0,0-.819-.61,2.348,2.348,0,0,0-2,0,2.593,2.593,0,0,0-.819.61,2.889,2.889,0,0,0-.553.9,3.1,3.1,0,0,0,0,2.207,2.888,2.888,0,0,0,.553.9,2.594,2.594,0,0,0,.819.61A2.351,2.351,0,0,0,2.576,5.68Zm0-4.1a1.063,1.063,0,0,1,.448.1,1.135,1.135,0,0,1,.364.269,1.266,1.266,0,0,1,.244.4,1.411,1.411,0,0,1,0,.987,1.266,1.266,0,0,1-.244.4A1.134,1.134,0,0,1,3.024,4a1.068,1.068,0,0,1-.9,0,1.134,1.134,0,0,1-.364-.269,1.264,1.264,0,0,1-.244-.4,1.411,1.411,0,0,1,0-.987,1.265,1.265,0,0,1,.244-.4,1.135,1.135,0,0,1,.364-.269A1.063,1.063,0,0,1,2.576,1.578Z" transform="translate(8.391 94.54)" fill="#333336"/>
    <path id="Path_321" data-name="Path 321" d="M1.431,0H0V13.985H1.431Z" transform="translate(10.251 99.431)" fill="#333336"/>
    <path id="Path_322" data-name="Path 322" d="M.781,33.392a.711.711,0,0,0,.3-.068.787.787,0,0,0,.248-.185.875.875,0,0,0,.168-.274.928.928,0,0,0,.062-.334V.861A.928.928,0,0,0,1.5.526.876.876,0,0,0,1.332.253.787.787,0,0,0,1.084.068a.71.71,0,0,0-.606,0A.787.787,0,0,0,.229.253.877.877,0,0,0,.062.526.928.928,0,0,0,0,.861V32.532a.928.928,0,0,0,.062.334.877.877,0,0,0,.168.274.787.787,0,0,0,.248.185A.712.712,0,0,0,.781,33.392Z" transform="translate(10.186 11.002)" fill="#333336"/>
  </g>
</svg>
