<svg xmlns="http://www.w3.org/2000/svg" width="431.054" height="889.497" viewBox="0 0 431.054 889.497">
  <g id="Consent-pana" transform="translate(-816.408 340.046)">
    <g id="freepik--Character--inject-21" transform="translate(816.545 -343.355)">
      <g id="Group_9" data-name="Group 9" transform="translate(9.545 661.294)" opacity="0.6">
        <path id="Path_151" data-name="Path 151" d="M82.6,446.1a1.45,1.45,0,0,1,.38,2,1.58,1.58,0,0,1-2,.37,1.52,1.52,0,0,1-.39-2.08,1.62,1.62,0,0,1,2.17-.16" transform="translate(-80.337 -445.887)" fill="#fff"/>
      </g>
      <g id="Group_12" data-name="Group 12" transform="translate(94.282 446.196)" opacity="0.3">
        <path id="Path_216" data-name="Path 216" d="M170.72,218.29l1.06,2.98v1.45h-1.2Z" transform="translate(-170.58 -218.29)"/>
      </g>
      <g id="freepik--Clipboard--inject-21" transform="translate(14.882) rotate(0.974)">
        <path id="Path_84" data-name="Path 84" d="M400.237,851.035,25.015,859.288c-4.389.1-8.624-2.38-11.767-6.881a30.653,30.653,0,0,1-4.978-17.1L.023,33.1C-.114,19.734,7.152,8.732,16.257,8.522L391.495.269c4.387-.09,8.617,2.39,11.756,6.89a30.659,30.659,0,0,1,4.972,17.091l8.247,802.205C416.608,839.823,409.342,850.825,400.237,851.035Z" transform="translate(0.017 26.435)" fill="#e0e0e0"/>
        <g id="Group_3" data-name="Group 3" transform="translate(46.535 810.514)" opacity="0.3">
          <path id="Path_86" data-name="Path 86" d="M3.92,0Z"/>
        </g>
        <g id="Group_4" data-name="Group 4" transform="translate(46.535 810.514)" opacity="0.3">
          <path id="Path_88" data-name="Path 88" d="M3.92,0Z"/>
        </g>
        <path id="Path_229" data-name="Path 229" d="M4,2.808,386.618.019l-3.959,819.492L.038,822.3Z" transform="translate(10.24 50.447) rotate(-0.86)" fill="#fff"/>
        <path id="Path_453" data-name="Path 453" d="M0,.025,49.032.034l.01,10L.01,10.029Z" transform="translate(23.683 443.231) rotate(-0.86)" fill="#e0e0e0"/>
        <path id="Path_454" data-name="Path 454" d="M0,0,98.374.073l.015,9.667L.015,9.667Z" transform="translate(183.936 225.335) rotate(-0.86)" fill="#f5f5f5"/>
        <path id="Path_455" data-name="Path 455" d="M0,.025,46.752.032l.01,10.021L.01,10.046Z" transform="translate(21.129 227.467) rotate(-0.86)" fill="#f5f5f5"/>
        <path id="Path_452" data-name="Path 452" d="M0,.024H35.544l.009,10.106H.009Z" transform="translate(356.008 222.441) rotate(-0.86)" fill="#f5f5f5"/>
        <path id="Path_456" data-name="Path 456" d="M0,.027,63.237.044l.013,11.345L.013,11.372Z" transform="translate(29.079 832.069) rotate(-0.86)" fill="#e0e0e0"/>
        <path id="Path_228" data-name="Path 228" d="M0,0,367.313,3.152l.186,9.929L.186,9.929Z" transform="translate(24.007 459.533) rotate(-0.86)" fill="#e0e0e0"/>
        <path id="Path_100" data-name="Path 100" d="M6.3.072H108.555a6.24,6.24,0,0,1,6.318,6.15l.023,26.31H.025L0,6.222A6.226,6.226,0,0,1,6.3.072Z" transform="translate(150.337 17.301) rotate(-0.86)" fill="#263238"/>
        <path id="Path_101" data-name="Path 101" d="M29.085.019,0,.466,3.784,25.3l21.91-.345Z" transform="translate(193.485 0.001)" fill="#263238"/>
        <path id="Path_102" data-name="Path 102" d="M100.368.082c0,.076-22.467.311-50.184.534S0,.954,0,.878,22.458.573,50.184.344,100.358.011,100.368.082Z" transform="translate(181.613 16.982)" fill="#455a64"/>
        <path id="Path_103" data-name="Path 103" d="M.321,21.075c-.09,0-.217-4.719-.283-10.548S.009,0,.085,0,.309,4.719.368,10.548.41,21.075.321,21.075Z" transform="translate(134.371 25.224)" fill="#455a64"/>
        <path id="Path_104" data-name="Path 104" d="M.354,19.155Q.025,14.385.062,9.588-.081,4.8.128,0c.1,0,.23,4.289.292,9.577S.449,19.155.354,19.155Z" transform="translate(323.856 23.064)" fill="#455a64"/>
        <path id="Path_105" data-name="Path 105" d="M103.018.081c0,.07-23.057.313-51.5.529S0,.962,0,.886,23,.578,51.5.357,103.018.011,103.018.081Z" transform="translate(174.193 46.983)" fill="#455a64"/>
        <g id="Group_5" data-name="Group 5" transform="translate(332.917 26.186)" opacity="0.3">
          <path id="Path_106" data-name="Path 106" d="M.293,0,5.109,14.037l.1,6.9-5.2.082Z"/>
        </g>
      </g>
    </g>
    <g id="Consent-pana-2" data-name="Consent-pana" transform="translate(871.14 122.287)">
      <g id="freepik--background-complete--inject-21">
        <path id="Path_230" data-name="Path 230" d="M437.58,212.78l2.39.8a3.25,3.25,0,0,0,4.12-2.07l31.72-95.32a5.78,5.78,0,0,0-3.66-7.31h0Z" transform="translate(-151.237 -52.83)" fill="#e0e0e0"/>
        <path id="Path_231" data-name="Path 231" d="M344.09,400.4l26.7,8.89,75.08-225.65A14.08,14.08,0,0,0,437,165.85h0a14.08,14.08,0,0,0-17.79,8.91Z" transform="translate(-151.237 -52.83)" fill="#f5f5f5"/>
        <path id="Path_232" data-name="Path 232" d="M387.39,270.29l17.43,36.72-3.99,11.98-17.65-36.05Z" transform="translate(-130.87 -52.83)" fill="#fff"/>
        <path id="Path_233" data-name="Path 233" d="M380.78,290.14l17.43,36.72-1.9,5.71-17.65-36.05Z" transform="translate(-129.09 -52.83)" fill="#fff"/>
        <path id="Path_234" data-name="Path 234" d="M416.71,175.87l29.85,9.94,24.68-74.18a15.73,15.73,0,0,0-10-19.89h0a15.72,15.72,0,0,0-19.89,10Z" transform="translate(-151.237 -52.83)" fill="#e0e0e0"/>
        <path id="Path_235" data-name="Path 235" d="M438.06,211.34c-.13-.05,7.18-22.34,16.31-49.79s16.65-49.68,16.78-49.64-7.18,22.34-16.31,49.8S438.19,211.38,438.06,211.34Z" transform="translate(-151.237 -52.83)" fill="#ebebeb"/>
        <path id="Path_236" data-name="Path 236" d="M8.04,0h12a8,8,0,0,1,8,8v5.5H0V8.06A8,8,0,0,1,8.04,0Z" transform="matrix(-0.949, -0.316, 0.316, -0.949, 215.019, 369.296)" fill="#e0e0e0"/>
        <path id="Path_237" data-name="Path 237" d="M440.65,183.84c.13,0-16.48,50.31-37.1,112.27S366.11,408.28,366,408.24s16.48-50.31,37.1-112.29S440.52,183.8,440.65,183.84Z" transform="translate(-151.237 -52.83)" fill="#e0e0e0"/>
        <path id="Path_238" data-name="Path 238" d="M431.94,180.94c.13.05-16.48,50.32-37.1,112.27s-37.43,112.17-37.56,112.13,16.48-50.3,37.1-112.28S431.81,180.9,431.94,180.94Z" transform="translate(-151.237 -52.83)" fill="#e0e0e0"/>
        <path id="Path_239" data-name="Path 239" d="M423.24,178.05c.13,0-16.49,50.31-37.1,112.27S348.7,402.48,348.57,402.44s16.48-50.3,37.1-112.28S423.11,178,423.24,178.05Z" transform="translate(-147.906 -52.83)" fill="#e0e0e0"/>
        <path id="Path_241" data-name="Path 241" d="M120.38,52.83a16,16,0,0,1-1.61,2.33c-1,1.4-2.53,3.31-4.23,5.37s-3.28,3.88-4.46,5.18a14.47,14.47,0,0,1-2,2,18.8,18.8,0,0,1,1.72-2.25l4.34-5.26L118.5,55a15.51,15.51,0,0,1,1.88-2.17Z" transform="translate(-51.792 -52.83)" fill="#e0e0e0"/>
        <path id="Path_242" data-name="Path 242" d="M109.27,169a83.72,83.72,0,0,0,11.82,14.78" transform="translate(-52.1 -52.83)" fill="#fff"/>
        <path id="Path_244" data-name="Path 244" d="M30,183.41l11.81-14.57" transform="translate(-29.95 -52.83)" fill="#fff"/>
        <path id="Path_245" data-name="Path 245" d="M41.76,168.84a88.537,88.537,0,0,1-5.71,7.44,89.921,89.921,0,0,1-6.1,7.13A88.543,88.543,0,0,1,35.66,176a89.921,89.921,0,0,1,6.1-7.16Z" transform="translate(-29.95 -52.83)" fill="#e0e0e0"/>
        <path id="Path_296" data-name="Path 296" d="M91.81,443.43c0,.13-7.88.23-17.59.23s-17.6-.1-17.6-.23,7.87-.22,17.6-.22S91.81,443.31,91.81,443.43Z" transform="translate(-29.95 -52.83)" fill="#fafafa"/>
        <path id="Path_297" data-name="Path 297" d="M91.28,447.73c0,.13-7.39.23-16.5.23s-16.5-.1-16.5-.23,7.39-.22,16.5-.22S91.28,447.61,91.28,447.73Z" transform="translate(-29.95 -52.83)" fill="#fafafa"/>
        <path id="Path_298" data-name="Path 298" d="M63,432a66.12,66.12,0,0,1,0,11,69.11,69.11,0,0,1,0-11Z" transform="translate(-29.95 -52.83)" fill="#fafafa"/>
        <path id="Path_299" data-name="Path 299" d="M75.8,432a74.08,74.08,0,0,1,0,11.41,70.869,70.869,0,0,1,0-11.41Z" transform="translate(-29.95 -52.83)" fill="#fafafa"/>
        <path id="Path_300" data-name="Path 300" d="M87.83,431.92a73.753,73.753,0,0,1,0,11.64A77.092,77.092,0,0,1,87.83,431.92Z" transform="translate(-29.95 -52.83)" fill="#fafafa"/>
        <path id="Path_301" data-name="Path 301" d="M94.93,432c0,.12-9.24.22-20.64.22s-20.64-.1-20.64-.22,9.24-.23,20.64-.23S94.93,431.89,94.93,432Z" transform="translate(-29.95 -52.83)" fill="#fafafa"/>
      </g>
    </g>
  </g>
</svg>
