<svg xmlns="http://www.w3.org/2000/svg" width="641.997" height="867.907" viewBox="0 0 641.997 867.907">
  <g id="Consent-pana" transform="translate(-718.285 282.584)">
    <g id="freepik--Character--inject-21" transform="translate(637.948 -66.664)">
      <g id="Group_9" data-name="Group 9" opacity="0.6">
        <path id="Path_151" data-name="Path 151" d="M82.6,446.1a1.45,1.45,0,0,1,.38,2,1.58,1.58,0,0,1-2,.37,1.52,1.52,0,0,1-.39-2.08,1.62,1.62,0,0,1,2.17-.16" fill="#fff"/>
      </g>
      <g id="Group_12" data-name="Group 12" opacity="0.3">
        <path id="Path_216" data-name="Path 216" d="M170.72,218.29l1.06,2.98v1.45h-1.2Z"/>
      </g>
      <g id="freepik--Clipboard--inject-21" transform="matrix(1, 0.017, -0.017, 1, 163.699, -250.368)">
        <path id="Path_84" data-name="Path 84" d="M543.445,884.375,172.5,892.481c-4.339.094-8.526-2.339-11.632-6.762a29.987,29.987,0,0,1-4.919-16.8L147.871,80.651C147.736,67.515,154.92,56.7,163.922,56.5l370.965-8.106c4.337-.088,8.519,2.348,11.622,6.77a29.992,29.992,0,0,1,4.914,16.794L559.5,860.222C559.631,873.358,552.447,884.169,543.445,884.375Z" transform="translate(0 0)" fill="#e0e0e0"/>
        <path id="Path_85" data-name="Path 85" d="M543.414,884.053l1.243-.141a13.552,13.552,0,0,0,3.631-1.107,16.675,16.675,0,0,0,5.278-4.333,26.131,26.131,0,0,0,4.842-9.938,32.191,32.191,0,0,0,.984-7.23v-8.219q-.1-8.643-.21-18.84c-.145-13.659-.323-29.438-.516-47.1l-3.228-300.785c-.662-63.586-1.388-133.036-2.179-207.691q-.581-56.026-1.194-115.727-.307-29.815-.629-60.5-.177-15.331-.355-30.875a30.081,30.081,0,0,0-3.728-13.942c-2.3-3.925-5.417-6.639-8.877-7.725a15.975,15.975,0,0,0-5.294-.471h-5.423l-10.894.259-21.966.471-44.835.918L357.908,53.1,164.091,57.341c-8.5.145-15.412,10.026-15.687,22.42,0,11.964.226,24.021.323,35.961q.355,35.891.726,71.287.726,70.792,1.42,139.371c.936,91.375,1.824,179.524,2.679,263.482s1.614,163.746,2.421,238.424q.129,13.989.274,27.766c0,4.569,0,9.161.178,13.659a30.3,30.3,0,0,0,3.018,12.364,18.789,18.789,0,0,0,7.037,7.984,12.8,12.8,0,0,0,4.358,1.531,41.321,41.321,0,0,0,4.519,0l17.979-.377,68.318-1.46,206.164-4.263,56.036-1.13,14.525-.259h4.971l-4.971.165-14.525.377-56.036,1.389L261.7,890.741l-68.3,1.531-18,.4c-1.5,0-3.018.118-4.584,0a13.212,13.212,0,0,1-4.519-1.578,19.623,19.623,0,0,1-7.327-8.29,31.657,31.657,0,0,1-3.228-12.835c-.113-4.71-.113-9.138-.178-13.73q-.145-13.73-.29-27.742c-.775-74.678-1.614-154.467-2.469-238.424s-1.775-172.106-2.728-263.481q-.71-68.532-1.436-139.371-.371-35.326-.726-71.287c-.113-11.987-.291-23.951-.339-36.032.293-13.008,7.543-23.381,16.462-23.55l193.817-4.216,92.2-2.143,44.69-.966,21.966-.471,10.878-.236h5.423a15.949,15.949,0,0,1,5.455.495c7.43,2.195,12.893,11.466,13.266,22.514q.178,15.543.339,30.9.307,30.615.613,60.524.613,59.63,1.162,115.7c.758,74.655,1.452,144.223,2.082,207.714,1.259,126.984,2.259,229.757,2.97,300.785.161,17.757.307,33.536.436,47.1q.1,10.245.177,18.84c0,2.9.1,5.629,0,8.266a32.538,32.538,0,0,1-1.017,7.277c-1.735,6.779-5.488,12.039-10.2,14.3a11.73,11.73,0,0,1-3.631,1.06Z" transform="translate(0 0)" fill="#263238"/>
        <g id="Group_3" data-name="Group 3" transform="translate(174.19 814.333)" opacity="0.3">
          <path id="Path_86" data-name="Path 86" d="M178.367,397.58l363.17-4.28,3.12-40.52-11.768-24.33-358.7,35.52Z" transform="translate(-174.19 -328.45)"/>
        </g>
        <path id="Path_87" data-name="Path 87" d="M543.414,884.053l1.243-.141a13.552,13.552,0,0,0,3.631-1.107,16.675,16.675,0,0,0,5.278-4.333,26.131,26.131,0,0,0,4.842-9.938,32.191,32.191,0,0,0,.984-7.23v-8.219q-.1-8.643-.21-18.84c-.145-13.659-.323-29.438-.516-47.1l-3.228-300.785c-.662-63.586-1.388-133.036-2.179-207.691q-.581-56.026-1.194-115.727-.307-29.815-.629-60.5-.177-15.331-.355-30.875a30.081,30.081,0,0,0-3.728-13.942c-2.3-3.925-5.417-6.639-8.877-7.725a15.975,15.975,0,0,0-5.294-.471h-5.423l-10.894.259-21.966.471-44.835.918L357.908,53.1,164.091,57.341c-8.5.145-15.412,10.026-15.687,22.42,0,11.964.226,24.021.323,35.961q.355,35.891.726,71.287.726,70.792,1.42,139.371c.936,91.375,1.824,179.524,2.679,263.482s1.614,163.746,2.421,238.424q.129,13.989.274,27.766c0,4.569,0,9.161.178,13.659a30.3,30.3,0,0,0,3.018,12.364,18.789,18.789,0,0,0,7.037,7.984,12.8,12.8,0,0,0,4.358,1.531,41.321,41.321,0,0,0,4.519,0l17.979-.377,68.318-1.46,206.164-4.263,56.036-1.13,14.525-.259h4.971l-4.971.165-14.525.377-56.036,1.389L261.7,890.741l-68.3,1.531-18,.4c-1.5,0-3.018.118-4.584,0a13.212,13.212,0,0,1-4.519-1.578,19.623,19.623,0,0,1-7.327-8.29,31.657,31.657,0,0,1-3.228-12.835c-.113-4.71-.113-9.138-.178-13.73q-.145-13.73-.29-27.742c-.775-74.678-1.614-154.467-2.469-238.424s-1.775-172.106-2.728-263.481q-.71-68.532-1.436-139.371-.371-35.326-.726-71.287c-.113-11.987-.291-23.951-.339-36.032.293-13.008,7.543-23.381,16.462-23.55l193.817-4.216,92.2-2.143,44.69-.966,21.966-.471,10.878-.236h5.423a15.949,15.949,0,0,1,5.455.495c7.43,2.195,12.893,11.466,13.266,22.514q.178,15.543.339,30.9.307,30.615.613,60.524.613,59.63,1.162,115.7c.758,74.655,1.452,144.223,2.082,207.714,1.259,126.984,2.259,229.757,2.97,300.785.161,17.757.307,33.536.436,47.1q.1,10.245.177,18.84c0,2.9.1,5.629,0,8.266a32.538,32.538,0,0,1-1.017,7.277c-1.735,6.779-5.488,12.039-10.2,14.3a11.73,11.73,0,0,1-3.631,1.06Z" transform="translate(0 0)" fill="#263238"/>
        <g id="Group_4" data-name="Group 4" transform="translate(174.19 814.333)" opacity="0.3">
          <path id="Path_88" data-name="Path 88" d="M178.367,397.58l363.17-4.28,3.12-40.52-11.768-24.33-358.7,35.52Z" transform="translate(-174.19 -328.45)"/>
        </g>
        <path id="Path_229" data-name="Path 229" d="M1.258,1.116,379.02-1.6l-3.907,804.578L-2.649,805.693Z" transform="translate(161.619 73.71) rotate(-0.86)" fill="#fff"/>
        <path id="Path_89" data-name="Path 89" d="M546.717,867.065c0-4.645-3.483-329.512-8.5-803.983l.353.522L160.787,72h0l.387-.571c3.028,301.916,5.838,580.856,8.076,803.959l-.32-.447,377.787-7.874L168.88,875.883h-.3v-.447c-2.288-223.127-5.131-502.067-8.227-803.983v-.6h.421l377.854-8.3h.353v.522C543.588,537.553,546.717,862.42,546.717,867.065Z" transform="translate(0 0)" fill="#263238"/>
        <rect id="Rectangle_10" data-name="Rectangle 10" width="49.13" height="10.4" transform="translate(176.355 457.008) rotate(-0.86)" fill="#e0e0e0"/>
        <rect id="Rectangle_11" data-name="Rectangle 11" width="98.48" height="10.4" transform="translate(311.158 243.172) rotate(-0.86)" fill="#f5f5f5"/>
        <rect id="Rectangle_12" data-name="Rectangle 12" width="46.85" height="10.4" transform="translate(173.801 245.366) rotate(-0.86)" fill="#f5f5f5"/>
        <rect id="Rectangle_13" data-name="Rectangle 13" width="35.64" height="10.4" transform="translate(490.158 240.409) rotate(-0.86)" fill="#f5f5f5"/>
        <rect id="Rectangle_14" data-name="Rectangle 14" width="63.35" height="11.85" transform="translate(181.743 836.56) rotate(-0.86)" fill="#e0e0e0"/>
        <path id="Path_228" data-name="Path 228" d="M0,0,350.886,2.35l.143,11.852L.143,11.852Z" transform="translate(176.631 472.309) rotate(-0.86)" fill="#e0e0e0"/>
        <path id="Path_100" data-name="Path 100" d="M6.32,0H108.85a6.33,6.33,0,0,1,6.33,6.33V33.41H0V6.33A6.33,6.33,0,0,1,6.32,0Z" transform="translate(302.224 42.093) rotate(-0.86)" fill="#263238"/>
        <path id="Path_101" data-name="Path 101" d="M292.49,28.46l-29.31.44,3.8,25.08,22.08-.34Z" transform="translate(80.177)" fill="#263238"/>
        <path id="Path_102" data-name="Path 102" d="M328.21,40.49c0,.14-22.47.58-50.19,1s-50.19.64-50.19.5,22.46-.57,50.19-1S328.2,40.36,328.21,40.49Z" transform="translate(81.198)" fill="#455a64"/>
        <path id="Path_103" data-name="Path 103" d="M223.43,70.08c-.13,0-.31-4.72-.4-10.55S223,49,223.11,49s.32,4.72.4,10.55S223.56,70.08,223.43,70.08Z" transform="translate(46.398)" fill="#455a64"/>
        <path id="Path_104" data-name="Path 104" d="M332.26,66a91.905,91.905,0,0,1-.39-9.57,95.818,95.818,0,0,1,.1-9.59c.13,0,.31,4.29.39,9.58A95.66,95.66,0,0,1,332.26,66Z" transform="translate(113.364)" fill="#455a64"/>
        <path id="Path_105" data-name="Path 105" d="M326.77,70.48c0,.13-23.06.59-51.51,1s-51.52.67-51.52.53,23-.58,51.51-1S326.77,70.35,326.77,70.48Z" transform="translate(78.401)" fill="#455a64"/>
        <g id="Group_5" data-name="Group 5" transform="translate(453.273 49.94)" opacity="0.3">
          <path id="Path_106" data-name="Path 106" d="M335.75,49.94l4.98,14.07.1,6.92-5.38.08Z" transform="translate(-335.45 -49.94)"/>
        </g>
        <g id="Group_6" data-name="Group 6" transform="translate(372.449 412.856)" opacity="0.3">
          <path id="Path_114" data-name="Path 114" d="M202.37,339.14l.89,12.12s27,.39,39.4-1.57l-.3,7.62,27-22.7-36-1.42Z" transform="translate(-202.37 -333.19)"/>
        </g>
      </g>
    </g>
    <g id="Consent-pana-2" data-name="Consent-pana" transform="translate(809.434 121.382)">
      <g id="freepik--background-complete--inject-21">
        <path id="Path_230" data-name="Path 230" d="M437.58,212.78l2.39.8a3.25,3.25,0,0,0,4.12-2.07l31.72-95.32a5.78,5.78,0,0,0-3.66-7.31h0Z" fill="#e0e0e0"/>
        <path id="Path_231" data-name="Path 231" d="M344.09,400.4l26.7,8.89,75.08-225.65A14.08,14.08,0,0,0,437,165.85h0a14.08,14.08,0,0,0-17.79,8.91Z" fill="#f5f5f5"/>
        <path id="Path_232" data-name="Path 232" d="M387.39,270.29l17.43,36.72-3.99,11.98-17.65-36.05Z" fill="#fff"/>
        <path id="Path_233" data-name="Path 233" d="M380.78,290.14l17.43,36.72-1.9,5.71-17.65-36.05Z" fill="#fff"/>
        <path id="Path_234" data-name="Path 234" d="M416.71,175.87l29.85,9.94,24.68-74.18a15.73,15.73,0,0,0-10-19.89h0a15.72,15.72,0,0,0-19.89,10Z" fill="#e0e0e0"/>
        <path id="Path_235" data-name="Path 235" d="M438.06,211.34c-.13-.05,7.18-22.34,16.31-49.79s16.65-49.68,16.78-49.64-7.18,22.34-16.31,49.8S438.19,211.38,438.06,211.34Z" fill="#ebebeb"/>
        <path id="Path_236" data-name="Path 236" d="M349.29,404.5h12a8,8,0,0,1,8,8V418H341.25v-5.44a8,8,0,0,1,8.04-8.06Z" transform="matrix(-0.949, -0.316, 0.316, -0.949, 562.61, 913.63)" fill="#e0e0e0"/>
        <path id="Path_237" data-name="Path 237" d="M440.65,183.84c.13,0-16.48,50.31-37.1,112.27S366.11,408.28,366,408.24s16.48-50.31,37.1-112.29S440.52,183.8,440.65,183.84Z" fill="#e0e0e0"/>
        <path id="Path_238" data-name="Path 238" d="M431.94,180.94c.13.05-16.48,50.32-37.1,112.27s-37.43,112.17-37.56,112.13,16.48-50.3,37.1-112.28S431.81,180.9,431.94,180.94Z" fill="#e0e0e0"/>
        <path id="Path_239" data-name="Path 239" d="M423.24,178.05c.13,0-16.49,50.31-37.1,112.27S348.7,402.48,348.57,402.44s16.48-50.3,37.1-112.28S423.11,178,423.24,178.05Z" fill="#e0e0e0"/>
        <path id="Path_241" data-name="Path 241" d="M120.38,52.83a16,16,0,0,1-1.61,2.33c-1,1.4-2.53,3.31-4.23,5.37s-3.28,3.88-4.46,5.18a14.47,14.47,0,0,1-2,2,18.8,18.8,0,0,1,1.72-2.25l4.34-5.26L118.5,55a15.51,15.51,0,0,1,1.88-2.17Z" fill="#e0e0e0"/>
        <path id="Path_242" data-name="Path 242" d="M109.27,169a83.72,83.72,0,0,0,11.82,14.78" fill="#fff"/>
        <path id="Path_244" data-name="Path 244" d="M30,183.41l11.81-14.57" fill="#fff"/>
        <path id="Path_245" data-name="Path 245" d="M41.76,168.84a88.539,88.539,0,0,1-5.71,7.44,89.921,89.921,0,0,1-6.1,7.13A88.545,88.545,0,0,1,35.66,176a89.918,89.918,0,0,1,6.1-7.16Z" fill="#e0e0e0"/>
        <path id="Path_296" data-name="Path 296" d="M91.81,443.43c0,.13-7.88.23-17.59.23s-17.6-.1-17.6-.23,7.87-.22,17.6-.22S91.81,443.31,91.81,443.43Z" fill="#fafafa"/>
        <path id="Path_297" data-name="Path 297" d="M91.28,447.73c0,.13-7.39.23-16.5.23s-16.5-.1-16.5-.23,7.39-.22,16.5-.22S91.28,447.61,91.28,447.73Z" fill="#fafafa"/>
        <path id="Path_298" data-name="Path 298" d="M63,432a66.12,66.12,0,0,1,0,11,69.11,69.11,0,0,1,0-11Z" fill="#fafafa"/>
        <path id="Path_299" data-name="Path 299" d="M75.8,432a74.08,74.08,0,0,1,0,11.41,70.869,70.869,0,0,1,0-11.41Z" fill="#fafafa"/>
        <path id="Path_300" data-name="Path 300" d="M87.83,431.92a73.753,73.753,0,0,1,0,11.64,77.091,77.091,0,0,1,0-11.64Z" fill="#fafafa"/>
        <path id="Path_301" data-name="Path 301" d="M94.93,432c0,.12-9.24.22-20.64.22s-20.64-.1-20.64-.22,9.24-.23,20.64-.23S94.93,431.89,94.93,432Z" fill="#fafafa"/>
      </g>
    </g>
  </g>
</svg>
